<svg xmlns="http://www.w3.org/2000/svg" xmlns:xlink="http://www.w3.org/1999/xlink" width="283" height="95" viewBox="0 0 283 95">
  <defs>
    <clipPath id="clip-Artboard_1">
      <rect width="283" height="95"/>
    </clipPath>
  </defs>
  <g id="Artboard_1" data-name="Artboard – 1" clip-path="url(#clip-Artboard_1)">
    <rect width="283" height="95" fill="#fff"/>
    <rect id="Rectangle_2" data-name="Rectangle 2" width="283" height="95" fill="#fff"/>
    <g id="Group_5" data-name="Group 5" transform="translate(-1739 -104.361)">
      <path id="Path_49" data-name="Path 49" d="M126.4,290.078a1.753,1.753,0,0,0,1.344-.566,1.825,1.825,0,0,0,.566-1.344,1.767,1.767,0,0,0-.566-1.348,1.836,1.836,0,0,0-1.344-.562,1.805,1.805,0,0,0-1.344.563,1.84,1.84,0,0,0-.566,1.348,1.794,1.794,0,0,0,.566,1.344,1.759,1.759,0,0,0,1.344.566" transform="translate(1669.371 -146.275)" fill="#d20a11"/>
      <path id="Path_50" data-name="Path 50" d="M114.555,279.277c-6.418.977-10.332,6.863-11.73,11.605l-.027.1c-.4,1.367-.633,2.238-.285,2.957a6.742,6.742,0,0,0,1.883,2.141,24.429,24.429,0,0,0,12.137,5.156,2.91,2.91,0,0,0,.906.016,1.655,1.655,0,0,0,.75-1.207c.664-3-.059-6.383-.762-9.648l-.254-1.2c-.613-2.93-1.387-6.395-2.484-9.871a.146.146,0,0,0-.133-.055m2.578,26.008a8.219,8.219,0,0,1-1.109-.082,28.519,28.519,0,0,1-14.176-6.035,10.663,10.663,0,0,1-2.937-3.48c-1.039-2.148-.437-4.191.047-5.836l.031-.1c2.281-7.73,8.152-13.4,14.961-14.434a4.145,4.145,0,0,1,4.551,2.809,105.21,105.21,0,0,1,2.586,10.258l.25,1.172c.754,3.516,1.609,7.5.758,11.352a5.369,5.369,0,0,1-3.465,4.16,4.88,4.88,0,0,1-1.5.215" transform="translate(1669.371 -146.275)" fill="#d20a11"/>
      <path id="Path_51" data-name="Path 51" d="M133.227,338.641a2,2,0,0,1-1.926-1.469c-.484-1.758-1.008-3.508-1.527-5.254-.844-2.82-1.711-5.738-2.426-8.68-.238-.969-.66-2.273-1.109-3.656a51.891,51.891,0,0,1-1.457-5.027c-.113-.566-.254-1.055-.391-1.523a10.2,10.2,0,0,1-.516-4.055,5.144,5.144,0,0,1,1.746-3.473c1.953-1.7,4.992-1.535,7.43-1.4.551.031,1.066.055,1.5.055a8.34,8.34,0,0,0,4.7-1.07,15.012,15.012,0,0,0,6.973-12.469.894.894,0,0,0-.242-.75,1.427,1.427,0,0,0-.8-.594l-10.812-1.238a4.715,4.715,0,0,1-3.629-1.73,9.4,9.4,0,0,1-.6-.91c-.074-.121-.148-.242-.23-.363-.82-1.254-2.352-1.934-4.262-2.7-.687-.273-1.383-.527-2.074-.777l-.719-.262a.014.014,0,0,1-.012,0c-.758-.277-4.3-1.1-6.234-1.543-.172-.039-.332-.074-.477-.109-.6-.137-1.082-.25-1.352-.312a2,2,0,0,1-1.535-1.941,2.132,2.132,0,0,1,.055-.469,2,2,0,0,1,2.41-1.48c.262.063.73.172,1.316.3,3.1.711,6.211,1.438,7.191,1.793l.719.266c.73.266,1.465.527,2.188.816,1.918.766,4.551,1.809,6.129,4.215.105.16.207.328.309.5a5.908,5.908,0,0,0,.348.531c.059.082.191.117.9.2l10.938,1.254a1.442,1.442,0,0,1,.18.031,5.271,5.271,0,0,1,3.164,2,4.8,4.8,0,0,1,1.129,3.543,19,19,0,0,1-8.746,15.523,12.037,12.037,0,0,1-6.887,1.742c-.523,0-1.109-.027-1.75-.062-1.441-.078-3.852-.211-4.582.426a1.135,1.135,0,0,0-.387.785,6.307,6.307,0,0,0,.371,2.617c.152.523.324,1.113.469,1.84.238,1.188.8,2.914,1.34,4.586.473,1.457.918,2.832,1.191,3.945.691,2.844,1.543,5.707,2.371,8.48.355,1.2.711,2.387,1.055,3.586a33.408,33.408,0,0,0,8.578-3.848,40.512,40.512,0,0,0,3.555-2.484,39.971,39.971,0,0,0,11.613-14.5q.393-.844.738-1.707l.039-.1c.125-.312.23-.609.34-.91l.066-.184a37.445,37.445,0,0,0,2.113-12.152c0-.027,0-.047,0-.07l0-.129A37.541,37.541,0,1,0,94.5,321.172c.457-.551.926-1.105,1.422-1.652l.367-.4a21.61,21.61,0,0,0,2.691-3.355c1.68-2.793,2.133-6.379,2.566-9.848.109-.855.215-1.7.336-2.527.125-.844.23-2.93.246-4a2,2,0,0,1,2-1.969h.035a2,2,0,0,1,1.969,2.031c-.016,1-.117,3.363-.289,4.523-.117.8-.219,1.613-.324,2.438-.488,3.883-.992,7.895-3.1,11.414a25.362,25.362,0,0,1-3.172,3.992l-.359.391c-.605.672-1.18,1.363-1.785,2.1-.352.426-.7.852-1.059,1.27-.039.047-.078.09-.121.137a2.08,2.08,0,0,1-.543.391,2.025,2.025,0,0,1-.859.2,2.2,2.2,0,0,1-.875-.191,2.08,2.08,0,0,1-.547-.379c-.043-.043-.086-.09-.125-.137a41.541,41.541,0,1,1,72.746-27.418l0,.238a.662.662,0,0,1,0,.086v0a41.347,41.347,0,0,1-2.348,13.465l-.07.2c-.121.344-.246.684-.379,1.023l-.047.117c-.262.645-.535,1.281-.828,1.906a43.951,43.951,0,0,1-12.77,15.961,45.724,45.724,0,0,1-3.945,2.754c-3.051,1.8-7.551,4.227-11.871,4.7a2.052,2.052,0,0,1-.219.012" transform="translate(1669.371 -146.275)" fill="#d20a11"/>
      <path id="Path_52" data-name="Path 52" d="M209.035,297.559a12.125,12.125,0,0,0-.734-4.227,10.745,10.745,0,0,0-2.086-3.5,9.779,9.779,0,0,0-3.266-2.375,11.031,11.031,0,0,0-8.574,0,9.586,9.586,0,0,0-3.246,2.375,10.977,10.977,0,0,0-2.066,3.5,12.125,12.125,0,0,0-.734,4.227,12.4,12.4,0,0,0,.734,4.289,10.449,10.449,0,0,0,2.086,3.5,9.711,9.711,0,0,0,3.246,2.34,10.32,10.32,0,0,0,4.25.848,10.581,10.581,0,0,0,4.285-.848,9.6,9.6,0,0,0,3.285-2.34,10.449,10.449,0,0,0,2.086-3.5,12.4,12.4,0,0,0,.734-4.289m4.133,0a14.981,14.981,0,0,1-1.1,5.816,13.446,13.446,0,0,1-7.629,7.531,16.225,16.225,0,0,1-11.57,0,13.379,13.379,0,0,1-7.59-7.531,16.268,16.268,0,0,1,0-11.668,13.159,13.159,0,0,1,3.012-4.52,13.7,13.7,0,0,1,4.578-2.918,16.566,16.566,0,0,1,11.57,0,13.674,13.674,0,0,1,4.6,2.918,13.318,13.318,0,0,1,3.031,4.52,15.089,15.089,0,0,1,1.1,5.852" transform="translate(1669.371 -146.275)"/>
      <path id="Path_53" data-name="Path 53" d="M234.121,301.7a8.376,8.376,0,0,0-.4-2.57,6.571,6.571,0,0,0-1.207-2.211,5.77,5.77,0,0,0-1.992-1.527,6.35,6.35,0,0,0-2.754-.562,6.055,6.055,0,0,0-2.629.563,6.149,6.149,0,0,0-2.031,1.527,6.939,6.939,0,0,0-1.3,2.211,7.567,7.567,0,0,0,0,5.223,6.722,6.722,0,0,0,1.3,2.191,6.258,6.258,0,0,0,2.031,1.508,6.055,6.055,0,0,0,2.629.563,6.186,6.186,0,0,0,2.754-.582,6.028,6.028,0,0,0,1.992-1.551,6.59,6.59,0,0,0,1.207-2.207,8.4,8.4,0,0,0,.4-2.574m-12.539,19.211H217.8v-28.7h3.7v2.973h.117a7.092,7.092,0,0,1,2.707-2.512,8.46,8.46,0,0,1,4.148-.984,9.577,9.577,0,0,1,3.871.766,8.911,8.911,0,0,1,3.008,2.129,9.659,9.659,0,0,1,1.945,3.2,11.163,11.163,0,0,1,.68,3.918,11.3,11.3,0,0,1-.68,3.938,9.8,9.8,0,0,1-1.926,3.219A8.909,8.909,0,0,1,232.367,311a9.662,9.662,0,0,1-3.969.785,8.623,8.623,0,0,1-3.848-.887,6.932,6.932,0,0,1-2.848-2.492h-.121" transform="translate(1669.371 -146.275)"/>
      <path id="Path_54" data-name="Path 54" d="M256.848,300.047a7.262,7.262,0,0,0-.383-2.109,4.91,4.91,0,0,0-1-1.707,4.727,4.727,0,0,0-1.648-1.145,5.846,5.846,0,0,0-2.312-.422,6.1,6.1,0,0,0-2.27.422,5.807,5.807,0,0,0-1.848,1.145,6.071,6.071,0,0,0-1.289,1.707,5.465,5.465,0,0,0-.582,2.109Zm3.855,1.527v.645a4.993,4.993,0,0,1-.039.641H245.512a5.627,5.627,0,0,0,.543,2.258,5.99,5.99,0,0,0,1.348,1.836,6.294,6.294,0,0,0,4.3,1.656,6.356,6.356,0,0,0,3.336-.844,6.757,6.757,0,0,0,2.211-2.051l2.656,2.133a9.5,9.5,0,0,1-3.6,2.98,11.541,11.541,0,0,1-8.621.234,9.127,9.127,0,0,1-5.266-5.187,10.65,10.65,0,0,1-.766-4.1,10.963,10.963,0,0,1,.746-4.082,9.285,9.285,0,0,1,2.074-3.191,9.481,9.481,0,0,1,3.141-2.07,10.77,10.77,0,0,1,7.715-.062,7.855,7.855,0,0,1,2.9,1.973,8.833,8.833,0,0,1,1.832,3.113,12.325,12.325,0,0,1,.645,4.117" transform="translate(1669.371 -146.275)"/>
      <path id="Path_55" data-name="Path 55" d="M269.73,292.211c.055.48.094,1.023.121,1.629s.039,1.105.039,1.508h.121a5.636,5.636,0,0,1,.984-1.43,7.276,7.276,0,0,1,1.426-1.164,7.14,7.14,0,0,1,3.781-1.066,7.451,7.451,0,0,1,3.176.625,6.438,6.438,0,0,1,2.211,1.668,6.776,6.776,0,0,1,1.3,2.449,10.478,10.478,0,0,1,.422,3.016v11.816h-3.777v-10.57a12.921,12.921,0,0,0-.184-2.211,5.354,5.354,0,0,0-.66-1.848,3.617,3.617,0,0,0-1.328-1.285,4.3,4.3,0,0,0-2.168-.484,4.574,4.574,0,0,0-3.68,1.707,6.882,6.882,0,0,0-1.426,4.563v10.129h-3.777V296.313c0-.512-.016-1.168-.043-1.969s-.062-1.516-.117-2.133" transform="translate(1669.371 -146.275)"/>
      <path id="Path_56" data-name="Path 56" d="M307.934,311.273l-10.16-12.594H297.7v12.594h-6.453V283.922H297.7v11.129h.117l9.773-11.129h8.266L304.07,296.516l12.477,14.758" transform="translate(1669.371 -146.275)"/>
      <path id="Path_57" data-name="Path 57" d="M333.43,292.887a4.467,4.467,0,0,0-1.148-3.07,3.936,3.936,0,0,0-3.121-1.3A4.208,4.208,0,0,0,326,289.738a4.382,4.382,0,0,0-1.184,3.188,4.262,4.262,0,0,0,1.164,3.07,4.1,4.1,0,0,0,3.105,1.215,4.116,4.116,0,0,0,4.348-4.324m6.449.074a11.162,11.162,0,0,1-.848,4.426,25.857,25.857,0,0,1-2.2,4.039l-6.6,9.852h-7.836l6.8-9.43.078-.113a5.2,5.2,0,0,1-.949.23,6.745,6.745,0,0,1-.98.078,9.371,9.371,0,0,1-3.434-.637,8.711,8.711,0,0,1-2.852-1.816,8.756,8.756,0,0,1-2.7-6.473,9.891,9.891,0,0,1,.848-4.172,9.156,9.156,0,0,1,2.313-3.129,10.31,10.31,0,0,1,3.434-1.953,13.361,13.361,0,0,1,8.367,0,10.1,10.1,0,0,1,3.414,1.953,9.313,9.313,0,0,1,3.141,7.145" transform="translate(1669.371 -146.275)"/>
    </g>
  </g>
</svg>
