<?xml version="1.0" encoding="utf-8"?>
<!-- Generator: Adobe Illustrator 25.2.0, SVG Export Plug-In . SVG Version: 6.00 Build 0)  -->
<svg version="1.1" id="Livello_1" xmlns="http://www.w3.org/2000/svg" xmlns:xlink="http://www.w3.org/1999/xlink" x="0px" y="0px"
	 viewBox="0 0 150 150" style="enable-background:new 0 0 150 150;" xml:space="preserve">
<style type="text/css">
	.st0{fill:#D21317;}
</style>
<g>
	<g>
		<path class="st0" d="M67.3,73.4H37.7c-3.4,0-6.2-2.8-6.2-6.2V37.7c0-3.4,2.8-6.2,6.2-6.2h29.6c3.4,0,6.2,2.8,6.2,6.2v29.6
			C73.5,70.7,70.7,73.4,67.3,73.4z M37.7,37.3c-0.2,0-0.4,0.2-0.4,0.4v29.6c0,0.2,0.2,0.4,0.4,0.4h29.6c0.2,0,0.4-0.2,0.4-0.4V37.7
			c0-0.2-0.2-0.4-0.4-0.4H37.7z"/>
	</g>
	<g>
		<path class="st0" d="M112.3,73.4H82.7c-3.4,0-6.2-2.8-6.2-6.2V37.7c0-3.4,2.8-6.2,6.2-6.2h29.6c3.4,0,6.2,2.8,6.2,6.2v29.6
			C118.5,70.7,115.7,73.4,112.3,73.4z M82.7,37.3c-0.2,0-0.4,0.2-0.4,0.4v29.6c0,0.2,0.2,0.4,0.4,0.4h29.6c0.2,0,0.4-0.2,0.4-0.4
			V37.7c0-0.2-0.2-0.4-0.4-0.4H82.7z"/>
	</g>
	<g>
		<path class="st0" d="M67.3,118.5H37.7c-3.4,0-6.2-2.8-6.2-6.2V82.8c0-3.4,2.8-6.2,6.2-6.2h29.6c3.4,0,6.2,2.8,6.2,6.2v29.6
			C73.5,115.8,70.7,118.5,67.3,118.5z M37.7,82.4c-0.2,0-0.4,0.2-0.4,0.4v29.6c0,0.2,0.2,0.4,0.4,0.4h29.6c0.2,0,0.4-0.2,0.4-0.4
			V82.8c0-0.2-0.2-0.4-0.4-0.4H37.7z"/>
	</g>
	<g>
		<path class="st0" d="M112.3,118.5H82.7c-3.4,0-6.2-2.8-6.2-6.2V82.8c0-3.4,2.8-6.2,6.2-6.2h29.6c3.4,0,6.2,2.8,6.2,6.2v29.6
			C118.5,115.8,115.7,118.5,112.3,118.5z M82.7,82.4c-0.2,0-0.4,0.2-0.4,0.4v29.6c0,0.2,0.2,0.4,0.4,0.4h29.6c0.2,0,0.4-0.2,0.4-0.4
			V82.8c0-0.2-0.2-0.4-0.4-0.4H82.7z"/>
	</g>
</g>
</svg>
