<?xml version="1.0" encoding="utf-8"?>
<!-- Generator: Adobe Illustrator 25.2.0, SVG Export Plug-In . SVG Version: 6.00 Build 0)  -->
<svg version="1.1" id="Livello_1" xmlns="http://www.w3.org/2000/svg" xmlns:xlink="http://www.w3.org/1999/xlink" x="0px" y="0px"
	 viewBox="0 0 150 150" style="enable-background:new 0 0 150 150;" xml:space="preserve">
<style type="text/css">
	.st0{fill:none;}
	.st1{fill:#D0171A;}
	.st2{fill:#D1191B;}
</style>
<g>
	<path class="st0" d="M75,58.3c0.7,0,1.4,0.1,2,0.1L109.1,42H40.9L73,58.4C73.6,58.4,74.3,58.3,75,58.3z"/>
	<path class="st1" d="M109.1,42l10.2-5.2c-0.9-0.4-1.9-0.6-3-0.6H33.7c-1.1,0-2.1,0.2-3,0.6L40.9,42H109.1z"/>
	<path class="st1" d="M120.2,37.2l2.3,4.4l-4.3,2.2c0,0,0,0,0,0.1V93c0,1.1-0.9,1.9-1.9,1.9H98.6c-0.5,2-1.1,4-2,5.8h19.7
		c4.3,0,7.8-3.5,7.8-7.8V43.9C124.1,41,122.5,38.6,120.2,37.2z"/>
	<path class="st1" d="M33.7,94.9c-1.1,0-1.9-0.9-1.9-1.9V43.9c0,0,0,0,0-0.1l-4.3-2.2l2.3-4.4c-2.3,1.3-3.9,3.8-3.9,6.7V93
		c0,4.3,3.5,7.8,7.8,7.8h18.9c-0.8-1.8-1.5-3.8-2-5.8H33.7z"/>
	<path class="st1" d="M72,64.4c1,0.4,2,0.6,3,0.6c1,0,2.1-0.2,3-0.6c-1-0.2-2-0.3-3-0.3C74,64.2,73,64.3,72,64.4z"/>
	<path class="st1" d="M73,58.4L40.9,42h-7.2c-1,0-1.9,0.8-1.9,1.9l32.7,16.8C67.1,59.4,70,58.7,73,58.4z"/>
	<path class="st1" d="M116.3,42h-7.2L77,58.4c3,0.2,5.9,1,8.5,2.2l32.7-16.8C118.2,42.8,117.4,42,116.3,42z"/>
	<path class="st1" d="M31.8,43.8c0-1,0.9-1.9,1.9-1.9h7.2l-10.2-5.2c-0.3,0.1-0.6,0.3-0.9,0.5l-2.3,4.4L31.8,43.8z"/>
	<path class="st1" d="M116.3,42c1,0,1.9,0.8,1.9,1.9l4.3-2.2l-2.3-4.4c-0.3-0.2-0.6-0.4-0.9-0.5L109.1,42H116.3z"/>
	<path class="st2" d="M93.4,82.4c-0.8-2.2-2-4.1-3.6-5.8c-1.6-1.7-3.6-3-5.9-4c-2.3-1-5-1.4-8.1-1.4c-4.2,0-7.8,0.8-10.9,2.5
		c-3,1.7-5.4,4.1-7,7.1c-1.6,3-2.4,6.7-2.4,10.8c0,2.6,0.3,5,0.9,7.2c0.6,2.2,1.5,4.1,2.8,5.8c0.5,0.7,1,1.3,1.6,2
		c3.5,3.5,8.6,5.3,15.2,5.3c1.2,0,2.5-0.1,3.7-0.3c1.2-0.2,2.4-0.4,3.5-0.7c1.1-0.3,2-0.6,2.6-0.9l0.8-0.4l-1.6-5l-0.1-0.3l-0.7,0.3
		l-0.3,0.1c-0.4,0.1-1,0.3-1.8,0.6c-0.8,0.2-1.8,0.5-2.8,0.6c-1,0.2-2.1,0.3-3.1,0.3c-3.1,0-5.7-0.5-7.9-1.6c-1.1-0.6-2.2-1.3-3-2.1
		c-1-1-1.8-2.3-2.4-3.7c-0.8-2-1.3-4.4-1.3-7.2c0-3,0.6-5.7,1.6-7.9c1.1-2.2,2.7-3.9,4.7-5.1c2.1-1.2,4.7-1.8,7.7-1.8
		c2.8,0,5.1,0.5,7.1,1.6c1.9,1.1,3.4,2.5,4.4,4.4c1,1.8,1.5,4,1.5,6.4c0,3.1-0.2,5.5-0.7,6.9c-0.5,1.4-1.2,1.6-1.8,1.6
		c-0.6,0-0.8-0.2-0.9-0.4c-0.3-0.4-0.4-0.8-0.4-1.4V80.7h-5.8v0.4c-0.3-0.1-0.5-0.3-0.8-0.4c-1.3-0.5-2.9-0.7-4.7-0.5
		c-1.6,0.2-3.1,0.8-4.5,1.7c-1.4,0.9-2.5,2.2-3.3,3.8c-0.8,1.6-1.2,3.5-1.2,5.6c0,2.9,0.7,5.4,1.9,7.4c0.2,0.3,0.3,0.6,0.5,0.8
		c1.7,2.2,4,3.3,6.8,3.4c1.9,0.1,3.5-0.3,4.8-1.1c0.6-0.4,1.1-0.7,1.5-1.2c0.2,0.3,0.4,0.5,0.6,0.7c0.7,0.6,1.5,1.1,2.5,1.4
		c0.9,0.3,1.9,0.4,2.8,0.3c1.8,0,3.4-0.5,4.5-1.4c1.1-0.8,1.9-1.8,2.5-3.1c0-0.1,0.1-0.2,0.1-0.3c0.6-1.3,1-2.8,1.2-4.4
		c0.2-1.6,0.3-3.2,0.3-4.8C94.6,86.9,94.2,84.6,93.4,82.4z M77.9,95.9c-0.6,0.9-1.7,1.3-3.3,1.3c-1.1,0-1.9-0.2-2.4-0.7
		c-0.6-0.5-1.1-1.2-1.3-2.1c-0.3-1-0.5-2-0.5-3.1c0-1.5,0.4-2.8,1.2-3.8c0.7-0.9,1.8-1.4,3.1-1.4c1.5,0,2.7,0.4,3.3,1.1
		c0.7,0.7,1,2.1,1,4.1C78.9,93.3,78.6,94.9,77.9,95.9z"/>
	<path class="st1" d="M74.1,59L73,58.4c-3,0.2-5.9,1-8.5,2.2l7,3.6c0.2,0.1,0.4,0.2,0.5,0.2c1-0.2,2-0.3,3-0.3c1,0,2,0.1,3,0.3
		c0.2-0.1,0.4-0.1,0.5-0.2l7-3.6c-2.6-1.2-5.5-1.9-8.5-2.2L75.9,59C75.4,59.3,74.6,59.3,74.1,59z"/>
</g>
</svg>
