<svg id="Capa_1" enable-background="new 0 0 483.236 483.236" height="512" viewBox="0 0 483.236 483.236" width="512" xmlns="http://www.w3.org/2000/svg"><g><g id="icon_14_"><path d="m434.983 159.868h-226.758c-7.556-.001-14.775-3.128-19.943-8.64l-29.225-31.158c-5.177-5.517-12.407-8.643-19.973-8.634h-95.195c-15.102 0-27.345 12.243-27.345 27.345v304.969c0 15.119 12.256 27.375 27.375 27.375h391.011c15.119 0 27.375-12.256 27.375-27.375v-256.536c0-15.094-12.229-27.333-27.322-27.346z" fill="#eab54e"/><path d="m81.995 12.11h332.326v297.555h-332.326z" fill="#dbd8dd"/><path d="m64.551 39.738h322.207v287.442h-322.207z" fill="#eeefee"/><g fill="#dbd8dd"><path d="m100.984 76.289h249.353v13.083h-249.353z"/><path d="m100.984 117.849h249.353v13.083h-249.353z"/><path d="m100.984 159.409h249.353v13.083h-249.353z"/></g><path d="m455.905 203.738h-247.709c-7.537 0-14.74 3.111-19.908 8.598l-29.237 31.04c-5.167 5.487-12.37 8.598-19.908 8.598h-111.797c-15.102.001-27.345 12.243-27.346 27.345 0 .831.038 1.661.113 2.488l14.144 164.424c1.286 14.097 13.107 24.888 27.263 24.888h395.797c14.157 0 25.979-10.794 27.263-24.893l18.54-212.65c1.377-15.039-9.699-28.347-24.738-29.724-.824-.075-1.65-.113-2.477-.114z" fill="#f6c863"/></g></g></svg>