<?xml version="1.0" encoding="utf-8"?>
<!-- Generator: Adobe Illustrator 25.2.0, SVG Export Plug-In . SVG Version: 6.00 Build 0)  -->
<svg version="1.1" id="Livello_1" xmlns="http://www.w3.org/2000/svg" xmlns:xlink="http://www.w3.org/1999/xlink" x="0px" y="0px"
	 viewBox="0 0 150 150" style="enable-background:new 0 0 150 150;" xml:space="preserve">
<style type="text/css">
	.st0{fill:#D1191B;}
	.st1{enable-background:new    ;}
</style>
<g>
	<g>
		<path class="st0" d="M105.4,117.2l-5.4-2l12.7-34.4h-5.1V75h7.5c1.5,0,2.8,0.8,3.5,2c0.7,1.2,0.8,2.6,0.2,3.8L105.4,117.2z"/>
	</g>
	<g>
		<g class="st1">
			<path class="st0" d="M105.3,117.9H30.9V76.6c0-3.1,2.5-5.5,5.5-5.5L72.9,71v-0.7c0-2,1.6-3.7,3.7-3.7h23.2c3.1,0,5.5,2.5,5.5,5.5
				V117.9z M36.7,112.1h62.8V72.5H78.7v4.3l-42,0.1V112.1z"/>
		</g>
		<g>
			<path class="st0" d="M47.5,68.6h-5.8V37.5c0-3,2.4-5.4,5.4-5.4h45.3c3,0,5.4,2.4,5.4,5.4v26.7H92V37.9H47.5V68.6z"/>
		</g>
		<g>
			<path class="st0" d="M85.1,48.7H54.4c-1.6,0-2.9-1.3-2.9-2.9s1.3-2.9,2.9-2.9h30.7c1.6,0,2.9,1.3,2.9,2.9S86.7,48.7,85.1,48.7z"
				/>
		</g>
		<g>
			<path class="st0" d="M85.1,61H54.4c-1.6,0-2.9-1.3-2.9-2.9c0-1.6,1.3-2.9,2.9-2.9h30.7c1.6,0,2.9,1.3,2.9,2.9
				C88,59.7,86.7,61,85.1,61z"/>
		</g>
	</g>
</g>
</svg>
