<?xml version="1.0" encoding="utf-8"?>
<!-- Generator: Adobe Illustrator 25.2.0, SVG Export Plug-In . SVG Version: 6.00 Build 0)  -->
<svg version="1.1" id="Livello_1" xmlns="http://www.w3.org/2000/svg" xmlns:xlink="http://www.w3.org/1999/xlink" x="0px" y="0px"
	 viewBox="0 0 150 150" style="enable-background:new 0 0 150 150;" xml:space="preserve">
<style type="text/css">
	.st0{fill:#D0171A;}
</style>
<g>
	<path class="st0" d="M111.6,32H38.4c-3.5,0-6.4,2.9-6.4,6.4v73.3c0,3.5,2.9,6.4,6.4,6.4h73.3c3.5,0,6.4-2.9,6.4-6.4V38.4
		C118,34.8,115.2,32,111.6,32z M57.5,87.7c0,0.9-0.7,1.6-1.6,1.6h-9.6c-0.9,0-1.6-0.7-1.6-1.6v-9.6c0-0.9,0.7-1.6,1.6-1.6h9.6
		c0.9,0,1.6,0.7,1.6,1.6V87.7z M57.5,71.8c0,0.9-0.7,1.6-1.6,1.6h-9.6c-0.9,0-1.6-0.7-1.6-1.6v-9.6c0-0.9,0.7-1.6,1.6-1.6h9.6
		c0.9,0,1.6,0.7,1.6,1.6V71.8z M57.5,55.9c0,0.9-0.7,1.6-1.6,1.6h-9.6c-0.9,0-1.6-0.7-1.6-1.6v-9.6c0-0.9,0.7-1.6,1.6-1.6h9.6
		c0.9,0,1.6,0.7,1.6,1.6V55.9z M73.4,103.7c0,0.9-0.7,1.6-1.6,1.6h-9.6c-0.9,0-1.6-0.7-1.6-1.6v-9.6c0-0.9,0.7-1.6,1.6-1.6h9.6
		c0.9,0,1.6,0.7,1.6,1.6V103.7z M73.4,71.8c0,0.9-0.7,1.6-1.6,1.6h-9.6c-0.9,0-1.6-0.7-1.6-1.6v-9.6c0-0.9,0.7-1.6,1.6-1.6h9.6
		c0.9,0,1.6,0.7,1.6,1.6V71.8z M73.4,55.9c0,0.9-0.7,1.6-1.6,1.6h-9.6c-0.9,0-1.6-0.7-1.6-1.6v-9.6c0-0.9,0.7-1.6,1.6-1.6h9.6
		c0.9,0,1.6,0.7,1.6,1.6V55.9z M89.3,103.7c0,0.9-0.7,1.6-1.6,1.6h-9.6c-0.9,0-1.6-0.7-1.6-1.6v-9.6c0-0.9,0.7-1.6,1.6-1.6h9.6
		c0.9,0,1.6,0.7,1.6,1.6V103.7z M89.3,87.7c0,0.9-0.7,1.6-1.6,1.6h-9.6c-0.9,0-1.6-0.7-1.6-1.6v-9.6c0-0.9,0.7-1.6,1.6-1.6h9.6
		c0.9,0,1.6,0.7,1.6,1.6V87.7z M89.3,55.9c0,0.9-0.7,1.6-1.6,1.6h-9.6c-0.9,0-1.6-0.7-1.6-1.6v-9.6c0-0.9,0.7-1.6,1.6-1.6h9.6
		c0.9,0,1.6,0.7,1.6,1.6V55.9z M105.3,103.7c0,0.9-0.7,1.6-1.6,1.6h-9.6c-0.9,0-1.6-0.7-1.6-1.6v-9.6c0-0.9,0.7-1.6,1.6-1.6h9.6
		c0.9,0,1.6,0.7,1.6,1.6V103.7z M105.3,87.7c0,0.9-0.7,1.6-1.6,1.6h-9.6c-0.9,0-1.6-0.7-1.6-1.6v-9.6c0-0.9,0.7-1.6,1.6-1.6h9.6
		c0.9,0,1.6,0.7,1.6,1.6V87.7z M105.3,71.8c0,0.9-0.7,1.6-1.6,1.6h-9.6c-0.9,0-1.6-0.7-1.6-1.6v-9.6c0-0.9,0.7-1.6,1.6-1.6h9.6
		c0.9,0,1.6,0.7,1.6,1.6V71.8z"/>
</g>
</svg>
