<?xml version="1.0" encoding="utf-8"?>
<!-- Generator: Adobe Illustrator 25.2.0, SVG Export Plug-In . SVG Version: 6.00 Build 0)  -->
<svg version="1.1" id="Livello_1" xmlns="http://www.w3.org/2000/svg" xmlns:xlink="http://www.w3.org/1999/xlink" x="0px" y="0px"
	 viewBox="0 0 150 150" style="enable-background:new 0 0 150 150;" xml:space="preserve">
<style type="text/css">
	.st0{fill:none;}
	.st1{fill:#D0171A;}
</style>
<g>
	<path class="st0" d="M59.6,106.6c-3-3.1-5.6-6.3-7.8-9.5c-4.5-0.7-8.2-1.5-11-2.3c4.7,5.9,11.2,10.3,18.8,12.4
		C59.6,107,59.6,106.8,59.6,106.6z"/>
	<path class="st0" d="M65.3,39.9c-2.4,2.2-5.8,5.6-8.9,10c2.7,0.3,5.7,0.6,8.9,0.7V39.9z"/>
	<path class="st0" d="M43.7,75.6c-4.6-0.6-8.3-1.2-10.6-1.6c0.2,5.1,1.4,10,3.5,14.3c0.8,0.3,5,1.9,11.7,3.2
		C45.7,86.2,44.1,80.9,43.7,75.6z"/>
	<path class="st0" d="M79.2,50c-3.1-4.4-6.5-7.9-9-10.1v10.7C73.1,50.6,76.1,50.4,79.2,50z"/>
	<path class="st0" d="M84.7,49.2c2.9-0.5,5.9-1.2,9-2c-5-4.9-11.4-8.3-18.5-9.6C78,40.4,81.6,44.4,84.7,49.2z"/>
	<path class="st0" d="M59.8,38.2c-6.1,1.6-11.6,4.8-16,9.1c1.8,0.5,4.2,1.1,7.1,1.7C53.7,44.7,56.9,41,59.8,38.2z"/>
	<path class="st0" d="M48.3,53.6c-3.7-0.8-6.4-1.6-8.1-2.2c-3.7,5-6.2,11-6.9,17.5c2,0.4,5.6,1,10.3,1.6
		C44,64.2,45.8,58.6,48.3,53.6z"/>
	<path class="st0" d="M65.3,55.6c-4.4-0.1-8.3-0.5-11.8-1.1c-2.6,4.8-4.6,10.3-4.9,16.5c4.9,0.5,10.6,0.9,16.7,1V55.6z"/>
	<path class="st1" d="M68.5,111.1c0.1,0,0.2,0,0.3,0.1c0-0.1,0-0.2,0-0.2C68.7,111,68.6,111,68.5,111.1z"/>
	<path class="st1" d="M68.8,32.1c-22.4,0-40.6,18.2-40.6,40.6c0,22.4,18.2,40.6,40.5,40.6c0-0.7,0.1-1.5,0.1-2.2
		c-0.1,0-0.2,0-0.3-0.1c-0.8,0.5-1.8,1-2.7,1.2c-1,0.2-2,0.1-2.9-0.2c-1.1-0.5-2-1.4-2.7-2.4c-0.3-0.5-0.6-1.1-0.6-1.7
		c0-0.2,0-0.5,0-0.7c-7.5-2-14.1-6.4-18.8-12.4c2.8,0.8,6.5,1.6,11,2.3c2.2,3.2,4.8,6.4,7.8,9.5c0.2-1.9,1-3.6,1.8-5.4
		c-1-1.1-1.9-2.2-2.8-3.3c1.3,0.1,2.7,0.2,4.1,0.3c0.4-1,0.8-2,1.2-3c0.2-0.6,0.5-1.2,0.7-1.8c0,0,0.1-0.1,0.1-0.2
		c-3.6-0.1-7-0.4-10-0.8c-3.3-5.4-5.3-10.8-5.9-16.3c2.9,0.3,6.1,0.6,9.5,0.7c0.4-0.5,1-0.9,1.8-1.2c1.8-0.7,3.7-0.4,5.3,0.7
		c0.1,0,0.1,0.1,0.2,0.1l1,0.7l3,2.2c0,0,0.1-0.9,0.5-2.2c0.1-0.3,0.2-0.5,0.3-0.8c0.6-1.4,1.6-3,3.3-4.3c-1.1,0-2.2,0-3.3,0.1V55.7
		c3.7-0.1,7.7-0.4,11.9-1c1.1,2,2.1,4.1,2.9,6.4c0.6-1,1.6-1.8,2.7-2.1c0.6-0.2,1.1-0.2,1.7-0.2c-0.6-1.7-1.4-3.3-2.1-4.9
		c3.2-0.6,6.6-1.5,10-2.5c3.5,4.7,6,10.3,6.8,16.5c-2.4,0.7-4.8,1.3-7.2,1.8l0.9,3.2l1.8-1.1c0.3,0,0.6,0,0.9,0l3.9,0.3l2.6,0.2
		l2.4,0.2C109.1,50.1,91,32.1,68.8,32.1z M59.8,38.2c-2.9,2.8-6.1,6.5-8.9,10.8c-3-0.6-5.4-1.2-7.1-1.7C48.2,43,53.7,39.8,59.8,38.2
		z M40.2,51.4c1.7,0.6,4.4,1.4,8.1,2.2c-2.5,4.9-4.3,10.6-4.7,16.9c-4.7-0.6-8.4-1.2-10.3-1.6C34,62.4,36.5,56.4,40.2,51.4z
		 M36.7,88.3c-2.1-4.4-3.4-9.2-3.5-14.3c2.3,0.4,5.9,1,10.6,1.6c0.4,5.3,2,10.6,4.7,15.8C41.7,90.1,37.5,88.6,36.7,88.3z M65.3,72.1
		c-6.1-0.1-11.8-0.5-16.7-1c0.3-6.1,2.2-11.7,4.9-16.5c3.5,0.5,7.4,0.9,11.8,1.1V72.1z M65.3,50.6c-3.2-0.1-6.2-0.4-8.9-0.7
		c3.1-4.4,6.5-7.9,8.9-10V50.6z M70.3,50.6V39.9c2.5,2.3,5.9,5.7,9,10.1C76.1,50.4,73.1,50.6,70.3,50.6z M84.7,49.2
		c-3.1-4.9-6.6-8.8-9.5-11.6c7.1,1.3,13.5,4.7,18.5,9.6C90.6,48.1,87.6,48.7,84.7,49.2z"/>
	<path class="st1" d="M115.3,85.7l-7.1-2.8l-2.9-1.1l-2,0.3l-5.5,0.8l4-3.3l2.1,0.2l5,0.4l3.8,0.3c1.4,0.1,2.6-0.9,2.7-2.3
		c0.1-1.4-0.9-2.6-2.3-2.7l-3.6-0.3l-5-0.4l-4.3-0.3l-4,3.3c0-0.3-0.1-0.6-0.2-0.9l-0.5-1.8L94,70.1l-2.1-7
		c-0.2-0.8-0.9-1.4-1.6-1.7c-0.5-0.2-1-0.2-1.5,0c-1.3,0.4-2.1,1.8-1.7,3.1l1.9,6.4l1.4,4.8l0.7,2.4c0,0.1,0,0.2,0,0.2L91,78.6
		c-0.5-1-1.2-1.9-2-2.6c-0.6-0.6-1.4-1.1-2.1-1.5c-1.4-0.7-2.9-1.1-4.5-1.1c-3.1,0-5.9,1.5-7.7,3.8c-1.2,1.6-2,3.7-2,5.9
		c0,1.9,0.5,3.6,1.5,5.1l-3.9-3.5l-5-4.5l-1.5-1.3c-1-0.9-2.6-0.8-3.5,0.2c-0.9,1-0.8,2.6,0.2,3.5l4.8,4.3l5,4.5l0.8,0.7
		c0.2,0.2,0.5,0.4,0.7,0.5l-1.5,0.7l-0.2,0.1l-3,1.4l-1.4,3.7l-0.4,1.1l-1.6,4.2l-1.2,3c-0.1,0.4-0.2,0.7-0.1,1.1
		c0.1,0.9,0.7,1.8,1.6,2.1c0.3,0.1,0.6,0.2,0.9,0.2c0.5,0,1-0.2,1.4-0.4c0.4-0.3,0.7-0.7,0.9-1.2l0-0.1l3.1-8l0.8-2l0.1,0l5.7-2.6
		l-1.7,2.4l-3.2,4.6l-0.1,1l-0.4,4.5l-0.3,2.6l-0.2,2.4l0,0.2c-0.1,1.4,0.9,2.6,2.2,2.7c0.1,0,0.2,0,0.2,0c1.3,0,2.4-1,2.5-2.3
		l0.1-1.2l0.5-5.2l0.2-1.6l0.1-1.4l0.6-0.9v1.5v2.2v1.5l1.6,3.3l1.9,3.8c0.4,0.9,1.3,1.4,2.2,1.4c0.3,0,0.5-0.1,0.8-0.1
		c0.1,0,0.2-0.1,0.3-0.1c0.7-0.4,1.2-1.1,1.3-1.8c0.1-0.5,0-1-0.2-1.5l-1.6-3.1l-1.2-2.4c0.8,0.7,1.6,1.3,2.5,1.8
		c1.9,1.1,4.1,1.7,6.4,1.7c7.2,0,13.1-5.9,13.1-13.1c0-1.7-0.3-3.4-1-4.9c-0.2-0.5-0.4-0.9-0.6-1.3l1.2,0.4l0.7,0.3l4.6,4.9
		c0.5,0.5,1.1,0.8,1.8,0.8c0.6,0,1.2-0.2,1.7-0.7c1-0.9,1-2.5,0.1-3.5l-5.4-5.7l-1.3-0.5l-3.3-1.2l1.6-0.2l2,0.8l6.9,2.7
		c0.1,0,0.2,0.1,0.3,0.1c0.2,0.1,0.4,0.1,0.6,0.1c0.5,0,1-0.2,1.5-0.5c0.4-0.3,0.7-0.6,0.9-1.1C117.2,87.6,116.5,86.2,115.3,85.7z
		 M82.6,87.6c-0.1,0-0.1,0-0.2,0c-2.6,0-4.7-2.1-4.7-4.7s2.1-4.7,4.7-4.7c1.5,0,2.8,0.7,3.7,1.8c0.6,0.8,1,1.8,1,2.9
		c0,2.2-1.5,4-3.6,4.6c-0.2,0-0.3,0.1-0.5,0.1L82.6,87.6z M99.5,99.3c-0.3,4.2-3.8,7.5-8.1,7.5c-0.1,0-0.3,0-0.4,0
		c-2.2-0.1-4.1-1-5.5-2.5c-1.4-1.5-2.2-3.4-2.2-5.6c0-0.3,0-0.7,0.1-1c0-0.1,0-0.2,0-0.3c0.4-2.2,1.6-4.2,3.4-5.4
		c0.2-0.1,0.3-0.2,0.5-0.3c1.2-0.7,2.6-1.1,4.1-1.1c0.3,0,0.7,0,1,0.1c2.1,0.3,4,1.4,5.3,2.9c0.2,0.2,0.4,0.5,0.5,0.7
		c0.8,1.3,1.3,2.8,1.3,4.4C99.6,98.8,99.6,99,99.5,99.3z"/>
</g>
</svg>
