<svg height="511pt" viewBox="0 0 511 511.66051" width="511pt" xmlns="http://www.w3.org/2000/svg"><path d="m504.332031 256.003906c0 136.96875-111.035156 248-248 248-136.96875 0-248-111.03125-248-248 0-136.964844 111.03125-248 248-248 136.964844 0 248 111.035156 248 248zm0 0" fill="#9fa8da"/><path d="m350.738281 318.714844c0 17.675781-14.328125 32-32 32s-32-14.324219-32-32c0-17.671875 14.328125-32 32-32s32 14.328125 32 32zm0 0" fill="#ffe082"/><path d="m452.945312 380.925781c0 39.761719-32.234374 72-72 72-39.761718 0-72-32.238281-72-72 0-39.765625 32.238282-72 72-72 39.765626 0 72 32.234375 72 72zm0 0" fill="#ff8a65"/><g fill="#fff"><path d="m248.332031 12.003906h16v292h-16zm0 0"/><path d="m54.410156 104.003906h403.839844v16h-403.839844zm0 0"/><path d="m12.976562 200.003906h251.355469v16h-251.355469zm0 0"/><path d="m12.976562 296.003906h171.355469v16h-171.355469zm0 0"/><path d="m54.410156 392.003906h129.921875v16h-129.921875zm0 0"/><path d="m175.835938 468.804688c-39.761719-47.449219-63.503907-127-63.503907-212.800782 0-141.160156 64.597657-255.99999975 144-255.99999975 79.398438 0 144 114.83984375 144 255.99999975 0 7.003906-.160156 13.9375-.472656 20.800782l-16-.71875c.3125-6.621094.472656-13.3125.472656-20.082032 0-132.335937-57.425781-240-128-240-70.578125 0-128 107.664063-128 240 0 82.160156 22.34375 157.863282 59.765625 202.511719zm0 0"/></g><path d="m500.675781 342.261719 11.308594-11.3125-55.652344-55.671875-46.007812 19.710937 37.519531-37.519531 63.878906-29.800781-6.769531-14.503907-66.398437 31-41.425782 41.367188 24.328125-68.933594 82.402344-49.425781-8.234375-13.71875-3.886719 2.328125c-47.597656-111.960938-167.441406-174.929688-286.644531-150.621094-119.203125 24.3125-204.8125 129.1875-204.761719 250.84375.460938 102.4375 61.59375 194.859375 155.679688 235.367188l-2.539063 4.234375 13.714844 8.230469 49.429688-82.398438 68.9375-24.328125-41.367188 41.367187-30.863281 66.128907 14.492187 6.765625 29.683594-63.566406 37.511719-37.519532-19.722657 46.007813 55.378907 55.367187 11.308593-11.3125-47.710937-47.710937 15.289063-35.671875c15.621093 31.050781 49.507812 48.457031 83.847656 43.078125 34.339844-5.378907 61.273437-32.320313 66.652344-66.660157 5.378906-34.339843-12.035157-68.222656-43.085938-83.84375l35.699219-15.292968zm-294.816406 66.015625-41.527344 69.261718c-100.285156-41.605468-160.128906-145.371093-145.917969-253.007812 14.207032-107.636719 98.929688-192.320312 206.574219-206.480469 107.640625-14.160156 211.378907 45.734375 252.941407 146.035157l-69.597657 41.75-26.839843 76.039062-16.640626-54.09375-77.175781-29.679688-5.746093 14.925782 69.914062 26.890625 19.007812 61.757812c-4.996093.628907-9.917968 1.730469-14.707031 3.289063-6.257812-17.5-23.746093-28.382813-42.207031-26.269532-18.464844 2.113282-33.042969 16.664063-35.1875 35.125-2.144531 18.460938 8.707031 35.964844 26.195312 42.257813-1.554687 4.789063-2.648437 9.714844-3.269531 14.710937l-61.722656-18.984374-26.886719-69.921876-14.929687 5.753907 29.679687 77.167969 54.113282 16.640624zm105.535156-66.800782c-10.867187-3.421874-17.828125-14.007812-16.667969-25.339843 1.164063-11.332031 10.132813-20.285157 21.464844-21.429688 11.335938-1.144531 21.910156 5.835938 25.316406 16.707031-12.617187 7.050782-23.039062 17.457032-30.113281 30.0625zm133.550781 39.449219c-.011718 30.5-21.566406 56.746094-51.480468 62.691407-29.917969 5.945312-59.867188-10.070313-71.539063-38.25-11.671875-28.179688-1.816406-60.679688 23.542969-77.628907s59.160156-13.628906 80.734375 7.929688c12.042969 11.976562 18.792969 28.273437 18.742187 45.257812zm0 0"/></svg>