<svg xmlns="http://www.w3.org/2000/svg" xmlns:xlink="http://www.w3.org/1999/xlink" width="3313" height="1070" viewBox="0 0 3313 1070">
  <defs>
    <filter id="Rectangle_25" x="2314" y="603.2" width="212" height="217" filterUnits="userSpaceOnUse">
      <feOffset input="SourceAlpha"/>
      <feGaussianBlur stdDeviation="8" result="blur"/>
      <feFlood flood-opacity="0.749"/>
      <feComposite operator="in" in2="blur"/>
      <feComposite in="SourceGraphic"/>
    </filter>
    <filter id="Rectangle_26" x="2749.787" y="298.15" width="167" height="474" filterUnits="userSpaceOnUse">
      <feOffset input="SourceAlpha"/>
      <feGaussianBlur stdDeviation="8" result="blur-2"/>
      <feFlood flood-opacity="0.749"/>
      <feComposite operator="in" in2="blur-2"/>
      <feComposite in="SourceGraphic"/>
    </filter>
    <filter id="Rectangle_27" x="1362.094" y="297.999" width="167" height="474" filterUnits="userSpaceOnUse">
      <feOffset input="SourceAlpha"/>
      <feGaussianBlur stdDeviation="8" result="blur-3"/>
      <feFlood flood-opacity="0.749"/>
      <feComposite operator="in" in2="blur-3"/>
      <feComposite in="SourceGraphic"/>
    </filter>
    <filter id="Rectangle_27-2" x="1506.094" y="297.999" width="167" height="474" filterUnits="userSpaceOnUse">
      <feOffset input="SourceAlpha"/>
      <feGaussianBlur stdDeviation="8" result="blur-4"/>
      <feFlood flood-opacity="0.749"/>
      <feComposite operator="in" in2="blur-4"/>
      <feComposite in="SourceGraphic"/>
    </filter>
    <filter id="Rectangle_27-3" x="1648.094" y="297.999" width="167" height="474" filterUnits="userSpaceOnUse">
      <feOffset input="SourceAlpha"/>
      <feGaussianBlur stdDeviation="8" result="blur-5"/>
      <feFlood flood-opacity="0.749"/>
      <feComposite operator="in" in2="blur-5"/>
      <feComposite in="SourceGraphic"/>
    </filter>
    <filter id="Rectangle_27-4" x="1790.094" y="297.999" width="167" height="474" filterUnits="userSpaceOnUse">
      <feOffset input="SourceAlpha"/>
      <feGaussianBlur stdDeviation="8" result="blur-6"/>
      <feFlood flood-opacity="0.749"/>
      <feComposite operator="in" in2="blur-6"/>
      <feComposite in="SourceGraphic"/>
    </filter>
    <filter id="Rectangle_27-5" x="1929.094" y="297.999" width="167" height="474" filterUnits="userSpaceOnUse">
      <feOffset input="SourceAlpha"/>
      <feGaussianBlur stdDeviation="8" result="blur-7"/>
      <feFlood flood-opacity="0.749"/>
      <feComposite operator="in" in2="blur-7"/>
      <feComposite in="SourceGraphic"/>
    </filter>
    <filter id="Rectangle_24" x="765" y="419" width="464" height="232" filterUnits="userSpaceOnUse">
      <feOffset input="SourceAlpha"/>
      <feGaussianBlur stdDeviation="8" result="blur-8"/>
      <feFlood flood-opacity="0.749"/>
      <feComposite operator="in" in2="blur-8"/>
      <feComposite in="SourceGraphic"/>
    </filter>
    <filter id="Rectangle_31" x="181" y="170" width="470" height="164" filterUnits="userSpaceOnUse">
      <feOffset input="SourceAlpha"/>
      <feGaussianBlur stdDeviation="8" result="blur-9"/>
      <feFlood flood-opacity="0.749"/>
      <feComposite operator="in" in2="blur-9"/>
      <feComposite in="SourceGraphic"/>
    </filter>
    <filter id="Rectangle_30" x="181" y="352" width="470" height="164" filterUnits="userSpaceOnUse">
      <feOffset input="SourceAlpha"/>
      <feGaussianBlur stdDeviation="8" result="blur-10"/>
      <feFlood flood-opacity="0.749"/>
      <feComposite operator="in" in2="blur-10"/>
      <feComposite in="SourceGraphic"/>
    </filter>
    <filter id="Rectangle_29" x="181" y="533" width="470" height="164" filterUnits="userSpaceOnUse">
      <feOffset input="SourceAlpha"/>
      <feGaussianBlur stdDeviation="8" result="blur-11"/>
      <feFlood flood-opacity="0.749"/>
      <feComposite operator="in" in2="blur-11"/>
      <feComposite in="SourceGraphic"/>
    </filter>
    <filter id="Rectangle_28" x="181" y="715" width="470" height="164" filterUnits="userSpaceOnUse">
      <feOffset input="SourceAlpha"/>
      <feGaussianBlur stdDeviation="8" result="blur-12"/>
      <feFlood flood-opacity="0.749"/>
      <feComposite operator="in" in2="blur-12"/>
      <feComposite in="SourceGraphic"/>
    </filter>
    <clipPath id="clip-Web_1920_19">
      <rect width="3313" height="1070"/>
    </clipPath>
  </defs>
  <g id="Web_1920_19" data-name="Web 1920 – 19" clip-path="url(#clip-Web_1920_19)">
    <rect width="3313" height="1070" fill="#fff"/>
    <g id="Group_263" data-name="Group 263" transform="translate(-6)">
      <g id="Group_7" data-name="Group 7" transform="translate(1535.794 329.099)">
        <path id="Path_58" data-name="Path 58" d="M0,411.9V-.1a6.957,6.957,0,0,1,7-7H112.2a6.957,6.957,0,0,1,7,7v412a6.957,6.957,0,0,1-7,7H7a6.956,6.956,0,0,1-7-7" fill="#fff"/>
      </g>
      <g id="Group_8" data-name="Group 8" transform="translate(1677.594 329.099)">
        <path id="Path_59" data-name="Path 59" d="M0,411.9V-.1a6.957,6.957,0,0,1,7-7H112.3a6.957,6.957,0,0,1,7,7v412a6.957,6.957,0,0,1-7,7H7.1a6.979,6.979,0,0,1-7.1-7" fill="#fff"/>
      </g>
      <g id="Group_9" data-name="Group 9" transform="translate(1819.494 329.099)">
        <path id="Path_60" data-name="Path 60" d="M0,411.9V-.1a6.957,6.957,0,0,1,7-7H112.2a6.956,6.956,0,0,1,7,7v412a6.956,6.956,0,0,1-7,7H7a6.9,6.9,0,0,1-7-7" fill="#fff"/>
      </g>
      <g id="Group_10" data-name="Group 10" transform="translate(1958.394 329.099)">
        <path id="Path_61" data-name="Path 61" d="M0,411.9V-.1a6.958,6.958,0,0,1,7-7H112.2a6.956,6.956,0,0,1,7,7v412a6.956,6.956,0,0,1-7,7H7a6.9,6.9,0,0,1-7-7" fill="#fff"/>
      </g>
      <g id="Group_11" data-name="Group 11" transform="translate(2026.494 791)">
        <path id="Path_62" data-name="Path 62" d="M0,23.6V-26.3H-6V23.6H-18.4L-3,49.9,12.3,23.6Z"/>
      </g>
      <g id="Group_12" data-name="Group 12" transform="translate(1460.194 840.9)">
        <path id="Path_63" data-name="Path 63" d="M0-76.2H-6v49.9H-18.3L-3,0,12.4-26.3H0Z"/>
      </g>
      <g id="Group_13" data-name="Group 13" transform="translate(1600.894 840.9)">
        <path id="Path_64" data-name="Path 64" d="M0-76.2H-6v49.9H-18.3L-3,0,12.3-26.3H0Z"/>
      </g>
      <g id="Group_14" data-name="Group 14" transform="translate(1744.194 840.9)">
        <path id="Path_65" data-name="Path 65" d="M0-76.2H-6v49.9H-18.3L-3,0,12.4-26.3H0Z"/>
      </g>
      <g id="Group_15" data-name="Group 15" transform="translate(1887.494 840.9)">
        <path id="Path_66" data-name="Path 66" d="M0-76.2H-6v49.9H-18.3L-2.9,0,12.4-26.3H0Z"/>
      </g>
      <g transform="matrix(1, 0, 0, 1, 6, 0)" filter="url(#Rectangle_25)">
        <rect id="Rectangle_25-2" data-name="Rectangle 25" width="164" height="169" rx="8" transform="translate(2338 627.2)" fill="#fff"/>
      </g>
      <g id="Group_16" data-name="Group 16" transform="translate(2347.7 795.999)">
        <path id="Path_67" data-name="Path 67" d="M0-168.4H156.8a3.691,3.691,0,0,1,3.7,3.7v161A3.691,3.691,0,0,1,156.8,0H0A3.691,3.691,0,0,1-3.7-3.7V-164.8A3.608,3.608,0,0,1,0-168.4" fill="#fff"/>
      </g>
      <g transform="matrix(1, 0, 0, 1, 6, 0)" filter="url(#Rectangle_26)">
        <rect id="Rectangle_26-2" data-name="Rectangle 26" width="119" height="426" rx="8" transform="translate(2773.79 322.15)" fill="#fff"/>
      </g>
      <g id="Group_17" data-name="Group 17" transform="translate(2779.687 328.85)">
        <path id="Path_68" data-name="Path 68" d="M0,412V0A6.957,6.957,0,0,1,7-7H112.2a6.956,6.956,0,0,1,7,7V412a6.957,6.957,0,0,1-7,7H7a6.958,6.958,0,0,1-7-7" fill="#fff"/>
      </g>
      <g transform="matrix(1, 0, 0, 1, 6, 0)" filter="url(#Rectangle_27)">
        <rect id="Rectangle_27-6" data-name="Rectangle 27" width="119" height="426" rx="8" transform="translate(1386.09 322)" fill="#fff"/>
      </g>
      <g transform="matrix(1, 0, 0, 1, 6, 0)" filter="url(#Rectangle_27-2)">
        <rect id="Rectangle_27-7" data-name="Rectangle 27" width="119" height="426" rx="8" transform="translate(1530.09 322)" fill="#fff"/>
      </g>
      <g transform="matrix(1, 0, 0, 1, 6, 0)" filter="url(#Rectangle_27-3)">
        <rect id="Rectangle_27-8" data-name="Rectangle 27" width="119" height="426" rx="8" transform="translate(1672.09 322)" fill="#fff"/>
      </g>
      <g transform="matrix(1, 0, 0, 1, 6, 0)" filter="url(#Rectangle_27-4)">
        <rect id="Rectangle_27-9" data-name="Rectangle 27" width="119" height="426" rx="8" transform="translate(1814.09 322)" fill="#fff"/>
      </g>
      <g transform="matrix(1, 0, 0, 1, 6, 0)" filter="url(#Rectangle_27-5)">
        <rect id="Rectangle_27-10" data-name="Rectangle 27" width="119" height="426" rx="8" transform="translate(1953.09 322)" fill="#fff"/>
      </g>
      <g id="Group_18" data-name="Group 18" transform="translate(1392.094 329.099)">
        <path id="Path_69" data-name="Path 69" d="M0,411.9V-.1a6.957,6.957,0,0,1,7-7H112.2a6.957,6.957,0,0,1,7,7v412a6.957,6.957,0,0,1-7,7H7a6.956,6.956,0,0,1-7-7" fill="#fff"/>
      </g>
      <g id="Group_214" data-name="Group 214" transform="translate(2.094 25.399)">
        <g id="Group_19" data-name="Group 19" transform="translate(1463.5 631.599)">
          <path id="Path_70" data-name="Path 70" d="M0,22.6H-33.4V.1h5.8V15.5h8V1.2h5.8V15.5h8V0H0Z"/>
        </g>
        <g id="Group_20" data-name="Group 20" transform="translate(1449 610)">
          <path id="Path_71" data-name="Path 71" d="M0,9.3H14.5v6.9h-25V9.6h4.4V9.3A7.44,7.44,0,0,1-9.6,6.5a8.1,8.1,0,0,1-1.3-4.7A8.215,8.215,0,0,1-8.4-4.5,9.665,9.665,0,0,1-1.5-6.9H14.4V0H-.3A5.224,5.224,0,0,0-3.9,1.2,4.156,4.156,0,0,0-5.2,4.5,4.523,4.523,0,0,0-3.9,7.9,6.157,6.157,0,0,0,0,9.3"/>
        </g>
        <g id="Group_21" data-name="Group 21" transform="translate(1463.5 582.5)">
          <path id="Path_72" data-name="Path 72" d="M.1,15.2H-25V8.5h4.4V8.2a6.37,6.37,0,0,1-3.5-2.3,6.071,6.071,0,0,1-1.2-3.7A14.979,14.979,0,0,1-25.1,0h6.2a10.627,10.627,0,0,0-.3,1.4A9.151,9.151,0,0,0-19.3,3a5.56,5.56,0,0,0,1.4,3.8,5.046,5.046,0,0,0,3.8,1.5H.1Z"/>
        </g>
        <g id="Group_22" data-name="Group 22" transform="translate(36 90.7)">
          <path id="Path_73" data-name="Path 73" d="M1427.5,488.2h-25v-6.9h25Zm-28.3-3.5a3.541,3.541,0,0,1-1,2.6,3.391,3.391,0,0,1-5,0,3.541,3.541,0,0,1-1-2.6,3.942,3.942,0,0,1,1-2.7,3.391,3.391,0,0,1,5,0,3.942,3.942,0,0,1,1,2.7"/>
        </g>
        <g id="Group_23" data-name="Group 23" transform="translate(1464 556.202)">
          <path id="Path_74" data-name="Path 74" d="M0-1.1A12.424,12.424,0,0,1-1.6,5.5,10.421,10.421,0,0,1-6.2,9.7a14.381,14.381,0,0,1-6.7,1.5,14.8,14.8,0,0,1-6.8-1.5,10.205,10.205,0,0,1-4.5-4.2,12.424,12.424,0,0,1-1.6-6.6,12.607,12.607,0,0,1,1.2-5.7,10.441,10.441,0,0,1,3.3-3.9,9.342,9.342,0,0,1,5.1-1.6v6.6a5.079,5.079,0,0,0-3,1.5,4.5,4.5,0,0,0-1.1,3.1,4.649,4.649,0,0,0,1.9,3.9,8.783,8.783,0,0,0,5.5,1.5A9.3,9.3,0,0,0-7.3,2.8a4.743,4.743,0,0,0,2-3.9,4.43,4.43,0,0,0-1.1-3A5.066,5.066,0,0,0-9.5-5.6v-6.6a9.914,9.914,0,0,1,5.1,1.6A8.95,8.95,0,0,1-1-6.8,12.641,12.641,0,0,1,0-1.1"/>
        </g>
        <g id="Group_24" data-name="Group 24" transform="translate(1449 523.1)">
          <path id="Path_75" data-name="Path 75" d="M0,9.4H14.5v6.9H-18.9V9.5H-6.1V9.2A7.9,7.9,0,0,1-9.6,6.5a8.663,8.663,0,0,1-1.3-4.7A8.215,8.215,0,0,1-8.4-4.5,9.66,9.66,0,0,1-1.5-6.9H14.4V0H-.3A5.219,5.219,0,0,0-3.9,1.2,4.156,4.156,0,0,0-5.2,4.5,4.752,4.752,0,0,0-3.9,8,5.637,5.637,0,0,0,0,9.4"/>
        </g>
        <g id="Group_25" data-name="Group 25" transform="translate(1447 481.9)">
          <path id="Path_76" data-name="Path 76" d="M0,11.1V6.2A5.76,5.76,0,0,0-1.6,1.7,5.677,5.677,0,0,0-5.6.2a5.354,5.354,0,0,0-4,1.5,6.211,6.211,0,0,0-1.5,4.6v4.8Zm16.5,7H-16.9V4.9a14.5,14.5,0,0,1,1.4-6.5,9.88,9.88,0,0,1,4-4.1A12.538,12.538,0,0,1-5.6-7.1,12.538,12.538,0,0,1,.3-5.7a10.518,10.518,0,0,1,4,4.1A13.423,13.423,0,0,1,5.7,5v5.9H16.5Z"/>
        </g>
        <g id="Group_26" data-name="Group 26" transform="translate(36 -126.3)">
          <rect id="Rectangle_10" data-name="Rectangle 10" width="33.4" height="6.9" transform="translate(1394.1 589.7)"/>
        </g>
        <g id="Group_27" data-name="Group 27" transform="translate(1452.8 451.1)">
          <path id="Path_77" data-name="Path 77" d="M0-9.3H-14.4v-6.9h25v6.7H6.2v.3A7.44,7.44,0,0,1,9.7-6.4,8.21,8.21,0,0,1,11-1.6,7.78,7.78,0,0,1,8.5,4.5c-1.7,1.6-4,2.3-6.9,2.4H-14.3V0H.4A4.958,4.958,0,0,0,3.9-1.2,3.871,3.871,0,0,0,5.2-4.3,4.6,4.6,0,0,0,3.9-7.6,4.508,4.508,0,0,0,0-9.3"/>
        </g>
        <g id="Group_28" data-name="Group 28" transform="translate(1457.9 418.3)">
          <path id="Path_78" data-name="Path 78" d="M0-.4A4.412,4.412,0,0,0-1.9-4.3,8.9,8.9,0,0,0-7.1-5.7a9.245,9.245,0,0,0-5.3,1.4,4.492,4.492,0,0,0-2,3.9,4.492,4.492,0,0,0,2,3.9A9.122,9.122,0,0,0-7.2,4.8,8.361,8.361,0,0,0-2.1,3.4,3.922,3.922,0,0,0,0-.4m15.5.2a13.758,13.758,0,0,1-2,7.9,7.913,7.913,0,0,1-5,3.5L7.6,4.8a4.008,4.008,0,0,0,2-1.7,5.838,5.838,0,0,0,.9-3.5A6.027,6.027,0,0,0,9.4-4.1,4.285,4.285,0,0,0,5.7-5.6H1.1v.3A7.832,7.832,0,0,1,3.9-2.9,8.181,8.181,0,0,1,5.2,1.8,9.687,9.687,0,0,1,3.9,6.9a9.6,9.6,0,0,1-4,3.7A15.381,15.381,0,0,1-7,12a16.625,16.625,0,0,1-7.1-1.4,10.477,10.477,0,0,1-4.3-3.7,8.8,8.8,0,0,1-1.4-5,7.281,7.281,0,0,1,.7-3.5,8.362,8.362,0,0,1,1.8-2.3,8,8,0,0,1,2.1-1.3v-.3h-4.2v-6.9H5.9a8.356,8.356,0,0,1,5.3,1.6,9.4,9.4,0,0,1,3.2,4.3A17.294,17.294,0,0,1,15.5-.2"/>
        </g>
        <g id="Group_29" data-name="Group 29" transform="translate(36 -266.5)">
          <path id="Path_79" data-name="Path 79" d="M1427.5,666.8h-25v-6.9h25Zm-28.3-3.5a3.541,3.541,0,0,1-1,2.6,3.391,3.391,0,0,1-5,0,3.542,3.542,0,0,1-1-2.6,3.943,3.943,0,0,1,1-2.7,3.391,3.391,0,0,1,5,0,3.775,3.775,0,0,1,1,2.7"/>
        </g>
        <g id="Group_30" data-name="Group 30" transform="translate(1449 371.5)">
          <path id="Path_80" data-name="Path 80" d="M0,9.3H14.5v6.9h-25V9.6h4.4V9.3A7.44,7.44,0,0,1-9.6,6.5a8.1,8.1,0,0,1-1.3-4.7A8.215,8.215,0,0,1-8.4-4.5,9.66,9.66,0,0,1-1.5-6.9H14.4V0H-.3A5.219,5.219,0,0,0-3.9,1.2,4.156,4.156,0,0,0-5.2,4.5,4.521,4.521,0,0,0-3.9,7.9,5.21,5.21,0,0,0,0,9.3"/>
        </g>
      </g>
      <g id="Group_215" data-name="Group 215" transform="translate(2.094 25.399)">
        <g id="Group_31" data-name="Group 31" transform="translate(1606.1 631.599)">
          <path id="Path_81" data-name="Path 81" d="M0,22.6H-33.4V.1h5.8V15.5h8V1.2h5.8V15.5h8V0H0Z"/>
        </g>
        <g id="Group_32" data-name="Group 32" transform="translate(1591.6 610)">
          <path id="Path_82" data-name="Path 82" d="M0,9.3H14.5v6.9h-25V9.6h4.4V9.3A7.44,7.44,0,0,1-9.6,6.5a8.1,8.1,0,0,1-1.3-4.7A8.215,8.215,0,0,1-8.4-4.5,9.665,9.665,0,0,1-1.5-6.9H14.4V0H-.3A5.224,5.224,0,0,0-3.9,1.2,4.156,4.156,0,0,0-5.2,4.5,4.523,4.523,0,0,0-3.9,7.9,6.379,6.379,0,0,0,0,9.3"/>
        </g>
        <g id="Group_33" data-name="Group 33" transform="translate(1606.1 582.5)">
          <path id="Path_83" data-name="Path 83" d="M.1,15.2H-25V8.5h4.4V8.2a6.37,6.37,0,0,1-3.5-2.3,6.071,6.071,0,0,1-1.2-3.7A14.979,14.979,0,0,1-25.1,0h6.2a10.627,10.627,0,0,0-.3,1.4A9.151,9.151,0,0,0-19.3,3a5.56,5.56,0,0,0,1.4,3.8,5.046,5.046,0,0,0,3.8,1.5H.1Z"/>
        </g>
        <g id="Group_34" data-name="Group 34" transform="translate(36 90.7)">
          <path id="Path_84" data-name="Path 84" d="M1570.1,488.2h-25v-6.9h25Zm-28.3-3.5a3.541,3.541,0,0,1-1,2.6,3.391,3.391,0,0,1-5,0,3.541,3.541,0,0,1-1-2.6,3.942,3.942,0,0,1,1-2.7,3.391,3.391,0,0,1,5,0,3.942,3.942,0,0,1,1,2.7"/>
        </g>
        <g id="Group_35" data-name="Group 35" transform="translate(1606.6 556.202)">
          <path id="Path_85" data-name="Path 85" d="M0-1.1A12.424,12.424,0,0,1-1.6,5.5,10.421,10.421,0,0,1-6.2,9.7a14.381,14.381,0,0,1-6.7,1.5,14.8,14.8,0,0,1-6.8-1.5,10.205,10.205,0,0,1-4.5-4.2,12.424,12.424,0,0,1-1.6-6.6,12.607,12.607,0,0,1,1.2-5.7,10.441,10.441,0,0,1,3.3-3.9,9.342,9.342,0,0,1,5.1-1.6v6.6a5.079,5.079,0,0,0-3,1.5,4.5,4.5,0,0,0-1.1,3.1,4.649,4.649,0,0,0,1.9,3.9,8.783,8.783,0,0,0,5.5,1.5A9.3,9.3,0,0,0-7.3,2.8a4.743,4.743,0,0,0,2-3.9,4.43,4.43,0,0,0-1.1-3A5.066,5.066,0,0,0-9.5-5.6v-6.6a9.914,9.914,0,0,1,5.1,1.6A8.95,8.95,0,0,1-1-6.8,12.641,12.641,0,0,1,0-1.1"/>
        </g>
        <g id="Group_36" data-name="Group 36" transform="translate(1591.6 523.1)">
          <path id="Path_86" data-name="Path 86" d="M0,9.4H14.5v6.9H-18.9V9.5H-6.1V9.2A7.9,7.9,0,0,1-9.6,6.5a8.663,8.663,0,0,1-1.3-4.7A8.215,8.215,0,0,1-8.4-4.5,9.66,9.66,0,0,1-1.5-6.9H14.4V0H-.3A5.219,5.219,0,0,0-3.9,1.2,4.156,4.156,0,0,0-5.2,4.5,4.752,4.752,0,0,0-3.9,8,5.819,5.819,0,0,0,0,9.4"/>
        </g>
        <g id="Group_37" data-name="Group 37" transform="translate(1589.6 481.9)">
          <path id="Path_87" data-name="Path 87" d="M0,11.1V6.2A5.76,5.76,0,0,0-1.6,1.7,5.677,5.677,0,0,0-5.6.2a5.354,5.354,0,0,0-4,1.5,6.211,6.211,0,0,0-1.5,4.6v4.8Zm16.5,7H-16.9V4.9a14.5,14.5,0,0,1,1.4-6.5,9.88,9.88,0,0,1,4-4.1A12.538,12.538,0,0,1-5.6-7.1,12.538,12.538,0,0,1,.3-5.7a10.518,10.518,0,0,1,4,4.1A13.423,13.423,0,0,1,5.7,5v5.9H16.5Z"/>
        </g>
        <g id="Group_38" data-name="Group 38" transform="translate(36 -126.3)">
          <rect id="Rectangle_11" data-name="Rectangle 11" width="33.4" height="6.9" transform="translate(1536.7 589.7)"/>
        </g>
        <g id="Group_39" data-name="Group 39" transform="translate(1595.5 451.1)">
          <path id="Path_88" data-name="Path 88" d="M0-9.3H-14.4v-6.9h25v6.7H6.1v.3A7.44,7.44,0,0,1,9.6-6.4a8.21,8.21,0,0,1,1.3,4.8A7.78,7.78,0,0,1,8.4,4.5c-1.7,1.6-4,2.3-6.9,2.4H-14.4V0H.3A4.958,4.958,0,0,0,3.8-1.2,3.871,3.871,0,0,0,5.1-4.3,4.6,4.6,0,0,0,3.8-7.6,4.439,4.439,0,0,0,0-9.3"/>
        </g>
        <g id="Group_40" data-name="Group 40" transform="translate(1600.5 418.3)">
          <path id="Path_89" data-name="Path 89" d="M0-.4A4.412,4.412,0,0,0-1.9-4.3,8.9,8.9,0,0,0-7.1-5.7a9.245,9.245,0,0,0-5.3,1.4,4.492,4.492,0,0,0-2,3.9,4.492,4.492,0,0,0,2,3.9A9.122,9.122,0,0,0-7.2,4.8,8.361,8.361,0,0,0-2.1,3.4,3.922,3.922,0,0,0,0-.4m15.5.2a13.758,13.758,0,0,1-2,7.9,7.913,7.913,0,0,1-5,3.5L7.6,4.8a4.008,4.008,0,0,0,2-1.7,5.838,5.838,0,0,0,.9-3.5A6.027,6.027,0,0,0,9.4-4.1,4.285,4.285,0,0,0,5.7-5.6H1.1v.3A7.832,7.832,0,0,1,3.9-2.9,8.181,8.181,0,0,1,5.2,1.8,9.687,9.687,0,0,1,3.9,6.9a9.6,9.6,0,0,1-4,3.7A15.381,15.381,0,0,1-7,12a16.625,16.625,0,0,1-7.1-1.4,10.477,10.477,0,0,1-4.3-3.7,8.8,8.8,0,0,1-1.4-5,7.281,7.281,0,0,1,.7-3.5,8.362,8.362,0,0,1,1.8-2.3,8,8,0,0,1,2.1-1.3v-.3h-4.2v-6.9H5.9a8.356,8.356,0,0,1,5.3,1.6,9.4,9.4,0,0,1,3.2,4.3A17.294,17.294,0,0,1,15.5-.2"/>
        </g>
        <g id="Group_41" data-name="Group 41" transform="translate(36 -266.5)">
          <path id="Path_90" data-name="Path 90" d="M1570.1,666.8h-25v-6.9h25Zm-28.3-3.5a3.542,3.542,0,0,1-1,2.6,3.391,3.391,0,0,1-5,0,3.541,3.541,0,0,1-1-2.6,3.942,3.942,0,0,1,1-2.7,3.391,3.391,0,0,1,5,0,3.776,3.776,0,0,1,1,2.7"/>
        </g>
        <g id="Group_42" data-name="Group 42" transform="translate(1591.6 371.5)">
          <path id="Path_91" data-name="Path 91" d="M0,9.3H14.5v6.9h-25V9.6h4.4V9.3A7.44,7.44,0,0,1-9.6,6.5a8.1,8.1,0,0,1-1.3-4.7A8.215,8.215,0,0,1-8.4-4.5,9.66,9.66,0,0,1-1.5-6.9H14.4V0H-.3A5.219,5.219,0,0,0-3.9,1.2,4.156,4.156,0,0,0-5.2,4.5,4.521,4.521,0,0,0-3.9,7.9,5.361,5.361,0,0,0,0,9.3"/>
        </g>
      </g>
      <g id="Group_216" data-name="Group 216" transform="translate(2.094 25.399)">
        <g id="Group_43" data-name="Group 43" transform="translate(1748.1 631.599)">
          <path id="Path_92" data-name="Path 92" d="M0,22.6H-33.4V.1h5.8V15.5h8V1.2h5.8V15.5h8V0H0Z"/>
        </g>
        <g id="Group_44" data-name="Group 44" transform="translate(1733.6 610)">
          <path id="Path_93" data-name="Path 93" d="M0,9.3H14.5v6.9h-25V9.6h4.4V9.3A7.445,7.445,0,0,1-9.6,6.5a8.1,8.1,0,0,1-1.3-4.7A8.211,8.211,0,0,1-8.4-4.5,9.664,9.664,0,0,1-1.5-6.9H14.4V0H-.3A5.22,5.22,0,0,0-3.9,1.2,4.153,4.153,0,0,0-5.2,4.5,4.519,4.519,0,0,0-3.9,7.9,6.154,6.154,0,0,0,0,9.3"/>
        </g>
        <g id="Group_45" data-name="Group 45" transform="translate(1748.1 582.5)">
          <path id="Path_94" data-name="Path 94" d="M.1,15.2H-25V8.5h4.4V8.2a6.373,6.373,0,0,1-3.5-2.3,6.077,6.077,0,0,1-1.2-3.7A15.117,15.117,0,0,1-25.1,0h6.2a10.307,10.307,0,0,0-.3,1.4A9.061,9.061,0,0,0-19.3,3a5.556,5.556,0,0,0,1.4,3.8,5.045,5.045,0,0,0,3.8,1.5H.1Z"/>
        </g>
        <g id="Group_46" data-name="Group 46" transform="translate(36 90.7)">
          <path id="Path_95" data-name="Path 95" d="M1712.1,488.2h-25v-6.9h25Zm-28.3-3.5a3.541,3.541,0,0,1-1,2.6,3.391,3.391,0,0,1-5,0,3.541,3.541,0,0,1-1-2.6,3.942,3.942,0,0,1,1-2.7,3.391,3.391,0,0,1,5,0,3.942,3.942,0,0,1,1,2.7"/>
        </g>
        <g id="Group_47" data-name="Group 47" transform="translate(1748.6 556.202)">
          <path id="Path_96" data-name="Path 96" d="M0-1.1A12.424,12.424,0,0,1-1.6,5.5,10.414,10.414,0,0,1-6.2,9.7a14.384,14.384,0,0,1-6.7,1.5,14.8,14.8,0,0,1-6.8-1.5,10.205,10.205,0,0,1-4.5-4.2,12.415,12.415,0,0,1-1.6-6.6,12.62,12.62,0,0,1,1.2-5.7,10.451,10.451,0,0,1,3.3-3.9,9.348,9.348,0,0,1,5.1-1.6v6.6a5.076,5.076,0,0,0-3,1.5,4.505,4.505,0,0,0-1.1,3.1,4.65,4.65,0,0,0,1.9,3.9,8.779,8.779,0,0,0,5.5,1.5A9.3,9.3,0,0,0-7.3,2.8a4.743,4.743,0,0,0,2-3.9,4.429,4.429,0,0,0-1.1-3A5.069,5.069,0,0,0-9.5-5.6v-6.6a9.918,9.918,0,0,1,5.1,1.6A8.948,8.948,0,0,1-1-6.8,12.627,12.627,0,0,1,0-1.1"/>
        </g>
        <g id="Group_48" data-name="Group 48" transform="translate(1733.6 523.1)">
          <path id="Path_97" data-name="Path 97" d="M0,9.4H14.5v6.9H-18.9V9.5H-6.1V9.2A7.9,7.9,0,0,1-9.6,6.5a8.671,8.671,0,0,1-1.3-4.7A8.211,8.211,0,0,1-8.4-4.5,9.659,9.659,0,0,1-1.5-6.9H14.4V0H-.3A5.215,5.215,0,0,0-3.9,1.2,4.153,4.153,0,0,0-5.2,4.5,4.748,4.748,0,0,0-3.9,8,5.635,5.635,0,0,0,0,9.4"/>
        </g>
        <g id="Group_49" data-name="Group 49" transform="translate(1731.6 481.9)">
          <path id="Path_98" data-name="Path 98" d="M0,11.1V6.2A5.76,5.76,0,0,0-1.6,1.7,5.676,5.676,0,0,0-5.6.2a5.354,5.354,0,0,0-4,1.5,6.211,6.211,0,0,0-1.5,4.6v4.8Zm16.5,7H-16.9V4.9a14.509,14.509,0,0,1,1.4-6.5,9.886,9.886,0,0,1,4-4.1A12.538,12.538,0,0,1-5.6-7.1,12.539,12.539,0,0,1,.3-5.7a10.525,10.525,0,0,1,4,4.1A13.423,13.423,0,0,1,5.7,5v5.9H16.5Z"/>
        </g>
        <g id="Group_50" data-name="Group 50" transform="translate(36 -126.3)">
          <rect id="Rectangle_12" data-name="Rectangle 12" width="33.399" height="6.9" transform="translate(1678.7 589.7)"/>
        </g>
        <g id="Group_51" data-name="Group 51" transform="translate(1737.4 451.1)">
          <path id="Path_99" data-name="Path 99" d="M0-9.3H-14.4v-6.9h25v6.7H6.1v.3A7.445,7.445,0,0,1,9.6-6.4a8.209,8.209,0,0,1,1.3,4.8A7.776,7.776,0,0,1,8.4,4.5c-1.7,1.6-4,2.3-6.9,2.4H-14.4V0H.3A4.959,4.959,0,0,0,3.8-1.2,3.874,3.874,0,0,0,5.1-4.3,4.608,4.608,0,0,0,3.8-7.6,4.212,4.212,0,0,0,0-9.3"/>
        </g>
        <g id="Group_52" data-name="Group 52" transform="translate(1742.5 418.3)">
          <path id="Path_100" data-name="Path 100" d="M0-.4A4.412,4.412,0,0,0-1.9-4.3,8.9,8.9,0,0,0-7.1-5.7a9.245,9.245,0,0,0-5.3,1.4,4.492,4.492,0,0,0-2,3.9,4.492,4.492,0,0,0,2,3.9A9.122,9.122,0,0,0-7.2,4.8,8.361,8.361,0,0,0-2.1,3.4,3.922,3.922,0,0,0,0-.4m15.5.2a13.758,13.758,0,0,1-2,7.9,7.913,7.913,0,0,1-5,3.5L7.6,4.8a4.008,4.008,0,0,0,2-1.7,5.838,5.838,0,0,0,.9-3.5A6.027,6.027,0,0,0,9.4-4.1,4.285,4.285,0,0,0,5.7-5.6H1.1v.3A7.832,7.832,0,0,1,3.9-2.9,8.181,8.181,0,0,1,5.2,1.8,9.687,9.687,0,0,1,3.9,6.9a9.6,9.6,0,0,1-4,3.7A15.381,15.381,0,0,1-7,12a16.625,16.625,0,0,1-7.1-1.4,10.477,10.477,0,0,1-4.3-3.7,8.8,8.8,0,0,1-1.4-5,7.281,7.281,0,0,1,.7-3.5,8.362,8.362,0,0,1,1.8-2.3,8,8,0,0,1,2.1-1.3v-.3h-4.2v-6.9H5.9a8.356,8.356,0,0,1,5.3,1.6,9.4,9.4,0,0,1,3.2,4.3A17.294,17.294,0,0,1,15.5-.2"/>
        </g>
        <g id="Group_53" data-name="Group 53" transform="translate(36 -266.5)">
          <path id="Path_101" data-name="Path 101" d="M1712.1,666.8h-25v-6.9h25Zm-28.3-3.5a3.542,3.542,0,0,1-1,2.6,3.391,3.391,0,0,1-5,0,3.541,3.541,0,0,1-1-2.6,3.942,3.942,0,0,1,1-2.7,3.391,3.391,0,0,1,5,0,3.776,3.776,0,0,1,1,2.7"/>
        </g>
        <g id="Group_54" data-name="Group 54" transform="translate(1733.6 371.5)">
          <path id="Path_102" data-name="Path 102" d="M0,9.3H14.5v6.9h-25V9.6h4.4V9.3A7.445,7.445,0,0,1-9.6,6.5a8.1,8.1,0,0,1-1.3-4.7A8.211,8.211,0,0,1-8.4-4.5,9.659,9.659,0,0,1-1.5-6.9H14.4V0H-.3A5.215,5.215,0,0,0-3.9,1.2,4.153,4.153,0,0,0-5.2,4.5,4.517,4.517,0,0,0-3.9,7.9,5.208,5.208,0,0,0,0,9.3"/>
        </g>
      </g>
      <g id="Group_217" data-name="Group 217" transform="translate(2.094 25.399)">
        <g id="Group_55" data-name="Group 55" transform="translate(1891.6 631.599)">
          <path id="Path_103" data-name="Path 103" d="M0,22.6H-33.4V.1h5.8V15.5h8V1.2h5.8V15.5h8V0H0Z"/>
        </g>
        <g id="Group_56" data-name="Group 56" transform="translate(1877.1 610)">
          <path id="Path_104" data-name="Path 104" d="M0,9.3H14.5v6.9h-25V9.6h4.4V9.3A7.445,7.445,0,0,1-9.6,6.5a8.1,8.1,0,0,1-1.3-4.7A8.211,8.211,0,0,1-8.4-4.5,9.664,9.664,0,0,1-1.5-6.9H14.4V0H-.3A5.22,5.22,0,0,0-3.9,1.2,4.153,4.153,0,0,0-5.2,4.5,4.519,4.519,0,0,0-3.9,7.9,6.154,6.154,0,0,0,0,9.3"/>
        </g>
        <g id="Group_57" data-name="Group 57" transform="translate(1891.6 582.5)">
          <path id="Path_105" data-name="Path 105" d="M.1,15.2H-25V8.5h4.4V8.2a6.373,6.373,0,0,1-3.5-2.3,6.077,6.077,0,0,1-1.2-3.7A15.117,15.117,0,0,1-25.1,0h6.2a10.307,10.307,0,0,0-.3,1.4A9.061,9.061,0,0,0-19.3,3a5.556,5.556,0,0,0,1.4,3.8,5.045,5.045,0,0,0,3.8,1.5H.1Z"/>
        </g>
        <g id="Group_58" data-name="Group 58" transform="translate(36 90.7)">
          <path id="Path_106" data-name="Path 106" d="M1855.6,488.2h-25v-6.9h25Zm-28.3-3.5a3.541,3.541,0,0,1-1,2.6,3.391,3.391,0,0,1-5,0,3.541,3.541,0,0,1-1-2.6,3.942,3.942,0,0,1,1-2.7,3.391,3.391,0,0,1,5,0,4.49,4.49,0,0,1,1,2.7"/>
        </g>
        <g id="Group_59" data-name="Group 59" transform="translate(1892.1 556.202)">
          <path id="Path_107" data-name="Path 107" d="M0-1.1A12.424,12.424,0,0,1-1.6,5.5,10.414,10.414,0,0,1-6.2,9.7a14.384,14.384,0,0,1-6.7,1.5,14.8,14.8,0,0,1-6.8-1.5,10.758,10.758,0,0,1-4.5-4.2,12.415,12.415,0,0,1-1.6-6.6,12.62,12.62,0,0,1,1.2-5.7,10.451,10.451,0,0,1,3.3-3.9,9.348,9.348,0,0,1,5.1-1.6v6.6a5.076,5.076,0,0,0-3,1.5,4.139,4.139,0,0,0-1.2,3.1,4.649,4.649,0,0,0,1.9,3.9A8.787,8.787,0,0,0-13,4.3,9.31,9.31,0,0,0-7.4,2.8a4.745,4.745,0,0,0,2-3.9,4.431,4.431,0,0,0-1.1-3A5.063,5.063,0,0,0-9.6-5.6v-6.6a9.911,9.911,0,0,1,5.1,1.6A8.943,8.943,0,0,1-1.1-6.8,12.618,12.618,0,0,1,0-1.1"/>
        </g>
        <g id="Group_60" data-name="Group 60" transform="translate(1877.1 523.1)">
          <path id="Path_108" data-name="Path 108" d="M0,9.4H14.5v6.9H-18.9V9.5H-6.1V9.2A7.9,7.9,0,0,1-9.6,6.5a8.671,8.671,0,0,1-1.3-4.7A8.211,8.211,0,0,1-8.4-4.5,9.659,9.659,0,0,1-1.5-6.9H14.4V0H-.3A5.215,5.215,0,0,0-3.9,1.2,4.153,4.153,0,0,0-5.2,4.5,4.748,4.748,0,0,0-3.9,8,5.635,5.635,0,0,0,0,9.4"/>
        </g>
        <g id="Group_61" data-name="Group 61" transform="translate(1875.1 481.9)">
          <path id="Path_109" data-name="Path 109" d="M0,11.1V6.2A5.76,5.76,0,0,0-1.6,1.7,5.676,5.676,0,0,0-5.6.2a5.354,5.354,0,0,0-4,1.5,6.211,6.211,0,0,0-1.5,4.6v4.8Zm16.5,7H-16.9V4.9a14.509,14.509,0,0,1,1.4-6.5,9.886,9.886,0,0,1,4-4.1A12.538,12.538,0,0,1-5.6-7.1,12.539,12.539,0,0,1,.3-5.7a10.525,10.525,0,0,1,4,4.1A13.423,13.423,0,0,1,5.7,5v5.9H16.5Z"/>
        </g>
        <g id="Group_62" data-name="Group 62" transform="translate(36 -126.3)">
          <rect id="Rectangle_13" data-name="Rectangle 13" width="33.399" height="6.9" transform="translate(1822.2 589.7)"/>
        </g>
        <g id="Group_63" data-name="Group 63" transform="translate(1880.9 451.1)">
          <path id="Path_110" data-name="Path 110" d="M0-9.3H-14.4v-6.9h25v6.7H6.1v.3A7.445,7.445,0,0,1,9.6-6.4a8.209,8.209,0,0,1,1.3,4.8A7.776,7.776,0,0,1,8.4,4.5c-1.7,1.6-4,2.3-6.9,2.4H-14.4V0H.3A4.959,4.959,0,0,0,3.8-1.2,3.874,3.874,0,0,0,5.1-4.3,4.608,4.608,0,0,0,3.8-7.6,4.324,4.324,0,0,0,0-9.3"/>
        </g>
        <g id="Group_64" data-name="Group 64" transform="translate(1886 418.3)">
          <path id="Path_111" data-name="Path 111" d="M0-.4A4.412,4.412,0,0,0-1.9-4.3,8.9,8.9,0,0,0-7.1-5.7a9.245,9.245,0,0,0-5.3,1.4,4.492,4.492,0,0,0-2,3.9,4.492,4.492,0,0,0,2,3.9A9.122,9.122,0,0,0-7.2,4.8,8.361,8.361,0,0,0-2.1,3.4,3.922,3.922,0,0,0,0-.4m15.5.2a13.758,13.758,0,0,1-2,7.9,7.913,7.913,0,0,1-5,3.5L7.6,4.8a4.008,4.008,0,0,0,2-1.7,5.838,5.838,0,0,0,.9-3.5A6.027,6.027,0,0,0,9.4-4.1,4.57,4.57,0,0,0,5.7-5.6H1.1v.3A7.832,7.832,0,0,1,3.9-2.9,8.181,8.181,0,0,1,5.2,1.8,9.687,9.687,0,0,1,3.9,6.9a9.6,9.6,0,0,1-4,3.7A15.381,15.381,0,0,1-7,12a16.625,16.625,0,0,1-7.1-1.4,10.477,10.477,0,0,1-4.3-3.7,8.8,8.8,0,0,1-1.4-5,7.281,7.281,0,0,1,.7-3.5,8.362,8.362,0,0,1,1.8-2.3,8,8,0,0,1,2.1-1.3v-.3h-4.2v-6.9H5.9a8.356,8.356,0,0,1,5.3,1.6,9.4,9.4,0,0,1,3.2,4.3A17.294,17.294,0,0,1,15.5-.2"/>
        </g>
        <g id="Group_65" data-name="Group 65" transform="translate(36 -266.5)">
          <path id="Path_112" data-name="Path 112" d="M1855.6,666.8h-25v-6.9h25Zm-28.3-3.5a3.542,3.542,0,0,1-1,2.6,3.391,3.391,0,0,1-5,0,3.541,3.541,0,0,1-1-2.6,3.942,3.942,0,0,1,1-2.7,3.391,3.391,0,0,1,5,0,4.268,4.268,0,0,1,1,2.7"/>
        </g>
        <g id="Group_66" data-name="Group 66" transform="translate(1877.1 371.5)">
          <path id="Path_113" data-name="Path 113" d="M0,9.3H14.5v6.9h-25V9.6h4.4V9.3A7.445,7.445,0,0,1-9.6,6.5a8.1,8.1,0,0,1-1.3-4.7A8.211,8.211,0,0,1-8.4-4.5,9.659,9.659,0,0,1-1.5-6.9H14.4V0H-.3A5.215,5.215,0,0,0-3.9,1.2,4.153,4.153,0,0,0-5.2,4.5,4.517,4.517,0,0,0-3.9,7.9,5.208,5.208,0,0,0,0,9.3"/>
        </g>
      </g>
      <g id="Group_218" data-name="Group 218" transform="translate(2.094 25.399)">
        <g id="Group_67" data-name="Group 67" transform="translate(2029.9 631.599)">
          <path id="Path_114" data-name="Path 114" d="M0,22.6H-33.4V.1h5.8V15.5h8V1.2h5.8V15.5h8V0H0Z"/>
        </g>
        <g id="Group_68" data-name="Group 68" transform="translate(2015.4 610)">
          <path id="Path_115" data-name="Path 115" d="M0,9.3H14.5v6.9h-25V9.6h4.4V9.3A7.445,7.445,0,0,1-9.6,6.5a8.105,8.105,0,0,1-1.3-4.7A8.211,8.211,0,0,1-8.4-4.5,9.665,9.665,0,0,1-1.5-6.9H14.4V0H-.3A5.221,5.221,0,0,0-3.9,1.2,4.153,4.153,0,0,0-5.2,4.5,4.523,4.523,0,0,0-3.9,7.9,6.155,6.155,0,0,0,0,9.3"/>
        </g>
        <g id="Group_69" data-name="Group 69" transform="translate(2029.9 582.5)">
          <path id="Path_116" data-name="Path 116" d="M.1,15.2H-25V8.5h4.4V8.2a6.373,6.373,0,0,1-3.5-2.3,6.077,6.077,0,0,1-1.2-3.7A15.117,15.117,0,0,1-25.1,0h6.2a10.465,10.465,0,0,0-.3,1.4A9.061,9.061,0,0,0-19.3,3a5.556,5.556,0,0,0,1.4,3.8,5.045,5.045,0,0,0,3.8,1.5H.1Z"/>
        </g>
        <g id="Group_70" data-name="Group 70" transform="translate(36 90.7)">
          <path id="Path_117" data-name="Path 117" d="M1993.9,488.2h-25v-6.9h25Zm-28.3-3.5a3.541,3.541,0,0,1-1,2.6,3.391,3.391,0,0,1-5,0,3.541,3.541,0,0,1-1-2.6,3.942,3.942,0,0,1,1-2.7,3.391,3.391,0,0,1,5,0,3.942,3.942,0,0,1,1,2.7"/>
        </g>
        <g id="Group_71" data-name="Group 71" transform="translate(2030.4 556.202)">
          <path id="Path_118" data-name="Path 118" d="M0-1.1A12.415,12.415,0,0,1-1.6,5.5,10.414,10.414,0,0,1-6.2,9.7a14.384,14.384,0,0,1-6.7,1.5,14.8,14.8,0,0,1-6.8-1.5,10.758,10.758,0,0,1-4.5-4.2,12.415,12.415,0,0,1-1.6-6.6,12.62,12.62,0,0,1,1.2-5.7,10.451,10.451,0,0,1,3.3-3.9,9.348,9.348,0,0,1,5.1-1.6v6.6a5.079,5.079,0,0,0-3,1.5,4.143,4.143,0,0,0-1.2,3.1,4.647,4.647,0,0,0,1.9,3.9A8.783,8.783,0,0,0-13,4.3,9.309,9.309,0,0,0-7.4,2.8a4.745,4.745,0,0,0,2-3.9,4.435,4.435,0,0,0-1.1-3A5.069,5.069,0,0,0-9.6-5.6v-6.6a9.915,9.915,0,0,1,5.1,1.6A8.941,8.941,0,0,1-1.1-6.8,12.6,12.6,0,0,1,0-1.1"/>
        </g>
        <g id="Group_72" data-name="Group 72" transform="translate(2015.4 523.1)">
          <path id="Path_119" data-name="Path 119" d="M0,9.4H14.5v6.9H-18.9V9.5H-6.1V9.2A7.9,7.9,0,0,1-9.6,6.5a8.671,8.671,0,0,1-1.3-4.7A8.211,8.211,0,0,1-8.4-4.5,9.66,9.66,0,0,1-1.5-6.9H14.4V0H-.3A5.216,5.216,0,0,0-3.9,1.2,4.153,4.153,0,0,0-5.2,4.5,4.748,4.748,0,0,0-3.9,8,5.636,5.636,0,0,0,0,9.4"/>
        </g>
        <g id="Group_73" data-name="Group 73" transform="translate(2013.4 481.9)">
          <path id="Path_120" data-name="Path 120" d="M0,11.1V6.2A5.757,5.757,0,0,0-1.6,1.7,5.674,5.674,0,0,0-5.6.2a5.354,5.354,0,0,0-4,1.5,6.211,6.211,0,0,0-1.5,4.6v4.8Zm16.5,7H-16.9V4.9a14.5,14.5,0,0,1,1.4-6.5,9.874,9.874,0,0,1,4-4.1A12.531,12.531,0,0,1-5.6-7.1,12.539,12.539,0,0,1,.3-5.7a10.518,10.518,0,0,1,4,4.1A13.423,13.423,0,0,1,5.7,5v5.9H16.5Z"/>
        </g>
        <g id="Group_74" data-name="Group 74" transform="translate(36 -126.3)">
          <rect id="Rectangle_14" data-name="Rectangle 14" width="33.4" height="6.9" transform="translate(1960.5 589.7)"/>
        </g>
        <g id="Group_75" data-name="Group 75" transform="translate(2019.2 451.1)">
          <path id="Path_121" data-name="Path 121" d="M0-9.3H-14.4v-6.9h25v6.7H6.1v.3A7.44,7.44,0,0,1,9.6-6.4a8.209,8.209,0,0,1,1.3,4.8A7.776,7.776,0,0,1,8.4,4.5c-1.7,1.6-4,2.3-6.9,2.4H-14.4V0H.3A4.959,4.959,0,0,0,3.8-1.2,3.871,3.871,0,0,0,5.1-4.3,4.6,4.6,0,0,0,3.8-7.6,4.211,4.211,0,0,0,0-9.3"/>
        </g>
        <g id="Group_76" data-name="Group 76" transform="translate(2024.3 418.3)">
          <path id="Path_122" data-name="Path 122" d="M0-.4A4.414,4.414,0,0,0-1.9-4.3,8.909,8.909,0,0,0-7.1-5.7a9.24,9.24,0,0,0-5.3,1.4,4.489,4.489,0,0,0-2,3.9,4.489,4.489,0,0,0,2,3.9A9.116,9.116,0,0,0-7.2,4.8,8.361,8.361,0,0,0-2.1,3.4,3.922,3.922,0,0,0,0-.4m15.5.2a13.758,13.758,0,0,1-2,7.9,7.913,7.913,0,0,1-5,3.5L7.6,4.8a4.016,4.016,0,0,0,2-1.7,5.846,5.846,0,0,0,.9-3.5A6.021,6.021,0,0,0,9.4-4.1,4.57,4.57,0,0,0,5.7-5.6H1.1v.3A7.821,7.821,0,0,1,3.9-2.9,8.181,8.181,0,0,1,5.2,1.8,9.687,9.687,0,0,1,3.9,6.9a9.6,9.6,0,0,1-4,3.7A15.378,15.378,0,0,1-7,12a16.625,16.625,0,0,1-7.1-1.4,10.474,10.474,0,0,1-4.3-3.7,8.806,8.806,0,0,1-1.4-5,7.281,7.281,0,0,1,.7-3.5,8.362,8.362,0,0,1,1.8-2.3,8.017,8.017,0,0,1,2.1-1.3v-.3h-4.2v-6.9H5.9a8.356,8.356,0,0,1,5.3,1.6,9.4,9.4,0,0,1,3.2,4.3A17.273,17.273,0,0,1,15.5-.2"/>
        </g>
        <g id="Group_77" data-name="Group 77" transform="translate(36 -266.5)">
          <path id="Path_123" data-name="Path 123" d="M1993.9,666.8h-25v-6.9h25Zm-28.3-3.5a3.541,3.541,0,0,1-1,2.6,3.391,3.391,0,0,1-5,0,3.542,3.542,0,0,1-1-2.6,3.943,3.943,0,0,1,1-2.7,3.391,3.391,0,0,1,5,0,3.775,3.775,0,0,1,1,2.7"/>
        </g>
        <g id="Group_78" data-name="Group 78" transform="translate(2015.4 371.5)">
          <path id="Path_124" data-name="Path 124" d="M0,9.3H14.5v6.9h-25V9.6h4.4V9.3A7.445,7.445,0,0,1-9.6,6.5a8.105,8.105,0,0,1-1.3-4.7A8.211,8.211,0,0,1-8.4-4.5,9.66,9.66,0,0,1-1.5-6.9H14.4V0H-.3A5.216,5.216,0,0,0-3.9,1.2,4.156,4.156,0,0,0-5.2,4.5,4.521,4.521,0,0,0-3.9,7.9,5.209,5.209,0,0,0,0,9.3"/>
        </g>
      </g>
      <g id="Group_220" data-name="Group 220" transform="translate(0.4 30.2)">
        <g id="Group_81" data-name="Group 81" transform="translate(2427.2 285.9) rotate(180)">
          <path id="Path_127" data-name="Path 127" d="M0,43.6c-47.22,0-85.5-9.76-85.5-21.8S-47.22,0,0,0,85.5,9.76,85.5,21.8,47.221,43.6,0,43.6"/>
        </g>
        <g id="Group_82" data-name="Group 82" transform="translate(2427.1 276.7)">
          <path id="Path_128" data-name="Path 128" d="M0,48.9a305.765,305.765,0,0,1-33.1-1.7c-5-.5-9.9-1.2-14.5-2-4.5-.8-8.8-1.7-12.6-2.7-3.5-.9-7-2-10.4-3.2a47.283,47.283,0,0,1-7.9-3.7,22.433,22.433,0,0,1-5.1-4.1,7.325,7.325,0,0,1-1.9-4.4V5.3A7.917,7.917,0,0,1-82.6-.1c2.4,2.3,6.2,4.5,11.4,6.5a120.489,120.489,0,0,0,18.7,5.2A218.553,218.553,0,0,0-28.2,15c9.1.8,18.6,1.2,28.2,1.2,9.7,0,19.2-.4,28.2-1.2a225.283,225.283,0,0,0,24.3-3.4A110.327,110.327,0,0,0,71.2,6.4c5.2-2,9-4.2,11.4-6.5,1.8,1.8,2.8,3.6,2.9,5.4V27.1a7.313,7.313,0,0,1-1.9,4.4,22.411,22.411,0,0,1-5.1,4.1,47.283,47.283,0,0,1-7.9,3.7,95.936,95.936,0,0,1-10.4,3.2Q54.351,44,47.6,45.2c-4.6.8-9.4,1.5-14.5,2A281.15,281.15,0,0,1,0,48.9"/>
        </g>
        <g id="Group_83" data-name="Group 83" transform="translate(2427.1 315.2)">
          <path id="Path_129" data-name="Path 129" d="M0,49a305.765,305.765,0,0,1-33.1-1.7c-5-.5-9.9-1.2-14.5-2-4.5-.8-8.8-1.7-12.6-2.7-3.5-.9-7-2-10.4-3.2a47.283,47.283,0,0,1-7.9-3.7,22.433,22.433,0,0,1-5.1-4.1,7.325,7.325,0,0,1-1.9-4.4V5.4A7.917,7.917,0,0,1-82.6,0c2.4,2.3,6.2,4.5,11.4,6.5a120.489,120.489,0,0,0,18.7,5.2,218.553,218.553,0,0,0,24.3,3.4c9.1.8,18.6,1.2,28.2,1.2,9.7,0,19.2-.4,28.2-1.2a225.283,225.283,0,0,0,24.3-3.4A110.327,110.327,0,0,0,71.2,6.5c5.2-2,9-4.2,11.4-6.5,1.8,1.8,2.8,3.6,2.9,5.4V27.2a7.313,7.313,0,0,1-1.9,4.4,22.411,22.411,0,0,1-5.1,4.1,47.283,47.283,0,0,1-7.9,3.7,95.935,95.935,0,0,1-10.4,3.2q-5.849,1.5-12.6,2.7c-4.6.8-9.4,1.5-14.5,2C22.1,48.4,11.1,49,0,49"/>
        </g>
        <g id="Group_84" data-name="Group 84" transform="translate(2427.1 354.6)">
          <path id="Path_130" data-name="Path 130" d="M0,49a305.765,305.765,0,0,1-33.1-1.7c-5-.5-9.9-1.2-14.5-2-4.5-.8-8.8-1.7-12.6-2.7-3.5-.9-7-2-10.4-3.2a47.283,47.283,0,0,1-7.9-3.7,22.433,22.433,0,0,1-5.1-4.1,7.325,7.325,0,0,1-1.9-4.4V5.4A7.917,7.917,0,0,1-82.6,0c2.4,2.3,6.2,4.5,11.4,6.5a120.489,120.489,0,0,0,18.7,5.2,218.553,218.553,0,0,0,24.3,3.4c9.1.8,18.6,1.2,28.2,1.2,9.7,0,19.2-.4,28.2-1.2a225.283,225.283,0,0,0,24.3-3.4A110.327,110.327,0,0,0,71.2,6.5c5.2-2,9-4.2,11.4-6.5,1.8,1.8,2.8,3.6,2.9,5.4V27.2a7.313,7.313,0,0,1-1.9,4.4,22.411,22.411,0,0,1-5.1,4.1,47.283,47.283,0,0,1-7.9,3.7,95.935,95.935,0,0,1-10.4,3.2q-5.849,1.5-12.6,2.7c-4.6.8-9.4,1.5-14.5,2C22.1,48.4,11.1,49,0,49"/>
        </g>
      </g>
      <g id="Group_85" data-name="Group 85" transform="translate(2374.8 670.5)">
        <path id="Path_131" data-name="Path 131" d="M0-19.2A9.6,9.6,0,0,0-9.6-9.6,9.6,9.6,0,0,0,0,0,9.6,9.6,0,0,0,9.6-9.6,9.6,9.6,0,0,0,0-19.2M0,4A13.613,13.613,0,0,1-13.6-9.6,13.615,13.615,0,0,1,0-23.2,13.616,13.616,0,0,1,13.6-9.6,13.614,13.614,0,0,1,0,4" fill="#d20a11"/>
      </g>
      <g id="Group_86" data-name="Group 86" transform="translate(2473.6 663.2)">
        <path id="Path_132" data-name="Path 132" d="M0-19.2A9.6,9.6,0,0,0-9.6-9.6,9.6,9.6,0,0,0,0,0,9.6,9.6,0,0,0,9.6-9.6,9.6,9.6,0,0,0,0-19.2M0,4A13.613,13.613,0,0,1-13.6-9.6,13.615,13.615,0,0,1,0-23.2,13.616,13.616,0,0,1,13.6-9.6,13.614,13.614,0,0,1,0,4" fill="#d20a11"/>
      </g>
      <g id="Group_87" data-name="Group 87" transform="translate(2422.4 696.1)">
        <path id="Path_133" data-name="Path 133" d="M0-19.2A9.6,9.6,0,0,0-9.6-9.6,9.6,9.6,0,0,0,0,0,9.6,9.6,0,0,0,9.6-9.6,9.6,9.6,0,0,0,0-19.2M0,4A13.615,13.615,0,0,1-13.6-9.6,13.615,13.615,0,0,1,0-23.2,13.614,13.614,0,0,1,13.6-9.6,13.614,13.614,0,0,1,0,4" fill="#d20a11"/>
      </g>
      <g id="Group_88" data-name="Group 88" transform="translate(2473.6 719.9)">
        <path id="Path_134" data-name="Path 134" d="M0-19.2A9.6,9.6,0,0,0-9.6-9.6,9.6,9.6,0,0,0,0,0,9.6,9.6,0,0,0,9.6-9.6,9.6,9.6,0,0,0,0-19.2M0,4A13.614,13.614,0,0,1-13.6-9.6,13.614,13.614,0,0,1,0-23.2,13.615,13.615,0,0,1,13.6-9.6,13.615,13.615,0,0,1,0,4" fill="#d20a11"/>
      </g>
      <g id="Group_89" data-name="Group 89" transform="translate(2415.7 781.5)">
        <path id="Path_135" data-name="Path 135" d="M0-19.2A9.6,9.6,0,0,0-9.6-9.6,9.6,9.6,0,0,0,0,0,9.6,9.6,0,0,0,9.6-9.6,9.6,9.6,0,0,0,0-19.2M0,4A13.614,13.614,0,0,1-13.6-9.6,13.616,13.616,0,0,1,0-23.2,13.615,13.615,0,0,1,13.6-9.6,13.613,13.613,0,0,1,0,4" fill="#d20a11"/>
      </g>
      <g id="Group_90" data-name="Group 90" transform="translate(2383.4 738.799)">
        <path id="Path_136" data-name="Path 136" d="M0-19.2A9.6,9.6,0,0,0-9.6-9.6,9.6,9.6,0,0,0,0,0,9.6,9.6,0,0,0,9.6-9.6,9.6,9.6,0,0,0,0-19.2M0,4A13.614,13.614,0,0,1-13.6-9.6,13.615,13.615,0,0,1,0-23.2,13.614,13.614,0,0,1,13.6-9.6,13.613,13.613,0,0,1,0,4" fill="#d20a11"/>
      </g>
      <g id="Group_91" data-name="Group 91" transform="translate(2475.5 772.4)">
        <path id="Path_137" data-name="Path 137" d="M0-19.2A9.6,9.6,0,0,0-9.6-9.6,9.6,9.6,0,0,0,0,0,9.6,9.6,0,0,0,9.6-9.6,9.6,9.6,0,0,0,0-19.2M0,4A13.614,13.614,0,0,1-13.6-9.6,13.614,13.614,0,0,1,0-23.2,13.614,13.614,0,0,1,13.6-9.6,13.614,13.614,0,0,1,0,4" fill="#d20a11"/>
      </g>
      <g id="Group_92" data-name="Group 92" transform="translate(2391.5 675.501)">
        <path id="Path_138" data-name="Path 138" d="M0-5-4.3-7.5l1.5-2.6L1.5-7.6ZM8.6.1,4.3-2.4,5.8-5l4.3,2.5Zm8.7,5L13,2.6,14.5,0l4.3,2.5Z"/>
      </g>
      <g id="Group_93" data-name="Group 93" transform="translate(2460.8 677.4)">
        <path id="Path_139" data-name="Path 139" d="M0-14.1l-1.7-2.4,1.2-.9L1.2-15ZM-8.1-8.3l-1.7-2.4,4.1-2.9L-4-11.2Zm-8.2,5.8L-18-4.9l4.1-2.9,1.7,2.4Zm-8.1,5.8L-26.1.9-22-2-20.3.4Z"/>
      </g>
      <g id="Group_94" data-name="Group 94" transform="translate(2407.5 712.1)">
        <path id="Path_140" data-name="Path 140" d="M0-8.4l-2.2-2.1,3.5-3.6L3.5-12ZM-6.9-1.2-9.1-3.3l3.5-3.6,2.2,2.1Zm-6.7,6.9-2.2-2.1L-12.6.3l2.2,2.1Z"/>
      </g>
      <g id="Group_95" data-name="Group 95" transform="translate(2423.6 750.5)">
        <path id="Path_141" data-name="Path 141" d="M0-43.3l-3-.4.6-5,3,.4Zm-1.3,10-3-.4.6-5,3,.4Zm-1.2,9.9-3-.4.6-5,3,.4Zm-1.2,9.9-3-.4.6-5,3,.4ZM-5-3.6-8-4l.6-5,3,.4Zm-1.1,9-3-.4L-8.6.9l3,.4Z"/>
      </g>
      <g id="Group_96" data-name="Group 96" transform="translate(36 379.8)">
        <path id="Path_142" data-name="Path 142" d="M2439.5,348.6h-3v-5h3Zm0,10h-3v-5h3Zm0,8.2h-3v-3.2h3Z"/>
      </g>
      <g id="Group_97" data-name="Group 97" transform="translate(2439.8 702.4)">
        <path id="Path_143" data-name="Path 143" d="M0-3.5l-4.6-2,1.2-2.7,4.6,2ZM9.2.6l-4.6-2L5.8-4.1l4.6,2Zm9.1,4.1-4.6-2L14.9,0l4.6,2Z"/>
      </g>
      <g id="Group_98" data-name="Group 98" transform="translate(2470.5 690.198)">
        <path id="Path_144" data-name="Path 144" d="M0-14.6l-.5-5,3-.3.5,5Zm1,10-.5-5,3-.3.5,5ZM2,5.3,1.5.3l3-.3L5,5Z"/>
      </g>
      <g id="Group_99" data-name="Group 99" transform="translate(2462.5 754.3)">
        <path id="Path_145" data-name="Path 145" d="M0-82.4l-2.8-1.1,1.9-4.6L1.9-87Zm-3.8,9.3-2.8-1.1,1.9-4.6,2.8,1.1Zm-3.8,9.2L-10.4-65l1.9-4.6,2.8,1.1Zm-3.8,9.3-2.8-1.1,1.9-4.6,2.8,1.1Zm-3.7,9.2-2.8-1.1,1.9-4.6,2.8,1.1Zm-3.8,9.3-2.8-1.1,1.9-4.6,2.8,1.1Zm-3.8,9.3-2.8-1.1,1.9-4.6,2.8,1.1Zm-3.8,9.2-2.8-1.1,1.9-4.6,2.8,1.1Zm-3.7,9.3L-33-9.4l1.9-4.6,2.8,1.1ZM-34,.9-36.8-.2l1.9-4.6,2.8,1.1Zm-2,4.8-2.8-1.1.1-.1,2.8,1.1Z"/>
      </g>
      <g id="Group_204" data-name="Group 204" transform="translate(9.873 25.401)">
        <g id="Group_115" data-name="Group 115" transform="translate(795.788 250.757) rotate(63.137)">
          <path id="Path_161" data-name="Path 161" d="M-82.675,134.55c39.627-78.237,261.841,78.594,301.649,0" fill="none" stroke="#000" stroke-width="6" stroke-dasharray="10 10"/>
        </g>
        <g id="Group_116" data-name="Group 116" transform="translate(796.288 768.442) rotate(-63.137)">
          <path id="Path_162" data-name="Path 162" d="M-82.675-134.551c39.627,78.237,261.842-78.593,301.649,0" fill="none" stroke="#000" stroke-width="6" stroke-dasharray="10 10"/>
        </g>
        <g id="Group_117" data-name="Group 117" transform="translate(680.568 379.097) rotate(36.02)">
          <path id="Path_163" data-name="Path 163" d="M-16.109,49.55c70.933-51.573,97.262,51.809,168.518,0" fill="none" stroke="#000" stroke-width="6" stroke-dasharray="10 10"/>
        </g>
        <g id="Group_118" data-name="Group 118" transform="translate(681.068 640.103) rotate(-36.02)">
          <path id="Path_164" data-name="Path 164" d="M-16.109-49.55c70.933,51.573,97.262-51.809,168.518,0" fill="none" stroke="#000" stroke-width="6" stroke-dasharray="10 10"/>
        </g>
        <g id="Group_123" data-name="Group 123" transform="translate(762.5 524.5) rotate(180)">
          <path id="Path_169" data-name="Path 169" d="M0,29.6A14.8,14.8,0,0,1-14.8,14.8,14.8,14.8,0,0,1,0,0,14.8,14.8,0,0,1,0,29.6"/>
        </g>
      </g>
      <g id="Group_208" data-name="Group 208" transform="translate(0 25.101)">
        <g id="Group_80" data-name="Group 80" transform="translate(1235.7 509.8)">
          <path id="Path_126" data-name="Path 126" d="M0,0H132.2" fill="none" stroke="#000" stroke-width="6" stroke-dasharray="10 10"/>
        </g>
        <g id="Group_124" data-name="Group 124" transform="translate(1234.8 524.7) rotate(180)">
          <path id="Path_170" data-name="Path 170" d="M0,29.6A14.8,14.8,0,0,1-14.8,14.8,14.8,14.8,0,0,1,0,0,14.8,14.8,0,0,1,0,29.6"/>
        </g>
        <g id="Group_125" data-name="Group 125" transform="translate(1364.2 524.7) rotate(180)">
          <path id="Path_171" data-name="Path 171" d="M0,29.6A14.8,14.8,0,0,1-14.8,14.8,14.8,14.8,0,0,1,0,0,14.8,14.8,0,0,1,0,29.6"/>
        </g>
      </g>
      <g id="Group_137" data-name="Group 137" transform="translate(2997.987 510.35)">
        <path id="Path_179" data-name="Path 179" d="M0,6V0H-50V-12.3L-76.3,3-50,18.3V6Z"/>
      </g>
      <g id="Group_138" data-name="Group 138" transform="translate(2921.687 553.25)">
        <path id="Path_180" data-name="Path 180" d="M0,6.1V.1H50V-12.3L76.3,3.1,50,18.4V6.1Z"/>
      </g>
      <path id="Path_269" data-name="Path 269" d="M32.938-15.94c0-10.647-6.849-16.375-15.5-16.375-8.717,0-15.5,5.728-15.5,16.375C1.93-5.355,8.717.436,17.434.436a17.686,17.686,0,0,0,5.51-.856l2.4,2.786H33L28.159-3.487C31.117-6.258,32.938-10.445,32.938-15.94ZM14.383-11.83l3.565,4.717c-.171.016-.342.016-.514.016-4.3,0-6.6-3.113-6.6-8.842s2.3-8.842,6.6-8.842,6.6,3.113,6.6,8.842A11.834,11.834,0,0,1,22.68-9.853L21.108-11.83ZM55.851-31.879V-12.2A4.922,4.922,0,0,1,50.745-7.1,4.922,4.922,0,0,1,45.64-12.2V-31.879H36.985v20.423c0,7.285,5.51,11.83,13.76,11.83,8.188,0,13.76-4.545,13.76-11.83V-31.879ZM68.615,0H91.528V-6.974H77.27v-5.479H90.408v-6.974H77.27v-5.479H91.591v-6.974H68.615Zm46.138-31.879V-12.2A4.922,4.922,0,0,1,109.647-7.1a4.922,4.922,0,0,1-5.106-5.106V-31.879H95.887v20.423c0,7.285,5.51,11.83,13.76,11.83,8.188,0,13.76-4.545,13.76-11.83V-31.879ZM127.517,0H150.43V-6.974H136.172v-5.479H149.31v-6.974H136.172v-5.479h14.321v-6.974H127.517Z" transform="translate(927 679)" fill="#d20a11"/>
      <g id="Group_261" data-name="Group 261" transform="translate(2 25)">
        <g transform="matrix(1, 0, 0, 1, 4, -25)" filter="url(#Rectangle_24)">
          <rect id="Rectangle_24-2" data-name="Rectangle 24" width="416" height="184" rx="8" transform="translate(789 443)" fill="#fff"/>
        </g>
        <g id="Group_205" data-name="Group 205">
          <g id="Group_132" data-name="Group 132" transform="translate(1130.1 475.4)">
            <path id="Path_178" data-name="Path 178" d="M0,69.3V0L43.8,34.6Zm-302.5,0V0l43.8,34.6Z" fill="none" stroke="#d20a11" stroke-miterlimit="10" stroke-width="6"/>
          </g>
          <g id="Group_133" data-name="Group 133" transform="translate(36 -40.6)">
            <rect id="Rectangle_20" data-name="Rectangle 20" width="37.7" height="135" transform="translate(861.8 482.8)"/>
          </g>
          <g id="Group_134" data-name="Group 134" transform="translate(36 -40.6)">
            <rect id="Rectangle_21" data-name="Rectangle 21" width="37.7" height="135" transform="translate(917.9 482.8)"/>
          </g>
          <g id="Group_135" data-name="Group 135" transform="translate(36 -40.6)">
            <rect id="Rectangle_22" data-name="Rectangle 22" width="37.7" height="135" transform="translate(974 482.8)"/>
          </g>
          <g id="Group_136" data-name="Group 136" transform="translate(36 -40.6)">
            <rect id="Rectangle_23" data-name="Rectangle 23" width="37.7" height="135" transform="translate(1030.1 482.8)"/>
          </g>
        </g>
      </g>
      <g id="Group_226" data-name="Group 226" transform="translate(9.1 38.386)">
        <g id="Group_142" data-name="Group 142" transform="translate(36 -20)">
          <g id="Group_141" data-name="Group 141">
            <path id="Path_273" data-name="Path 273" d="M-64.734-17.533h6.625c-.025-5.006-3.885-8.318-10.062-8.318-6.064,0-10.348,3.263-10.311,8.119-.012,3.985,2.752,6.2,7.272,7.173l2.54.548c2.839.623,3.811,1.332,3.835,2.491C-64.859-6.264-66-5.38-68.221-5.38c-2.652,0-4.221-1.245-4.334-3.586H-79.13C-79.1-2.565-74.771.3-68.122.3c6.463,0,10.336-2.789,10.361-7.82-.025-3.885-2.341-6.612-7.97-7.82l-2.092-.448c-2.416-.511-3.5-1.22-3.437-2.441.012-1.121.946-1.943,3.088-1.943C-65.93-20.173-64.871-19.19-64.734-17.533ZM-53.017,0h18.33V-5.579H-46.093V-9.962h10.51v-5.579h-10.51v-4.383h11.457V-25.5h-18.38Zm30.546,0L-21-4.881h8.418L-11.114,0h7.472L-12.06-25.5h-9.464L-29.942,0Zm3.038-10.062,2.54-8.418h.2l2.54,8.418ZM.9,0H7.826V-8.418h2.391L14.7,0h7.521l-5.18-9.514a7.589,7.589,0,0,0,4.334-7.322c0-5.429-3.8-8.667-9.464-8.667H.9ZM7.826-13.8v-6.177h2.441c2.428,0,3.885.946,3.885,3.138S12.7-13.8,10.267-13.8Zm42.4-2.142c-.548-6.326-5.18-9.912-11.606-9.912-6.874,0-12.3,4.583-12.3,13.1,0,8.48,5.28,13.1,12.3,13.1,7.472,0,11.257-5.18,11.606-9.514L43.2-9.215c-.349,2.179-1.893,3.537-4.433,3.537-3.375,0-5.33-2.391-5.33-7.073,0-4.433,1.893-7.073,5.38-7.073A4.023,4.023,0,0,1,43.2-15.94ZM55.47,0h6.924V-9.962h9.165V0h6.924V-25.5H71.559v9.962H62.393V-25.5H55.47Z" transform="translate(2381.9 465.657)" fill="#d20a11"/>
          </g>
        </g>
        <g id="Group_144" data-name="Group 144" transform="translate(34.3 -18)">
          <g id="Group_143" data-name="Group 143">
            <path id="Path_272" data-name="Path 272" d="M-50.557-25.5h-6.924V0h6.924Zm27.458,0h-6.924v13.349h-.2L-39.288-25.5h-5.878V0h6.924V-13.4h.149L-28.877,0H-23.1ZM-7.9,0c7.771,0,12.7-4.782,12.7-12.752S-.125-25.5-7.995-25.5h-9.713V0Zm-2.889-5.878V-19.626h2.441c3.985,0,6.177,1.544,6.177,6.874S-4.358-5.878-8.144-5.878ZM10.1,0h18.33V-5.579H17.022V-9.962h10.51v-5.579H17.022v-4.383H28.479V-25.5H10.1ZM41.442-25.5H33.671l7.571,12.752L33.422,0h7.87l4.334-7.571h.2L50.159,0h7.92l-7.92-12.752L57.78-25.5H50.059l-4.234,7.422h-.2Z" transform="translate(2383.6 508.614)" fill="#d20a11"/>
          </g>
        </g>
      </g>
      <g id="Group_262" data-name="Group 262" transform="translate(9.1 400.064)">
        <g id="Group_142-2" data-name="Group 142" transform="translate(36 -20)">
          <g id="Group_141-2" data-name="Group 141">
            <path id="Path_271" data-name="Path 271" d="M-122.533,0h6.924V-6.575l2.291-2.989L-107.59,0h8.269l-8.817-14.146L-99.521-25.5h-8.069l-7.671,10.311h-.349V-25.5h-6.924Zm49.225-25.5h-6.924v13.349h-.2L-89.5-25.5h-5.878V0h6.924V-13.4h.149L-79.086,0h5.778Zm30.1,12.752c0-8.518-5.479-13.1-12.4-13.1-6.974,0-12.4,4.583-12.4,13.1,0,8.468,5.429,13.1,12.4,13.1C-48.689.349-43.21-4.234-43.21-12.752Zm-7.123,0c0,4.583-1.843,7.073-5.28,7.073s-5.28-2.491-5.28-7.073,1.843-7.073,5.28-7.073S-50.333-17.334-50.333-12.752ZM-33.037,0h6.625l4.334-14.246h.2L-17.545,0h6.625L-3.4-25.5H-11.12l-3.487,15.74h-.2L-18.94-25.5h-6.077l-4.134,15.69h-.2L-32.837-25.5h-7.721ZM.946,0H18.181V-5.579H7.87V-25.5H.946ZM23.074,0H41.4V-5.579H30V-9.962h10.51v-5.579H30v-4.383H41.455V-25.5H23.074ZM56.809,0c7.771,0,12.7-4.782,12.7-12.752S64.579-25.5,56.709-25.5H47V0ZM53.919-5.878V-19.626H56.36c3.985,0,6.177,1.544,6.177,6.874s-2.192,6.874-5.977,6.874ZM91.364-17.085h7c-.535-5.118-5.18-8.767-11.207-8.767C80.282-25.852,74.7-21.12,74.7-12.7c0,8.069,5.056,13.05,12.5,13.05,6.675,0,11.457-4.085,11.457-11.058v-3.537H87.355v4.931h4.632c-.062,2.217-1.631,3.636-4.732,3.636-3.586,0-5.429-2.64-5.429-7.123,0-4.421,1.992-7.023,5.479-7.023C89.472-19.825,90.941-18.829,91.364-17.085ZM104,0h18.33V-5.579H110.927V-9.962h10.51v-5.579h-10.51v-4.383h11.457V-25.5H104Z" transform="translate(2381.9 465.657)" fill="#d20a11"/>
          </g>
        </g>
        <g id="Group_144-2" data-name="Group 144" transform="translate(34.3 -18)">
          <g id="Group_143-2" data-name="Group 143">
            <path id="Path_270" data-name="Path 270" d="M-49.86-17.085h7c-.535-5.118-5.18-8.767-11.207-8.767-6.874,0-12.453,4.732-12.453,13.15,0,8.069,5.056,13.05,12.5,13.05,6.675,0,11.457-4.085,11.457-11.058v-3.537H-53.87v4.931h4.632C-49.3-7.1-50.869-5.678-53.969-5.678c-3.586,0-5.429-2.64-5.429-7.123,0-4.421,1.992-7.023,5.479-7.023C-51.753-19.825-50.283-18.829-49.86-17.085ZM-37.221,0H-30.3V-8.418h2.391L-23.423,0H-15.9l-5.18-9.514a7.589,7.589,0,0,0,4.334-7.322c0-5.429-3.8-8.667-9.464-8.667H-37.221ZM-30.3-13.8v-6.177h2.441c2.428,0,3.885.946,3.885,3.138S-25.428-13.8-27.856-13.8ZM-5.081,0l1.469-4.881H4.807L6.276,0h7.472L5.33-25.5H-4.134L-12.552,0Zm3.038-10.062L.5-18.48H.7l2.54,8.418ZM18.293,0h6.924V-7.571h3.835c5.815,0,9.713-3.425,9.713-8.916,0-5.429-3.8-9.016-9.464-9.016H18.293Zm6.924-12.951v-7.023h2.441c2.428,0,3.885,1.3,3.885,3.487s-1.457,3.537-3.885,3.537ZM43.409,0h6.924V-9.962H59.5V0h6.924V-25.5H59.5v9.962H50.333V-25.5H43.409Z" transform="translate(2383.6 508.614)" fill="#d20a11"/>
          </g>
        </g>
      </g>
      <g id="Group_224" data-name="Group 224" transform="translate(5.186 17.15)">
        <g id="Group_146" data-name="Group 146" transform="translate(36 -20) rotate(-90)">
          <g id="Group_145" data-name="Group 145">
            <path id="Path_275" data-name="Path 275" d="M-100.859,0h6.924V-9.962h9.165V0h6.924V-25.5h-6.924v9.962h-9.165V-25.5h-6.924Zm28.4,0h18.33V-5.579H-65.531V-9.962h10.51v-5.579h-10.51v-4.383h11.457V-25.5h-18.38Zm30.546,0,1.469-4.881h8.418L-30.552,0h7.472L-31.5-25.5h-9.464L-49.381,0Zm3.038-10.062,2.54-8.418h.2l2.54,8.418ZM-8.723,0c7.771,0,12.7-4.782,12.7-12.752S-.952-25.5-8.823-25.5h-9.713V0Zm-2.889-5.878V-19.626h2.441c3.985,0,6.177,1.544,6.177,6.874S-5.186-5.878-8.972-5.878ZM9.271,0H26.505V-5.579H16.195V-25.5H9.271ZM31.4,0h18.33V-5.579H38.323V-9.962h10.51v-5.579H38.323v-4.383H49.779V-25.5H31.4ZM69.068-17.533h6.625c-.025-5.006-3.885-8.318-10.062-8.318-6.064,0-10.348,3.263-10.311,8.119-.012,3.985,2.752,6.2,7.272,7.173l2.54.548c2.839.623,3.811,1.332,3.835,2.491C68.943-6.264,67.8-5.38,65.581-5.38c-2.652,0-4.221-1.245-4.334-3.586H54.673C54.7-2.565,59.031.3,65.681.3c6.463,0,10.336-2.789,10.361-7.82-.025-3.885-2.341-6.612-7.97-7.82L65.98-15.79c-2.416-.511-3.5-1.22-3.437-2.441.012-1.121.946-1.943,3.088-1.943C67.873-20.173,68.931-19.19,69.068-17.533Zm25.465,0h6.625c-.025-5.006-3.885-8.318-10.062-8.318-6.064,0-10.348,3.263-10.311,8.119-.012,3.985,2.752,6.2,7.272,7.173l2.54.548c2.839.623,3.811,1.332,3.835,2.491-.025,1.258-1.171,2.142-3.387,2.142-2.652,0-4.221-1.245-4.334-3.586H80.138C80.163-2.565,84.5.3,91.146.3c6.463,0,10.336-2.789,10.361-7.82-.025-3.885-2.341-6.612-7.97-7.82l-2.092-.448c-2.416-.511-3.5-1.22-3.437-2.441.012-1.121.946-1.943,3.088-1.943C93.338-20.173,94.4-19.19,94.533-17.533Z" transform="translate(-537.85 3012.22)" fill="#d20a11"/>
          </g>
        </g>
        <g id="Group_148" data-name="Group 148" transform="translate(36 -20) rotate(-90)">
          <g id="Group_147" data-name="Group 147">
            <path id="Path_274" data-name="Path 274" d="M-24.394,0l1.469-4.881h8.418L-13.038,0h7.472l-8.418-25.5h-9.464L-31.866,0Zm3.038-10.062,2.54-8.418h.2l2.54,8.418ZM-1.021,0H5.9V-7.571H9.738c5.815,0,9.713-3.425,9.713-8.916,0-5.429-3.8-9.016-9.464-9.016H-1.021ZM5.9-12.951v-7.023H8.343c2.428,0,3.885,1.3,3.885,3.487s-1.457,3.537-3.885,3.537ZM31.019-25.5H24.1V0h6.924Z" transform="translate(-537.85 3065.7)" fill="#d20a11"/>
          </g>
        </g>
      </g>
      <g id="Group_200" data-name="Group 200" transform="translate(-4 15)">
        <g transform="matrix(1, 0, 0, 1, 10, -15)" filter="url(#Rectangle_31)">
          <rect id="Rectangle_31-2" data-name="Rectangle 31" width="422" height="116" rx="8" transform="translate(205 194)" fill="#fff"/>
        </g>
        <g id="Group_150" data-name="Group 150" transform="translate(35.578 -18.326)">
          <g id="Group_149" data-name="Group 149">
            <path id="Path_267" data-name="Path 267" d="M14.74,0C24.914,0,31.077-6.294,31.077-16.729c0-10.4-6.163-16.664-16.24-16.664H2.9V0ZM9.962-6.049V-27.344h4.5c6.261,0,9.571,3.2,9.571,10.615,0,7.451-3.31,10.68-9.587,10.68ZM43.306.473c3.7,0,6.1-1.614,7.321-3.946h.2V0H57.41V-16.892c0-5.968-5.055-8.479-10.631-8.479-6,0-9.946,2.87-10.908,7.435l6.424.522c.473-1.663,1.957-2.886,4.451-2.886,2.364,0,3.718,1.19,3.718,3.245v.1c0,1.614-1.712,1.826-6.065,2.25-4.957.457-9.408,2.12-9.408,7.712C34.991-2.038,38.529.473,43.306.473ZM45.3-4.321c-2.136,0-3.669-.995-3.669-2.9,0-1.957,1.614-2.919,4.06-3.261,1.516-.212,3.995-.571,4.826-1.125v2.658C50.513-6.326,48.344-4.321,45.3-4.321ZM76.128-25.045H71.416v-6H64.47v6H61.046v5.218H64.47V-6.783C64.438-1.875,67.78.554,72.818.342A13.511,13.511,0,0,0,76.585-.31L75.492-5.478a9.49,9.49,0,0,1-1.728.228c-1.386,0-2.348-.522-2.348-2.446V-19.827h4.712ZM87.786.473c3.7,0,6.1-1.614,7.321-3.946h.2V0h6.587V-16.892c0-5.968-5.055-8.479-10.631-8.479-6,0-9.946,2.87-10.908,7.435l6.424.522c.473-1.663,1.957-2.886,4.451-2.886,2.364,0,3.718,1.19,3.718,3.245v.1c0,1.614-1.712,1.826-6.065,2.25-4.957.457-9.408,2.12-9.408,7.712C79.471-2.038,83.009.473,87.786.473Zm1.989-4.794c-2.136,0-3.669-.995-3.669-2.9,0-1.957,1.614-2.919,4.06-3.261,1.516-.212,3.995-.571,4.826-1.125v2.658C94.993-6.326,92.825-4.321,89.776-4.321Zm46.4-19.468h6.767c-.1-5.951-4.989-10.06-12.424-10.06-7.321,0-12.685,4.044-12.653,10.109-.016,4.924,3.457,7.745,9.1,9.1l3.636.913c3.636.88,5.658,1.924,5.674,4.174-.016,2.446-2.332,4.109-5.919,4.109-3.669,0-6.31-1.7-6.538-5.038h-6.832C117.168-3.261,122.337.473,130.44.473c8.153,0,12.946-3.9,12.962-10.011-.016-5.56-4.207-8.511-10.011-9.816l-3-.717c-2.9-.669-5.332-1.745-5.283-4.141,0-2.152,1.908-3.734,5.364-3.734C133.848-27.947,135.919-26.414,136.18-23.789ZM159.317.489c7.6,0,12.327-5.2,12.327-12.914,0-7.761-4.728-12.946-12.327-12.946S146.99-20.186,146.99-12.424C146.99-4.712,151.718.489,159.317.489Zm.033-5.381c-3.506,0-5.3-3.212-5.3-7.582s1.794-7.6,5.3-7.6c3.44,0,5.234,3.228,5.234,7.6S162.79-4.892,159.349-4.892Zm32.887-5.772a4.717,4.717,0,0,1-4.777,5.12c-2.625,0-4.321-1.842-4.337-4.794V-25.045h-6.946V-9.1c.016,5.854,3.44,9.424,8.479,9.424a7.687,7.687,0,0,0,7.6-4.875h.261V0h6.669V-25.045h-6.946ZM204.726,0h6.946V-14.169a5.057,5.057,0,0,1,5.315-5.2,11.683,11.683,0,0,1,2.935.375v-6.163a10.425,10.425,0,0,0-2.185-.245,6.084,6.084,0,0,0-6.017,4.728h-.261v-4.37h-6.734Zm28.909.489c6.669,0,10.859-3.913,11.185-9.669h-6.555c-.408,2.674-2.169,4.174-4.549,4.174-3.245,0-5.348-2.723-5.348-7.517,0-4.728,2.12-7.435,5.348-7.435a4.464,4.464,0,0,1,4.549,4.174h6.555c-.293-5.788-4.68-9.587-11.218-9.587-7.6,0-12.294,5.267-12.294,12.946C221.308-4.81,225.923.489,233.635.489Zm27.066,0c6.2,0,10.37-3.016,11.348-7.663L265.625-7.6c-.7,1.908-2.495,2.9-4.81,2.9-3.473,0-5.674-2.3-5.674-6.033v-.016H272.2v-1.908c0-8.511-5.152-12.718-11.772-12.718-7.37,0-12.147,5.234-12.147,12.962C248.277-4.468,252.989.489,260.7.489Zm-5.56-15.539a5.29,5.29,0,0,1,5.4-5.136,4.936,4.936,0,0,1,5.12,5.136Zm46.7-18.343H295.2l-8.267,5.234V-21.9l7.647-4.794h.2V0h7.06Z" transform="translate(237.422 272.326)"/>
          </g>
        </g>
      </g>
      <g id="Group_201" data-name="Group 201" transform="translate(-4 24)">
        <g transform="matrix(1, 0, 0, 1, 10, -24)" filter="url(#Rectangle_30)">
          <rect id="Rectangle_30-2" data-name="Rectangle 30" width="422" height="116" rx="8" transform="translate(205 376)" fill="#fff"/>
        </g>
        <g id="Group_152" data-name="Group 152" transform="translate(36.472 -17.803)">
          <g id="Group_151" data-name="Group 151">
            <path id="Path_266" data-name="Path 266" d="M14.74,0C24.914,0,31.077-6.294,31.077-16.729c0-10.4-6.163-16.664-16.24-16.664H2.9V0ZM9.962-6.049V-27.344h4.5c6.261,0,9.571,3.2,9.571,10.615,0,7.451-3.31,10.68-9.587,10.68ZM43.306.473c3.7,0,6.1-1.614,7.321-3.946h.2V0H57.41V-16.892c0-5.968-5.055-8.479-10.631-8.479-6,0-9.946,2.87-10.908,7.435l6.424.522c.473-1.663,1.957-2.886,4.451-2.886,2.364,0,3.718,1.19,3.718,3.245v.1c0,1.614-1.712,1.826-6.065,2.25-4.957.457-9.408,2.12-9.408,7.712C34.991-2.038,38.529.473,43.306.473ZM45.3-4.321c-2.136,0-3.669-.995-3.669-2.9,0-1.957,1.614-2.919,4.06-3.261,1.516-.212,3.995-.571,4.826-1.125v2.658C50.513-6.326,48.344-4.321,45.3-4.321ZM76.128-25.045H71.416v-6H64.47v6H61.046v5.218H64.47V-6.783C64.438-1.875,67.78.554,72.818.342A13.511,13.511,0,0,0,76.585-.31L75.492-5.478a9.49,9.49,0,0,1-1.728.228c-1.386,0-2.348-.522-2.348-2.446V-19.827h4.712ZM87.786.473c3.7,0,6.1-1.614,7.321-3.946h.2V0h6.587V-16.892c0-5.968-5.055-8.479-10.631-8.479-6,0-9.946,2.87-10.908,7.435l6.424.522c.473-1.663,1.957-2.886,4.451-2.886,2.364,0,3.718,1.19,3.718,3.245v.1c0,1.614-1.712,1.826-6.065,2.25-4.957.457-9.408,2.12-9.408,7.712C79.471-2.038,83.009.473,87.786.473Zm1.989-4.794c-2.136,0-3.669-.995-3.669-2.9,0-1.957,1.614-2.919,4.06-3.261,1.516-.212,3.995-.571,4.826-1.125v2.658C94.993-6.326,92.825-4.321,89.776-4.321Zm46.4-19.468h6.767c-.1-5.951-4.989-10.06-12.424-10.06-7.321,0-12.685,4.044-12.653,10.109-.016,4.924,3.457,7.745,9.1,9.1l3.636.913c3.636.88,5.658,1.924,5.674,4.174-.016,2.446-2.332,4.109-5.919,4.109-3.669,0-6.31-1.7-6.538-5.038h-6.832C117.168-3.261,122.337.473,130.44.473c8.153,0,12.946-3.9,12.962-10.011-.016-5.56-4.207-8.511-10.011-9.816l-3-.717c-2.9-.669-5.332-1.745-5.283-4.141,0-2.152,1.908-3.734,5.364-3.734C133.848-27.947,135.919-26.414,136.18-23.789ZM159.317.489c7.6,0,12.327-5.2,12.327-12.914,0-7.761-4.728-12.946-12.327-12.946S146.99-20.186,146.99-12.424C146.99-4.712,151.718.489,159.317.489Zm.033-5.381c-3.506,0-5.3-3.212-5.3-7.582s1.794-7.6,5.3-7.6c3.44,0,5.234,3.228,5.234,7.6S162.79-4.892,159.349-4.892Zm32.887-5.772a4.717,4.717,0,0,1-4.777,5.12c-2.625,0-4.321-1.842-4.337-4.794V-25.045h-6.946V-9.1c.016,5.854,3.44,9.424,8.479,9.424a7.687,7.687,0,0,0,7.6-4.875h.261V0h6.669V-25.045h-6.946ZM204.726,0h6.946V-14.169a5.057,5.057,0,0,1,5.315-5.2,11.683,11.683,0,0,1,2.935.375v-6.163a10.425,10.425,0,0,0-2.185-.245,6.084,6.084,0,0,0-6.017,4.728h-.261v-4.37h-6.734Zm28.909.489c6.669,0,10.859-3.913,11.185-9.669h-6.555c-.408,2.674-2.169,4.174-4.549,4.174-3.245,0-5.348-2.723-5.348-7.517,0-4.728,2.12-7.435,5.348-7.435a4.464,4.464,0,0,1,4.549,4.174h6.555c-.293-5.788-4.68-9.587-11.218-9.587-7.6,0-12.294,5.267-12.294,12.946C221.308-4.81,225.923.489,233.635.489Zm27.066,0c6.2,0,10.37-3.016,11.348-7.663L265.625-7.6c-.7,1.908-2.495,2.9-4.81,2.9-3.473,0-5.674-2.3-5.674-6.033v-.016H272.2v-1.908c0-8.511-5.152-12.718-11.772-12.718-7.37,0-12.147,5.234-12.147,12.962C248.277-4.468,252.989.489,260.7.489Zm-5.56-15.539a5.29,5.29,0,0,1,5.4-5.136,4.936,4.936,0,0,1,5.12,5.136ZM287.311,0h23.805V-5.772H297.094V-6l4.875-4.777c6.864-6.261,8.707-9.392,8.707-13.191,0-5.788-4.728-9.881-11.886-9.881-7.011,0-11.821,4.19-11.8,10.745h6.7a4.753,4.753,0,0,1,5.055-5.152c2.935,0,5.12,1.826,5.12,4.761,0,2.658-1.63,4.484-4.663,7.4L287.311-5.087Z" transform="translate(232.528 444.803)"/>
          </g>
        </g>
      </g>
      <g id="Group_202" data-name="Group 202" transform="translate(-4 4)">
        <g transform="matrix(1, 0, 0, 1, 10, -4)" filter="url(#Rectangle_29)">
          <rect id="Rectangle_29-2" data-name="Rectangle 29" width="422" height="116" rx="8" transform="translate(205 557)" fill="#fff"/>
        </g>
        <g id="Group_154" data-name="Group 154" transform="translate(36.653 -16.873)">
          <g id="Group_153" data-name="Group 153">
            <path id="Path_268" data-name="Path 268" d="M14.74,0C24.914,0,31.077-6.294,31.077-16.729c0-10.4-6.163-16.664-16.24-16.664H2.9V0ZM9.962-6.049V-27.344h4.5c6.261,0,9.571,3.2,9.571,10.615,0,7.451-3.31,10.68-9.587,10.68ZM43.306.473c3.7,0,6.1-1.614,7.321-3.946h.2V0H57.41V-16.892c0-5.968-5.055-8.479-10.631-8.479-6,0-9.946,2.87-10.908,7.435l6.424.522c.473-1.663,1.957-2.886,4.451-2.886,2.364,0,3.718,1.19,3.718,3.245v.1c0,1.614-1.712,1.826-6.065,2.25-4.957.457-9.408,2.12-9.408,7.712C34.991-2.038,38.529.473,43.306.473ZM45.3-4.321c-2.136,0-3.669-.995-3.669-2.9,0-1.957,1.614-2.919,4.06-3.261,1.516-.212,3.995-.571,4.826-1.125v2.658C50.513-6.326,48.344-4.321,45.3-4.321ZM76.128-25.045H71.416v-6H64.47v6H61.046v5.218H64.47V-6.783C64.438-1.875,67.78.554,72.818.342A13.511,13.511,0,0,0,76.585-.31L75.492-5.478a9.49,9.49,0,0,1-1.728.228c-1.386,0-2.348-.522-2.348-2.446V-19.827h4.712ZM87.786.473c3.7,0,6.1-1.614,7.321-3.946h.2V0h6.587V-16.892c0-5.968-5.055-8.479-10.631-8.479-6,0-9.946,2.87-10.908,7.435l6.424.522c.473-1.663,1.957-2.886,4.451-2.886,2.364,0,3.718,1.19,3.718,3.245v.1c0,1.614-1.712,1.826-6.065,2.25-4.957.457-9.408,2.12-9.408,7.712C79.471-2.038,83.009.473,87.786.473Zm1.989-4.794c-2.136,0-3.669-.995-3.669-2.9,0-1.957,1.614-2.919,4.06-3.261,1.516-.212,3.995-.571,4.826-1.125v2.658C94.993-6.326,92.825-4.321,89.776-4.321Zm46.4-19.468h6.767c-.1-5.951-4.989-10.06-12.424-10.06-7.321,0-12.685,4.044-12.653,10.109-.016,4.924,3.457,7.745,9.1,9.1l3.636.913c3.636.88,5.658,1.924,5.674,4.174-.016,2.446-2.332,4.109-5.919,4.109-3.669,0-6.31-1.7-6.538-5.038h-6.832C117.168-3.261,122.337.473,130.44.473c8.153,0,12.946-3.9,12.962-10.011-.016-5.56-4.207-8.511-10.011-9.816l-3-.717c-2.9-.669-5.332-1.745-5.283-4.141,0-2.152,1.908-3.734,5.364-3.734C133.848-27.947,135.919-26.414,136.18-23.789ZM159.317.489c7.6,0,12.327-5.2,12.327-12.914,0-7.761-4.728-12.946-12.327-12.946S146.99-20.186,146.99-12.424C146.99-4.712,151.718.489,159.317.489Zm.033-5.381c-3.506,0-5.3-3.212-5.3-7.582s1.794-7.6,5.3-7.6c3.44,0,5.234,3.228,5.234,7.6S162.79-4.892,159.349-4.892Zm32.887-5.772a4.717,4.717,0,0,1-4.777,5.12c-2.625,0-4.321-1.842-4.337-4.794V-25.045h-6.946V-9.1c.016,5.854,3.44,9.424,8.479,9.424a7.687,7.687,0,0,0,7.6-4.875h.261V0h6.669V-25.045h-6.946ZM204.726,0h6.946V-14.169a5.057,5.057,0,0,1,5.315-5.2,11.683,11.683,0,0,1,2.935.375v-6.163a10.425,10.425,0,0,0-2.185-.245,6.084,6.084,0,0,0-6.017,4.728h-.261v-4.37h-6.734Zm28.909.489c6.669,0,10.859-3.913,11.185-9.669h-6.555c-.408,2.674-2.169,4.174-4.549,4.174-3.245,0-5.348-2.723-5.348-7.517,0-4.728,2.12-7.435,5.348-7.435a4.464,4.464,0,0,1,4.549,4.174h6.555c-.293-5.788-4.68-9.587-11.218-9.587-7.6,0-12.294,5.267-12.294,12.946C221.308-4.81,225.923.489,233.635.489Zm27.066,0c6.2,0,10.37-3.016,11.348-7.663L265.625-7.6c-.7,1.908-2.495,2.9-4.81,2.9-3.473,0-5.674-2.3-5.674-6.033v-.016H272.2v-1.908c0-8.511-5.152-12.718-11.772-12.718-7.37,0-12.147,5.234-12.147,12.962C248.277-4.468,252.989.489,260.7.489Zm-5.56-15.539a5.29,5.29,0,0,1,5.4-5.136,4.936,4.936,0,0,1,5.12,5.136ZM299.654.457c7.5,0,12.865-4.125,12.848-9.832.016-4.158-2.625-7.125-7.533-7.745v-.261c3.734-.669,6.31-3.31,6.294-7.06.016-5.267-4.6-9.408-11.511-9.408-6.848,0-12,4.011-12.1,9.783h6.767c.082-2.544,2.413-4.19,5.3-4.19,2.853,0,4.761,1.728,4.745,4.239.016,2.625-2.217,4.4-5.43,4.4H295.92v5.185h3.114c3.783,0,6.147,1.891,6.131,4.582.016,2.658-2.266,4.484-5.495,4.484-3.114,0-5.446-1.631-5.576-4.076h-7.109C287.1-3.6,292.317.457,299.654.457Z" transform="translate(232.347 644.873)"/>
          </g>
        </g>
      </g>
      <g id="Group_203" data-name="Group 203" transform="translate(-4 15)">
        <g transform="matrix(1, 0, 0, 1, 10, -15)" filter="url(#Rectangle_28)">
          <rect id="Rectangle_28-2" data-name="Rectangle 28" width="422" height="116" rx="8" transform="translate(205 739)" fill="#fff"/>
        </g>
        <g id="Group_156" data-name="Group 156" transform="translate(35.164 -18.49)">
          <g id="Group_155" data-name="Group 155">
            <path id="Path_265" data-name="Path 265" d="M14.74,0C24.914,0,31.077-6.294,31.077-16.729c0-10.4-6.163-16.664-16.24-16.664H2.9V0ZM9.962-6.049V-27.344h4.5c6.261,0,9.571,3.2,9.571,10.615,0,7.451-3.31,10.68-9.587,10.68ZM43.306.473c3.7,0,6.1-1.614,7.321-3.946h.2V0H57.41V-16.892c0-5.968-5.055-8.479-10.631-8.479-6,0-9.946,2.87-10.908,7.435l6.424.522c.473-1.663,1.957-2.886,4.451-2.886,2.364,0,3.718,1.19,3.718,3.245v.1c0,1.614-1.712,1.826-6.065,2.25-4.957.457-9.408,2.12-9.408,7.712C34.991-2.038,38.529.473,43.306.473ZM45.3-4.321c-2.136,0-3.669-.995-3.669-2.9,0-1.957,1.614-2.919,4.06-3.261,1.516-.212,3.995-.571,4.826-1.125v2.658C50.513-6.326,48.344-4.321,45.3-4.321ZM76.128-25.045H71.416v-6H64.47v6H61.046v5.218H64.47V-6.783C64.438-1.875,67.78.554,72.818.342A13.511,13.511,0,0,0,76.585-.31L75.492-5.478a9.49,9.49,0,0,1-1.728.228c-1.386,0-2.348-.522-2.348-2.446V-19.827h4.712ZM87.786.473c3.7,0,6.1-1.614,7.321-3.946h.2V0h6.587V-16.892c0-5.968-5.055-8.479-10.631-8.479-6,0-9.946,2.87-10.908,7.435l6.424.522c.473-1.663,1.957-2.886,4.451-2.886,2.364,0,3.718,1.19,3.718,3.245v.1c0,1.614-1.712,1.826-6.065,2.25-4.957.457-9.408,2.12-9.408,7.712C79.471-2.038,83.009.473,87.786.473Zm1.989-4.794c-2.136,0-3.669-.995-3.669-2.9,0-1.957,1.614-2.919,4.06-3.261,1.516-.212,3.995-.571,4.826-1.125v2.658C94.993-6.326,92.825-4.321,89.776-4.321Zm46.4-19.468h6.767c-.1-5.951-4.989-10.06-12.424-10.06-7.321,0-12.685,4.044-12.653,10.109-.016,4.924,3.457,7.745,9.1,9.1l3.636.913c3.636.88,5.658,1.924,5.674,4.174-.016,2.446-2.332,4.109-5.919,4.109-3.669,0-6.31-1.7-6.538-5.038h-6.832C117.168-3.261,122.337.473,130.44.473c8.153,0,12.946-3.9,12.962-10.011-.016-5.56-4.207-8.511-10.011-9.816l-3-.717c-2.9-.669-5.332-1.745-5.283-4.141,0-2.152,1.908-3.734,5.364-3.734C133.848-27.947,135.919-26.414,136.18-23.789ZM159.317.489c7.6,0,12.327-5.2,12.327-12.914,0-7.761-4.728-12.946-12.327-12.946S146.99-20.186,146.99-12.424C146.99-4.712,151.718.489,159.317.489Zm.033-5.381c-3.506,0-5.3-3.212-5.3-7.582s1.794-7.6,5.3-7.6c3.44,0,5.234,3.228,5.234,7.6S162.79-4.892,159.349-4.892Zm32.887-5.772a4.717,4.717,0,0,1-4.777,5.12c-2.625,0-4.321-1.842-4.337-4.794V-25.045h-6.946V-9.1c.016,5.854,3.44,9.424,8.479,9.424a7.687,7.687,0,0,0,7.6-4.875h.261V0h6.669V-25.045h-6.946ZM204.726,0h6.946V-14.169a5.057,5.057,0,0,1,5.315-5.2,11.683,11.683,0,0,1,2.935.375v-6.163a10.425,10.425,0,0,0-2.185-.245,6.084,6.084,0,0,0-6.017,4.728h-.261v-4.37h-6.734Zm28.909.489c6.669,0,10.859-3.913,11.185-9.669h-6.555c-.408,2.674-2.169,4.174-4.549,4.174-3.245,0-5.348-2.723-5.348-7.517,0-4.728,2.12-7.435,5.348-7.435a4.464,4.464,0,0,1,4.549,4.174h6.555c-.293-5.788-4.68-9.587-11.218-9.587-7.6,0-12.294,5.267-12.294,12.946C221.308-4.81,225.923.489,233.635.489Zm27.066,0c6.2,0,10.37-3.016,11.348-7.663L265.625-7.6c-.7,1.908-2.495,2.9-4.81,2.9-3.473,0-5.674-2.3-5.674-6.033v-.016H272.2v-1.908c0-8.511-5.152-12.718-11.772-12.718-7.37,0-12.147,5.234-12.147,12.962C248.277-4.468,252.989.489,260.7.489Zm-5.56-15.539a5.29,5.29,0,0,1,5.4-5.136,4.936,4.936,0,0,1,5.12,5.136Zm31.664,9.18h16.028V0h6.75V-5.87h4.141v-5.658h-4.141V-33.393h-8.837L286.806-11.43Zm16.158-5.658h-9.049v-.261L302.7-25.7h.261Z" transform="translate(232.836 817.49)"/>
          </g>
        </g>
      </g>
      <g id="Group_221" data-name="Group 221" transform="translate(-5.06 25.278)">
        <g id="Group_100" data-name="Group 100" transform="translate(2184.3 556.596) rotate(138.383)">
          <path id="Path_146" data-name="Path 146" d="M-249.189,94.7c102.571,91.121,182.233-91.453,285.178,0" fill="none" stroke="#000" stroke-width="6" stroke-dasharray="10 10"/>
        </g>
        <g id="Group_126" data-name="Group 126" transform="translate(2099.7 524.5) rotate(180)">
          <path id="Path_172" data-name="Path 172" d="M0,29.6A14.8,14.8,0,0,1-14.8,14.8,14.8,14.8,0,0,1,0,0,14.8,14.8,0,0,1,0,29.6"/>
        </g>
        <g id="Group_127" data-name="Group 127" transform="translate(2307.7 335.3) rotate(180)">
          <path id="Path_173" data-name="Path 173" d="M0,29.6A14.8,14.8,0,0,1-14.8,14.8,14.8,14.8,0,0,1,0,0,14.8,14.8,0,0,1,0,29.6"/>
        </g>
        <g id="Group_129" data-name="Group 129" transform="translate(2307.7 713.8) rotate(180)">
          <path id="Path_175" data-name="Path 175" d="M0,29.6A14.8,14.8,0,0,1-14.8,14.8,14.8,14.8,0,0,1,0,0,14.8,14.8,0,0,1,0,29.6"/>
        </g>
        <g id="Group_157" data-name="Group 157" transform="translate(2184.8 462.704) rotate(-138.383)">
          <path id="Path_181" data-name="Path 181" d="M-249.189-94.7c103.02-91.519,182.607,91.121,285.178,0" fill="none" stroke="#000" stroke-width="6" stroke-dasharray="10 10"/>
        </g>
      </g>
      <g id="Group_222" data-name="Group 222" transform="translate(2.646 25.236)">
        <g id="Group_128" data-name="Group 128" transform="translate(2545.9 335.1) rotate(180)">
          <path id="Path_174" data-name="Path 174" d="M0,29.6A14.8,14.8,0,0,1-14.8,14.8,14.8,14.8,0,0,1,0,0,14.8,14.8,0,0,1,14.8,14.8,14.8,14.8,0,0,1,0,29.6"/>
        </g>
        <g id="Group_130" data-name="Group 130" transform="translate(2545.6 713.901) rotate(180)">
          <path id="Path_176" data-name="Path 176" d="M0,29.6A14.8,14.8,0,0,1-14.8,14.8,14.8,14.8,0,0,1,0,0,14.8,14.8,0,0,1,14.8,14.8,14.8,14.8,0,0,1,0,29.6"/>
        </g>
        <g id="Group_131" data-name="Group 131" transform="translate(2747.7 524.5) rotate(180)">
          <path id="Path_177" data-name="Path 177" d="M0,29.6A14.8,14.8,0,0,1-14.8,14.8,14.8,14.8,0,0,1,0,0,14.8,14.8,0,0,1,0,29.6"/>
        </g>
        <g id="Group_158" data-name="Group 158" transform="translate(2635.5 273.404) rotate(-138.383)">
          <path id="Path_182" data-name="Path 182" d="M-249.189-94.7c103.02-91.52,182.607,91.121,285.178,0" fill="none" stroke="#000" stroke-width="6" stroke-dasharray="10 10"/>
        </g>
        <g id="Group_159" data-name="Group 159" transform="translate(2634.9 745.995) rotate(138.383)">
          <path id="Path_183" data-name="Path 183" d="M-249.187,94.7c102.571,91.119,182.232-91.452,285.176,0" fill="none" stroke="#000" stroke-width="6" stroke-dasharray="10 10"/>
        </g>
      </g>
      <g id="Group_223" data-name="Group 223" transform="translate(2.787 25.15)">
        <g id="Group_160" data-name="Group 160" transform="translate(2836.8 637.5)">
          <path id="Path_184" data-name="Path 184" d="M0,4.6v-6L3.2-3.9A8.93,8.93,0,0,0-.3-5.7a17.542,17.542,0,0,0-4.8-.6c-3.5,0-6.2.8-8.1,2.3A7.469,7.469,0,0,0-16,2.2a7.6,7.6,0,0,0,2.8,6.2c1.9,1.5,4.6,2.3,8.1,2.3S1.1,9.9,3,8.4A7.469,7.469,0,0,0,5.8,2.2,11.1,11.1,0,0,0,5.6.4Zm-5.1-18A21.417,21.417,0,0,1,2.8-12,14.146,14.146,0,0,1,8.4-8.1l6-4.8v6.6L11.1-3.6a16.275,16.275,0,0,1,1,5.9,16.376,16.376,0,0,1-2,8,13.92,13.92,0,0,1-5.9,5.6A19.361,19.361,0,0,1-5.1,18a19.357,19.357,0,0,1-9.3-2.1,13.657,13.657,0,0,1-5.8-5.6,16.365,16.365,0,0,1-2-8,16.371,16.371,0,0,1,2-8,14.247,14.247,0,0,1,5.8-5.6,19.065,19.065,0,0,1,9.3-2.1"/>
        </g>
        <g id="Group_161" data-name="Group 161" transform="translate(2837.7 612.199)">
          <path id="Path_185" data-name="Path 185" d="M0-9.3H-14.4v-6.9h25v6.7H6.1v.3A7.438,7.438,0,0,1,9.6-6.4a8.211,8.211,0,0,1,1.3,4.8A7.779,7.779,0,0,1,8.4,4.5c-1.7,1.6-4,2.3-6.9,2.4H-14.4V-.2H.3A4.958,4.958,0,0,0,3.8-1.4,3.868,3.868,0,0,0,5.1-4.5,4.6,4.6,0,0,0,3.8-7.8,4.62,4.62,0,0,0,0-9.3"/>
        </g>
        <g id="Group_162" data-name="Group 162" transform="translate(2833.4 574.4)">
          <path id="Path_186" data-name="Path 186" d="M0,10.1V-.4A5.308,5.308,0,0,0-3.7,1,4.823,4.823,0,0,0-5.2,4.7,5.2,5.2,0,0,0-3.7,8.5,5.061,5.061,0,0,0,0,10.1M15.5,4.6a12.413,12.413,0,0,1-1.6,6.6,9.876,9.876,0,0,1-4.5,4.3A14.648,14.648,0,0,1,2.5,17a14.8,14.8,0,0,1-6.8-1.5,10.763,10.763,0,0,1-4.5-4.2,12.184,12.184,0,0,1-1.6-6.4A13.268,13.268,0,0,1-9-1.1,9.475,9.475,0,0,1-4.8-5.3,14.911,14.911,0,0,1,2.3-6.9H4.2V10.2A6.181,6.181,0,0,0,8.6,8.7a5.282,5.282,0,0,0,1.6-4.1,5.559,5.559,0,0,0-.7-3A4.413,4.413,0,0,0,7.3-.2l.4-6.4a8.92,8.92,0,0,1,5.6,3.7c1.5,1.8,2.2,4.4,2.2,7.5"/>
        </g>
        <g id="Group_163" data-name="Group 163" transform="translate(2848.4 547.8)">
          <path id="Path_187" data-name="Path 187" d="M.1,15.2H-25V8.5h4.4V8.2a6.37,6.37,0,0,1-3.5-2.3,6.075,6.075,0,0,1-1.2-3.7A15.117,15.117,0,0,1-25.1,0h6.2a10.435,10.435,0,0,0-.3,1.4A9.151,9.151,0,0,0-19.3,3a5.556,5.556,0,0,0,1.4,3.8,5.044,5.044,0,0,0,3.8,1.5H.1Z"/>
        </g>
        <g id="Group_164" data-name="Group 164" transform="translate(2857.8 526.301)">
          <path id="Path_188" data-name="Path 188" d="M0,12.8a19.481,19.481,0,0,1-.2,2.5,7.381,7.381,0,0,1-.5,1.9l-5.2-1.6a5.827,5.827,0,0,0,.3-3.1c-.2-.9-.8-1.5-2-2l-1.1-.4-25.8,9V11.8l18.4-5.2V6.3L-34.5,1.1V-6.3L-6.7,3.4A11.224,11.224,0,0,1-1.8,6.7,9.433,9.433,0,0,1,0,12.8"/>
        </g>
        <g id="Group_165" data-name="Group 165" transform="translate(2831.9 487.5)">
          <path id="Path_189" data-name="Path 189" d="M0,11.3V6.4A5.757,5.757,0,0,0-1.6,1.9,5.676,5.676,0,0,0-5.6.4a5.354,5.354,0,0,0-4,1.5,6.211,6.211,0,0,0-1.5,4.6v4.8Zm16.5,6.9H-16.9V5a14.5,14.5,0,0,1,1.4-6.5,9.874,9.874,0,0,1,4-4.1A12.531,12.531,0,0,1-5.6-7,12.532,12.532,0,0,1,.3-5.6a10.518,10.518,0,0,1,4,4.1A13.423,13.423,0,0,1,5.7,5.1V11H16.5v7.2Z"/>
        </g>
        <g id="Group_166" data-name="Group 166" transform="translate(2844.1 466)">
          <path id="Path_190" data-name="Path 190" d="M0,1.6A5.485,5.485,0,0,0-1.3-2.2,4.271,4.271,0,0,0-4.6-3.7H-7.3a5.889,5.889,0,0,1,.5,1.3c.1.6.3,1.2.4,1.8s.2,1.2.3,1.7A7.064,7.064,0,0,0-5.1,4,2.656,2.656,0,0,0-2.9,5.1a2.459,2.459,0,0,0,2.2-1A4.145,4.145,0,0,0,0,1.6m4.8,2a9.178,9.178,0,0,1-1.9,6A6.709,6.709,0,0,1-2.7,12a6.6,6.6,0,0,1-4.4-1.3A7.191,7.191,0,0,1-9.4,7.2a22.061,22.061,0,0,1-1-4.6,26.5,26.5,0,0,0-.7-4.7,1.6,1.6,0,0,0-1.6-1.4h-.1a2.961,2.961,0,0,0-2.4,1A3.792,3.792,0,0,0-16,.2a5.329,5.329,0,0,0,.8,3,4.078,4.078,0,0,0,2.1,1.5l-.5,6.4A8.492,8.492,0,0,1-19,7.5,12.6,12.6,0,0,1-21,.2,14.583,14.583,0,0,1-20.1-5a9.129,9.129,0,0,1,2.7-3.9,7.541,7.541,0,0,1,4.9-1.5H4.4v6.6H.9v.2A6.62,6.62,0,0,1,3.7-.9,8.814,8.814,0,0,1,4.8,3.6"/>
        </g>
        <g id="Group_167" data-name="Group 167" transform="translate(2848.4 434.9)">
          <path id="Path_191" data-name="Path 191" d="M.1,15.2H-25V8.5h4.4V8.2a6.37,6.37,0,0,1-3.5-2.3,6.075,6.075,0,0,1-1.2-3.7A15.117,15.117,0,0,1-25.1,0h6.2a10.435,10.435,0,0,0-.3,1.4A9.151,9.151,0,0,0-19.3,3a5.556,5.556,0,0,0,1.4,3.8,5.044,5.044,0,0,0,3.8,1.5H.1Z"/>
        </g>
        <g id="Group_168" data-name="Group 168" transform="translate(2830.5 432)">
          <path id="Path_192" data-name="Path 192" d="M0-21.5l.4,6.4a3.93,3.93,0,0,0-2.1,1.3,4.369,4.369,0,0,0-.9,2.9,4.526,4.526,0,0,0,.7,2.7A2.237,2.237,0,0,0-.1-7.1a1.8,1.8,0,0,0,1.5-.7,6.72,6.72,0,0,0,1-2.5l.9-4.5c1-4.8,3.2-7.2,6.8-7.2a7.14,7.14,0,0,1,4.3,1.4,9.444,9.444,0,0,1,2.9,4,15.015,15.015,0,0,1,1,5.8c0,3.3-.7,6-2.1,7.9A7.813,7.813,0,0,1,10.5.5l-.4-6.8a3.384,3.384,0,0,0,2.3-1.5,5.571,5.571,0,0,0,.8-3,4.99,4.99,0,0,0-.7-2.9,2.237,2.237,0,0,0-1.8-1.1c-1.2,0-2.1,1.1-2.5,3.2L7.3-7.3C6.3-2.5,3.9,0,.1-.1A6.753,6.753,0,0,1-5.6-3a12.779,12.779,0,0,1-2.1-7.7,12.61,12.61,0,0,1,2-7.5A8.373,8.373,0,0,1,0-21.5"/>
        </g>
        <g id="Group_169" data-name="Group 169" transform="translate(2833.4 389.6)">
          <path id="Path_193" data-name="Path 193" d="M0,10.1V-.4A5.308,5.308,0,0,0-3.7,1,4.823,4.823,0,0,0-5.2,4.7,5.2,5.2,0,0,0-3.7,8.5,5.477,5.477,0,0,0,0,10.1M15.5,4.6a12.413,12.413,0,0,1-1.6,6.6,9.876,9.876,0,0,1-4.5,4.3A14.648,14.648,0,0,1,2.5,17a14.8,14.8,0,0,1-6.8-1.5,10.763,10.763,0,0,1-4.5-4.2,12.184,12.184,0,0,1-1.6-6.4A13.268,13.268,0,0,1-9-1.1,9.475,9.475,0,0,1-4.8-5.3,14.911,14.911,0,0,1,2.3-6.9H4.2V10.2A6.181,6.181,0,0,0,8.6,8.7a5.282,5.282,0,0,0,1.6-4.1,5.559,5.559,0,0,0-.7-3A4.413,4.413,0,0,0,7.3-.2l.4-6.4a8.92,8.92,0,0,1,5.6,3.7c1.5,1.8,2.2,4.4,2.2,7.5"/>
        </g>
        <g id="Group_170" data-name="Group 170" transform="translate(2848.4 362.9)">
          <path id="Path_194" data-name="Path 194" d="M.1,15.2H-25V8.5h4.4V8.2a6.37,6.37,0,0,1-3.5-2.3,6.075,6.075,0,0,1-1.2-3.7A15.117,15.117,0,0,1-25.1,0h6.2a10.435,10.435,0,0,0-.3,1.4A9.151,9.151,0,0,0-19.3,3a5.556,5.556,0,0,0,1.4,3.8,5.044,5.044,0,0,0,3.8,1.5H.1Z"/>
        </g>
      </g>
      <g id="Group_209" data-name="Group 209" transform="translate(6.594 41.7)">
        <g id="Group_171" data-name="Group 171" transform="translate(1418.4 827.701)">
          <path id="Path_195" data-name="Path 195" d="M0,69.9H62.4V3.3A3.329,3.329,0,0,0,59.1,0H3.3A3.329,3.329,0,0,0,0,3.3Zm68.4,6H-6V3.3A9.347,9.347,0,0,1,3.3-6H59.1a9.347,9.347,0,0,1,9.3,9.3Z" fill="#d20a11"/>
        </g>
        <g id="Group_172" data-name="Group 172" transform="translate(36 720.1)">
          <path id="Path_196" data-name="Path 196" d="M1405.3,177.5h15.1V162.4h-15.1Zm21.1,6h-27.1V156.4h27.1Z" fill="#d20a11"/>
        </g>
        <g id="Group_173" data-name="Group 173" transform="translate(36 670.7)">
          <path id="Path_197" data-name="Path 197" d="M1394.2,197.8h6.3v-6.3h-6.3Zm12.3,6h-18.3V185.5h18.3Z" fill="#d20a11"/>
        </g>
        <g id="Group_174" data-name="Group 174" transform="translate(36 670.7)">
          <path id="Path_198" data-name="Path 198" d="M1425.1,197.8h6.3v-6.3h-6.3Zm12.3,6h-18.3V185.5h18.3Z" fill="#d20a11"/>
        </g>
        <g id="Group_175" data-name="Group 175" transform="translate(36 625.7)">
          <path id="Path_199" data-name="Path 199" d="M1394.2,220.3h6.3V214h-6.3Zm12.3,6h-18.3V208h18.3Z" fill="#d20a11"/>
        </g>
        <g id="Group_176" data-name="Group 176" transform="translate(36 625.7)">
          <path id="Path_200" data-name="Path 200" d="M1425.1,220.3h6.3V214h-6.3Zm12.3,6h-18.3V208h18.3Z" fill="#d20a11"/>
        </g>
      </g>
      <g id="Group_210" data-name="Group 210" transform="translate(6.594 41.7)">
        <g id="Group_177" data-name="Group 177" transform="translate(1571.6 857.099)">
          <path id="Path_201" data-name="Path 201" d="M0-26.4A13.293,13.293,0,0,0-13.3-13.1,13.294,13.294,0,0,0,0,.2,13.231,13.231,0,0,0,13.3-13.1,13.358,13.358,0,0,0,0-26.4M0,6.1A19.312,19.312,0,0,1-19.3-13.2,19.249,19.249,0,0,1,0-32.5,19.249,19.249,0,0,1,19.3-13.2,19.312,19.312,0,0,1,0,6.1" fill="#d20a11"/>
        </g>
        <g id="Group_178" data-name="Group 178" transform="translate(1540.9 862.5)">
          <path id="Path_202" data-name="Path 202" d="M0,30.5H61.5l-1-5.1C57.9,12,46.9,1.9,33.8.8c-.5,0-.9-.1-1.4-.1C17.8.1,4.7,10.3,1.3,24.9Zm68.7,6H-7.6l3.1-13C-.4,6.1,15.2-6,32.7-5.3c.5,0,1.1.1,1.6.1,15.8,1.3,29,13.4,32.1,29.4Z" fill="#d20a11"/>
        </g>
        <g id="Group_179" data-name="Group 179" transform="translate(1620.7 859.799)">
          <path id="Path_203" data-name="Path 203" d="M0-19.4A9.708,9.708,0,0,0-9.7-9.7,9.773,9.773,0,0,0,0,0,9.773,9.773,0,0,0,9.7-9.7,9.773,9.773,0,0,0,0-19.4M0,6A15.663,15.663,0,0,1-15.7-9.7,15.663,15.663,0,0,1,0-25.4,15.663,15.663,0,0,1,15.7-9.7,15.727,15.727,0,0,1,0,6" fill="#d20a11"/>
        </g>
        <g id="Group_180" data-name="Group 180" transform="translate(1651.2 859.5)">
          <path id="Path_204" data-name="Path 204" d="M0,34.3H-37.8v-6H-7.3l-.6-3.2A23.007,23.007,0,0,0-28.2,6.4c-.3,0-.7-.1-1-.1a23.065,23.065,0,0,0-16.5,6.1L-49.8,8A28.692,28.692,0,0,1-29,.3a5.647,5.647,0,0,1,1.3.1C-15,1.4-4.5,11.1-2,23.9Z" fill="#d20a11"/>
        </g>
      </g>
      <g id="Group_211" data-name="Group 211" transform="translate(6.594 41.7)">
        <g id="Group_181" data-name="Group 181" transform="translate(1728.9 890)">
          <path id="Path_205" data-name="Path 205" d="M0-44.5a9.233,9.233,0,0,0-4.8,1.4L-35.4-23.3A8.89,8.89,0,0,0-38-11l4.9,7.6A8.891,8.891,0,0,0-20.8-.8L9.8-20.6a8.89,8.89,0,0,0,2.6-12.3L7.5-40.5a8.96,8.96,0,0,0-7.5-4M-25.7,6.6A14.773,14.773,0,0,1-38.2-.2l-4.9-7.6A14.722,14.722,0,0,1-45.2-19a14.6,14.6,0,0,1,6.5-9.4L-8.1-48.2A14.724,14.724,0,0,1,3.1-50.3a14.6,14.6,0,0,1,9.4,6.5l4.9,7.6A14.862,14.862,0,0,1,13-15.6L-17.6,4.2a14.185,14.185,0,0,1-8.1,2.4" fill="#d20a11"/>
        </g>
        <g id="Group_182" data-name="Group 182" transform="translate(1766.9 880.7)">
          <path id="Path_206" data-name="Path 206" d="M0-44.7a9.233,9.233,0,0,0-4.8,1.4L-35.4-23.5A8.89,8.89,0,0,0-38-11.2l4.9,7.6A8.891,8.891,0,0,0-20.8-1L9.8-20.8a8.89,8.89,0,0,0,2.6-12.3L7.5-40.7a9.076,9.076,0,0,0-7.5-4M-25.6,6.5A14.775,14.775,0,0,1-38.1-.3L-43-7.9a14.727,14.727,0,0,1-2.1-11.2,14.605,14.605,0,0,1,6.5-9.4L-8-48.3A14.721,14.721,0,0,1,3.2-50.4a14.6,14.6,0,0,1,9.4,6.5l4.9,7.6a14.862,14.862,0,0,1-4.4,20.6L-17.5,4.1a15,15,0,0,1-8.1,2.4" fill="#d20a11"/>
        </g>
      </g>
      <g id="Group_212" data-name="Group 212" transform="translate(6.594 41.7)">
        <g id="Group_183" data-name="Group 183" transform="translate(1884.6 858.998)">
          <path id="Path_207" data-name="Path 207" d="M0,16.2l-2.8,5.9,6.3-1.8L30-1.8,26.5-5.9ZM-6.1,29.1a4.421,4.421,0,0,1-3.3-1.5A4.3,4.3,0,0,1-10,23l5.1-10.5L23.4-11.1a4.939,4.939,0,0,1,7,.6l4.8,5.7a4.941,4.941,0,0,1-.6,7L6.3,25.8-5,28.9a1.985,1.985,0,0,1-1.1.2" fill="#d20a11"/>
        </g>
        <g id="Group_184" data-name="Group 184" transform="translate(1890.7 825.7)">
          <path id="Path_208" data-name="Path 208" d="M0,73.3H-43.2a8.066,8.066,0,0,1-8.1-8.1V8.1A8.066,8.066,0,0,1-43.2,0H0A8.066,8.066,0,0,1,8.1,8.1V25.5h-6V8.1A2.112,2.112,0,0,0,0,6H-43.2a2.112,2.112,0,0,0-2.1,2.1V65.2a2.112,2.112,0,0,0,2.1,2.1H0a2.112,2.112,0,0,0,2.1-2.1V62.6h6v2.6A8.2,8.2,0,0,1,0,73.3" fill="#d20a11"/>
        </g>
        <g id="Group_185" data-name="Group 185" transform="translate(1883.7 838.9)">
          <path id="Path_209" data-name="Path 209" d="M0,6H-29.2a2.947,2.947,0,0,1-3-3,2.946,2.946,0,0,1,3-3H0A2.946,2.946,0,0,1,3,3,3.009,3.009,0,0,1,0,6" fill="#d20a11"/>
        </g>
        <g id="Group_186" data-name="Group 186" transform="translate(1883.7 850.7)">
          <path id="Path_210" data-name="Path 210" d="M0,6H-29.2a2.946,2.946,0,0,1-3-3,2.946,2.946,0,0,1,3-3H0A2.946,2.946,0,0,1,3,3,3.009,3.009,0,0,1,0,6" fill="#d20a11"/>
        </g>
        <g id="Group_187" data-name="Group 187" transform="translate(1872.9 863.1)">
          <path id="Path_211" data-name="Path 211" d="M0,6H-18.4a2.946,2.946,0,0,1-3-3,2.946,2.946,0,0,1,3-3H0A2.948,2.948,0,0,1,3,3,2.947,2.947,0,0,1,0,6" fill="#d20a11"/>
        </g>
      </g>
      <g id="Group_213" data-name="Group 213" transform="translate(6.594 41.7)">
        <g id="Group_188" data-name="Group 188" transform="translate(1991.2 893)">
          <path id="Path_212" data-name="Path 212" d="M0-53.1a1.367,1.367,0,0,0-1.4,1.4V-1.4A1.367,1.367,0,0,0,0,0H50.3a1.367,1.367,0,0,0,1.4-1.4V-51.7a1.367,1.367,0,0,0-1.4-1.4ZM50.3,6H0A7.383,7.383,0,0,1-7.4-1.4V-51.7A7.382,7.382,0,0,1,0-59.1H50.3a7.384,7.384,0,0,1,7.4,7.4V-1.4A7.449,7.449,0,0,1,50.3,6" fill="#d20a11"/>
        </g>
        <g id="Group_189" data-name="Group 189" transform="translate(2045.9 853.2)">
          <path id="Path_213" data-name="Path 213" d="M0,6H-59.1a2.946,2.946,0,0,1-3-3,2.946,2.946,0,0,1,3-3H0A2.947,2.947,0,0,1,3,3,3.009,3.009,0,0,1,0,6" fill="#d20a11"/>
        </g>
        <g id="Group_190" data-name="Group 190" transform="translate(1999.8 823.5)">
          <path id="Path_214" data-name="Path 214" d="M0,24.7a2.946,2.946,0,0,1-3-3V3A2.946,2.946,0,0,1,0,0,2.946,2.946,0,0,1,3,3V21.7a2.946,2.946,0,0,1-3,3" fill="#d20a11"/>
        </g>
        <g id="Group_191" data-name="Group 191" transform="translate(2031.9 823.5)">
          <path id="Path_215" data-name="Path 215" d="M0,24.7a2.946,2.946,0,0,1-3-3V3A2.946,2.946,0,0,1,0,0,2.947,2.947,0,0,1,3,3V21.7a2.947,2.947,0,0,1-3,3" fill="#d20a11"/>
        </g>
        <g id="Group_192" data-name="Group 192" transform="translate(2001.4 864.401)">
          <path id="Path_216" data-name="Path 216" d="M0,7.9H-6.3a.789.789,0,0,1-.8-.8V.8A.788.788,0,0,1-6.3,0H0A.788.788,0,0,1,.8.8V7.1c-.1.4-.4.8-.8.8" fill="#d20a11"/>
        </g>
        <g id="Group_193" data-name="Group 193" transform="translate(2013.1 864.401)">
          <path id="Path_217" data-name="Path 217" d="M0,7.9H-6.3a.789.789,0,0,1-.8-.8V.8A.788.788,0,0,1-6.3,0H0A.789.789,0,0,1,.8.8V7.1c-.1.4-.4.8-.8.8" fill="#d20a11"/>
        </g>
        <g id="Group_194" data-name="Group 194" transform="translate(2024.7 864.401)">
          <path id="Path_218" data-name="Path 218" d="M0,7.9H-6.3a.79.79,0,0,1-.8-.8V.8A.789.789,0,0,1-6.3,0H0A.788.788,0,0,1,.8.8V7.1a.86.86,0,0,1-.8.8" fill="#d20a11"/>
        </g>
        <g id="Group_195" data-name="Group 195" transform="translate(2036.6 864.401)">
          <path id="Path_219" data-name="Path 219" d="M0,7.9H-6.3a.789.789,0,0,1-.8-.8V.8A.788.788,0,0,1-6.3,0H0A.789.789,0,0,1,.8.8V7.1a.789.789,0,0,1-.8.8" fill="#d20a11"/>
        </g>
        <g id="Group_196" data-name="Group 196" transform="translate(2001.4 878.401)">
          <path id="Path_220" data-name="Path 220" d="M0,7.9H-6.3a.789.789,0,0,1-.8-.8V.8A.788.788,0,0,1-6.3,0H0A.788.788,0,0,1,.8.8V7.1c-.1.5-.4.8-.8.8" fill="#d20a11"/>
        </g>
        <g id="Group_197" data-name="Group 197" transform="translate(2013.1 878.401)">
          <path id="Path_221" data-name="Path 221" d="M0,7.9H-6.3a.789.789,0,0,1-.8-.8V.8A.788.788,0,0,1-6.3,0H0A.789.789,0,0,1,.8.8V7.1c-.1.5-.4.8-.8.8" fill="#d20a11"/>
        </g>
        <g id="Group_198" data-name="Group 198" transform="translate(2024.7 878.401)">
          <path id="Path_222" data-name="Path 222" d="M0,7.9H-6.3a.79.79,0,0,1-.8-.8V.8A.789.789,0,0,1-6.3,0H0A.788.788,0,0,1,.8.8V7.1a.789.789,0,0,1-.8.8" fill="#d20a11"/>
        </g>
        <g id="Group_199" data-name="Group 199" transform="translate(2036.6 878.401)">
          <path id="Path_223" data-name="Path 223" d="M0,7.9H-6.3a.789.789,0,0,1-.8-.8V.8A.788.788,0,0,1-6.3,0H0A.789.789,0,0,1,.8.8V7.1a.737.737,0,0,1-.8.8" fill="#d20a11"/>
        </g>
      </g>
    </g>
  </g>
</svg>
