<svg xmlns="http://www.w3.org/2000/svg" width="83.082" height="82.004" viewBox="0 0 83.082 82.004">
  <g id="Group_227" data-name="Group 227" transform="translate(-1752 -110.361)">
    <path id="Path_49" data-name="Path 49" d="M126.4,290.078a1.753,1.753,0,0,0,1.344-.566,1.825,1.825,0,0,0,.566-1.344,1.767,1.767,0,0,0-.566-1.348,1.836,1.836,0,0,0-1.344-.562,1.805,1.805,0,0,0-1.344.563,1.84,1.84,0,0,0-.566,1.348,1.794,1.794,0,0,0,.566,1.344,1.759,1.759,0,0,0,1.344.566" transform="translate(1669.371 -146.275)" fill="#d20a11"/>
    <path id="Path_50" data-name="Path 50" d="M114.555,279.277c-6.418.977-10.332,6.863-11.73,11.605l-.027.1c-.4,1.367-.633,2.238-.285,2.957a6.742,6.742,0,0,0,1.883,2.141,24.429,24.429,0,0,0,12.137,5.156,2.91,2.91,0,0,0,.906.016,1.655,1.655,0,0,0,.75-1.207c.664-3-.059-6.383-.762-9.648l-.254-1.2c-.613-2.93-1.387-6.395-2.484-9.871a.146.146,0,0,0-.133-.055m2.578,26.008a8.219,8.219,0,0,1-1.109-.082,28.519,28.519,0,0,1-14.176-6.035,10.663,10.663,0,0,1-2.937-3.48c-1.039-2.148-.437-4.191.047-5.836l.031-.1c2.281-7.73,8.152-13.4,14.961-14.434a4.145,4.145,0,0,1,4.551,2.809,105.21,105.21,0,0,1,2.586,10.258l.25,1.172c.754,3.516,1.609,7.5.758,11.352a5.369,5.369,0,0,1-3.465,4.16,4.88,4.88,0,0,1-1.5.215" transform="translate(1669.371 -146.275)" fill="#d20a11"/>
    <path id="Path_51" data-name="Path 51" d="M133.227,338.641a2,2,0,0,1-1.926-1.469c-.484-1.758-1.008-3.508-1.527-5.254-.844-2.82-1.711-5.738-2.426-8.68-.238-.969-.66-2.273-1.109-3.656a51.891,51.891,0,0,1-1.457-5.027c-.113-.566-.254-1.055-.391-1.523a10.2,10.2,0,0,1-.516-4.055,5.144,5.144,0,0,1,1.746-3.473c1.953-1.7,4.992-1.535,7.43-1.4.551.031,1.066.055,1.5.055a8.34,8.34,0,0,0,4.7-1.07,15.012,15.012,0,0,0,6.973-12.469.894.894,0,0,0-.242-.75,1.427,1.427,0,0,0-.8-.594l-10.812-1.238a4.715,4.715,0,0,1-3.629-1.73,9.4,9.4,0,0,1-.6-.91c-.074-.121-.148-.242-.23-.363-.82-1.254-2.352-1.934-4.262-2.7-.687-.273-1.383-.527-2.074-.777l-.719-.262a.014.014,0,0,1-.012,0c-.758-.277-4.3-1.1-6.234-1.543-.172-.039-.332-.074-.477-.109-.6-.137-1.082-.25-1.352-.312a2,2,0,0,1-1.535-1.941,2.132,2.132,0,0,1,.055-.469,2,2,0,0,1,2.41-1.48c.262.063.73.172,1.316.3,3.1.711,6.211,1.438,7.191,1.793l.719.266c.73.266,1.465.527,2.188.816,1.918.766,4.551,1.809,6.129,4.215.105.16.207.328.309.5a5.908,5.908,0,0,0,.348.531c.059.082.191.117.9.2l10.938,1.254a1.442,1.442,0,0,1,.18.031,5.271,5.271,0,0,1,3.164,2,4.8,4.8,0,0,1,1.129,3.543,19,19,0,0,1-8.746,15.523,12.037,12.037,0,0,1-6.887,1.742c-.523,0-1.109-.027-1.75-.062-1.441-.078-3.852-.211-4.582.426a1.135,1.135,0,0,0-.387.785,6.307,6.307,0,0,0,.371,2.617c.152.523.324,1.113.469,1.84.238,1.188.8,2.914,1.34,4.586.473,1.457.918,2.832,1.191,3.945.691,2.844,1.543,5.707,2.371,8.48.355,1.2.711,2.387,1.055,3.586a33.408,33.408,0,0,0,8.578-3.848,40.512,40.512,0,0,0,3.555-2.484,39.971,39.971,0,0,0,11.613-14.5q.393-.844.738-1.707l.039-.1c.125-.312.23-.609.34-.91l.066-.184a37.445,37.445,0,0,0,2.113-12.152c0-.027,0-.047,0-.07l0-.129A37.541,37.541,0,1,0,94.5,321.172c.457-.551.926-1.105,1.422-1.652l.367-.4a21.61,21.61,0,0,0,2.691-3.355c1.68-2.793,2.133-6.379,2.566-9.848.109-.855.215-1.7.336-2.527.125-.844.23-2.93.246-4a2,2,0,0,1,2-1.969h.035a2,2,0,0,1,1.969,2.031c-.016,1-.117,3.363-.289,4.523-.117.8-.219,1.613-.324,2.438-.488,3.883-.992,7.895-3.1,11.414a25.362,25.362,0,0,1-3.172,3.992l-.359.391c-.605.672-1.18,1.363-1.785,2.1-.352.426-.7.852-1.059,1.27-.039.047-.078.09-.121.137a2.08,2.08,0,0,1-.543.391,2.025,2.025,0,0,1-.859.2,2.2,2.2,0,0,1-.875-.191,2.08,2.08,0,0,1-.547-.379c-.043-.043-.086-.09-.125-.137a41.541,41.541,0,1,1,72.746-27.418l0,.238a.662.662,0,0,1,0,.086v0a41.347,41.347,0,0,1-2.348,13.465l-.07.2c-.121.344-.246.684-.379,1.023l-.047.117c-.262.645-.535,1.281-.828,1.906a43.951,43.951,0,0,1-12.77,15.961,45.724,45.724,0,0,1-3.945,2.754c-3.051,1.8-7.551,4.227-11.871,4.7a2.052,2.052,0,0,1-.219.012" transform="translate(1669.371 -146.275)" fill="#d20a11"/>
  </g>
</svg>
