<svg xmlns="http://www.w3.org/2000/svg" xmlns:xlink="http://www.w3.org/1999/xlink" width="79.96" height="57.7" viewBox="0 0 79.96 57.7">
  <defs>
    <clipPath id="clip-Artboard_4">
      <rect width="79.96" height="57.7"/>
    </clipPath>
  </defs>
  <g id="Artboard_4" data-name="Artboard – 4" clip-path="url(#clip-Artboard_4)">
    <g id="logo_SMC" data-name="logo SMC" transform="translate(-4.9 -13.6)">
      <path id="XMLID_39_" d="M28.8,13.6H58.5V41H28.8V13.6Z" fill="#e31d1b" fill-rule="evenodd"/>
      <path id="XMLID_36_" d="M28.7,66.8a8.392,8.392,0,0,1-2.3,2.3,11.765,11.765,0,0,1-3.9,1.5,20.149,20.149,0,0,1-5,.6,19.041,19.041,0,0,1-5.4-.7,11.65,11.65,0,0,1-4.2-1.9,8.609,8.609,0,0,1-2.5-2.9,10.149,10.149,0,0,1-.5-2.9h0l8.8.1h0a6.581,6.581,0,0,0,1.4,1.5,3.523,3.523,0,0,0,2.1.7,2.271,2.271,0,0,0,1.6-.6,1.182,1.182,0,0,0,.3-1.5,4.261,4.261,0,0,0-2-1.4h0l-2.6-.7h0c-4.8-1.5-6.9-1.8-8.4-3.6a6.745,6.745,0,0,1-1-3.8,7.2,7.2,0,0,1,1.2-3.9A8.387,8.387,0,0,1,9,47a10.832,10.832,0,0,1,3.7-1.3,21.717,21.717,0,0,1,4.4-.3,24.372,24.372,0,0,1,4.8.5,11.114,11.114,0,0,1,3.4,1.2,9.161,9.161,0,0,1,2.1,1.7,8.175,8.175,0,0,1,1.2,2c.1.1.1.3.2.4h0V46H40.4l3.4,9.7L47.2,46H58.8v7.2h0c.1-.1.1-.3.2-.4a13.381,13.381,0,0,1,2.5-4.2A14.938,14.938,0,0,1,65.6,46a16.583,16.583,0,0,1,6.1-1.1,17.868,17.868,0,0,1,5.7.8,13.272,13.272,0,0,1,4.3,2.1,7.984,7.984,0,0,1,3.1,7.3H76.3a3.489,3.489,0,0,0-1.2-2.8,3.428,3.428,0,0,0-2.8-.7,4.253,4.253,0,0,0-3.2,1.5c-.7.9-.7,2.3-.7,4.8,0,1.7-.1,2.8.4,3.9a3.381,3.381,0,0,0,1.3,1.8,3.5,3.5,0,0,0,2.2.8,4.479,4.479,0,0,0,3-.9c.8-.7.9-1.2,1-2.6h8.4a22.5,22.5,0,0,1-.6,4,9.561,9.561,0,0,1-2.3,3.5,10.012,10.012,0,0,1-4.5,2.2,23.468,23.468,0,0,1-5.4.7,19.932,19.932,0,0,1-5.6-.8A12.686,12.686,0,0,1,62,68.1a9.51,9.51,0,0,1-2.7-3.6,6.117,6.117,0,0,1-.5-1.2h0v7.8H49.9V61.8l-3.4,9.3H41l-3.5-9.3v9.3H28.6l.1-4.3Zm0-13.6H20.3a3.346,3.346,0,0,0-1.5-1.4,3.281,3.281,0,0,0-2.1-.6,2.481,2.481,0,0,0-1.8.7,1.2,1.2,0,0,0,0,1.5,8.347,8.347,0,0,0,2.7,1.1h0l3.6.9h0q4.95,1.05,6.9,3a5.008,5.008,0,0,1,.7.8h0l-.1-6Z" fill="#fff"/>
    </g>
  </g>
</svg>
