<?xml version="1.0" encoding="utf-8"?>
<!-- Generator: Adobe Illustrator 25.2.0, SVG Export Plug-In . SVG Version: 6.00 Build 0)  -->
<svg version="1.1" xmlns="http://www.w3.org/2000/svg" xmlns:xlink="http://www.w3.org/1999/xlink" x="0px" y="0px"
	 viewBox="0 0 432 432" style="enable-background:new 0 0 432 432;" xml:space="preserve">
<style type="text/css">
	.st0{fill:none;}
	.st1{display:none;}
	.st2{display:inline;fill:url(#placeholder-10_1_);}
	.st3{fill:#DADADA;}
	.st4{fill:none;stroke:#FFFFFF;stroke-miterlimit:10;}
	.st5{opacity:0.2;fill:none;stroke:#FFFFFF;stroke-miterlimit:10;}
	.st6{display:inline;}
	.st7{fill:#D20A11;}
	.st8{fill:#FFFFFF;}
	.st9{fill:#090E1C;}
	.st10{fill:#EDEDED;}
	.st11{fill:#EF3F54;}
	.st12{fill:#B70B20;}
	.st13{fill:#E21A2D;}
	.st14{fill:#D3727A;}
	.st15{fill:#B2B2B2;}
	.st16{display:inline;fill:#D20A11;}
	.st17{display:inline;fill:#B2B2B2;}
	.st18{fill:#706F6F;}
	.st19{fill:none;stroke:#FFFFFF;stroke-width:3;stroke-miterlimit:10;}
	.st20{fill:none;stroke:#FFFFFF;stroke-width:3;stroke-miterlimit:10;stroke-dasharray:11.9851,11.9851;}
	.st21{fill:none;stroke:#FFFFFF;stroke-width:3;stroke-miterlimit:10;stroke-dasharray:13.7687,13.7687;}
	.st22{fill:none;stroke:#FFFFFF;stroke-width:3;stroke-miterlimit:10;stroke-dasharray:11.9814,11.9814;}
	.st23{fill:#878787;}
	.st24{fill:none;stroke:#FFFFFF;stroke-width:0.6052;stroke-linecap:round;stroke-miterlimit:10;}
</style>
<pattern  x="-551.8" y="75.7" width="1200" height="800" patternUnits="userSpaceOnUse" id="pattern" viewBox="0 -800 1200 800" style="overflow:visible;">
	<g>
		<rect y="-800" class="st0" width="1200" height="800"/>
		
			<image style="overflow:visible;enable-background:new    ;" width="1200" height="800" xlink:href="77C95E0C.jpg"  transform="matrix(1 0 0 -1 0 0)">
		</image>
	</g>
</pattern>
<g id="Livello_1">
</g>
<g id="Livello_2" class="st1">
	<pattern  id="placeholder-10_1_" xlink:href="#pattern" patternTransform="matrix(0.3358 0 0 -0.23 -3683.7556 -13928.5225)">
	</pattern>
	<path id="placeholder-10" class="st2" d="M21,126.8h387c4.4,0,8,3.6,8,8v168c0,4.4-3.6,8-8,8H21c-4.4,0-8-3.6-8-8v-168
		C13,130.4,16.6,126.8,21,126.8z"/>
</g>
<g id="Livello_9">
	<rect class="st3" width="432" height="432"/>
	<g>
	</g>
</g>
<g id="Livello_10">
	<path class="st4" d="M-177,184.6c-0.2,0.2,37.6,14.3,40.2,14.9c39.7,8.4,81.3,3.6,120-7.4c37.5-10.6,72.8-27.3,106.2-47.3
		c20.3-12.1,40.4-24.9,62.3-33.9c20.4-8.4,42.8-13.6,64.3-18.7c50-11.8,102.2-17.9,153.4-11.9C487.3,94.2,15.6,6.1,15.6,6.1
		S-176.8,184.4-177,184.6z"/>
	<path class="st5" d="M-111.6,225.9c-0.2,0.2,37.6,14.3,40.2,14.9c39.7,8.4,81.3,3.6,120-7.4c49.7-14.1,92.7-40.3,137.3-65.5
		c30.1-17,61.9-26.5,95.4-34.4c50-11.8,102.2-17.9,153.4-11.9C552.8,135.5,81,47.4,81,47.4S-111.4,225.7-111.6,225.9z"/>
	<path class="st4" d="M634,237.9c0.2-0.2-37.6-14.3-40.2-14.9c-39.7-8.4-81.3-3.6-120,7.4c-37.5,10.6-72.8,27.3-106.2,47.3
		c-20.3,12.1-40.4,24.9-62.3,33.9c-20.4,8.4-42.8,13.6-64.3,18.7c-50,11.8-102.2,17.9-153.4,11.9c-117.9-13.8,353.8,74.3,353.8,74.3
		S633.8,238.1,634,237.9z"/>
	<path class="st5" d="M530.9,198.5c0.2-0.2-37.6-14.3-40.2-14.9c-76.9-16.3-157.6,14.4-222.8,53.5c-11.1,6.7-22.6,12.8-33.9,19.2
		c-10,5.6-20.1,10.9-30.7,15.4c-10.5,4.4-21.3,7.9-32.3,10.9C110.6,299.3,47.2,310-15.5,302.7C-133.4,288.9,338.3,377,338.3,377
		S530.7,198.7,530.9,198.5z"/>
</g>
<g id="fine_ux" class="st1">
	<g class="st6">
		<g>
			<g>
				<g>
					<g>
						<path class="st7" d="M327.4,247.6h-238c-4.8,0-8.7-3.9-8.7-8.7v-45.2c0-4.8,3.9-8.7,8.7-8.7h238c4.8,0,8.7,3.9,8.7,8.7v45.2
							C336.1,243.7,332.2,247.6,327.4,247.6z"/>
					</g>
				</g>
			</g>
		</g>
		<g>
			<g>
				<g>
					<g>
						<path class="st8" d="M352.2,261.9L307.8,229c-0.8-0.6-1.9,0-1.8,1l7,53.9c0.1,0.9,1.3,1.3,1.9,0.6l11.3-12.3l8.3,14.1
							c0.9,1.5,2.9,2.1,4.5,1.2l3.2-1.8c1.6-0.9,2.1-2.9,1.2-4.4l-8.3-14.1l16.6-3.4C352.7,263.6,353,262.4,352.2,261.9z"/>
					</g>
				</g>
			</g>
			<g>
				<g>
					<g>
						<path class="st9" d="M301.2,221.3c-0.5,0-1-0.3-1.3-0.8l-9.7-16.9c-0.4-0.7-0.2-1.7,0.6-2.1c0.7-0.4,1.7-0.2,2.1,0.6l9.7,16.9
							c0.4,0.7,0.2,1.7-0.6,2.1C301.7,221.2,301.4,221.3,301.2,221.3z"/>
					</g>
				</g>
				<g>
					<g>
						<path class="st9" d="M293.8,228.3c-0.3,0-0.5-0.1-0.8-0.2l-16.9-9.7c-0.7-0.4-1-1.4-0.6-2.1c0.4-0.7,1.4-1,2.1-0.6l16.9,9.7
							c0.7,0.4,1,1.4,0.6,2.1C294.8,228.1,294.3,228.3,293.8,228.3z"/>
					</g>
				</g>
				<g>
					<g>
						<path class="st9" d="M310.9,218.5c-0.8,0-1.5-0.7-1.5-1.5v-19.5c0-0.8,0.7-1.5,1.5-1.5c0.8,0,1.5,0.7,1.5,1.5v19.5
							C312.4,217.8,311.7,218.5,310.9,218.5z"/>
					</g>
				</g>
				<g>
					<g>
						<path class="st9" d="M319.6,222.4c-0.3,0-0.5-0.1-0.8-0.2c-0.7-0.4-1-1.4-0.6-2.1l9.7-16.9c0.4-0.7,1.4-1,2.1-0.6
							c0.7,0.4,1,1.4,0.6,2.1l-9.7,16.9C320.6,222.2,320.1,222.4,319.6,222.4z"/>
					</g>
				</g>
				<g>
					<g>
						<path class="st9" d="M292,238.3h-19.5c-0.8,0-1.5-0.7-1.5-1.5c0-0.8,0.7-1.5,1.5-1.5H292c0.8,0,1.5,0.7,1.5,1.5
							C293.6,237.7,292.9,238.3,292,238.3z"/>
					</g>
				</g>
			</g>
		</g>
	</g>
	<g class="st6">
		<path class="st10" d="M158.1,212.5c-0.1-0.7-0.3-1.2-0.8-1.6s-1.2-0.6-2.1-0.6c-0.9,0-1.6,0.2-2,0.5c-0.4,0.3-0.6,0.7-0.6,1.2
			c0,0.5,0.2,0.9,0.7,1.3c0.5,0.3,1.2,0.6,2.2,0.8l1.8,0.4c2.4,0.5,4.1,1.3,5.1,2.5c1.1,1.1,1.6,2.5,1.6,4.2c0,2.1-0.8,3.8-2.3,4.9
			c-1.6,1.1-3.7,1.7-6.4,1.7c-1.9,0-3.5-0.3-4.9-0.8c-1.4-0.6-2.5-1.4-3.2-2.6c-0.8-1.2-1.2-2.6-1.2-4.4h5.6c0,1,0.4,1.7,1,2.3
			c0.6,0.5,1.5,0.8,2.6,0.8c0.9,0,1.7-0.2,2.1-0.5c0.5-0.3,0.7-0.8,0.7-1.3c0-0.5-0.2-0.9-0.7-1.2c-0.5-0.3-1.3-0.6-2.5-0.9
			l-2.1-0.5c-1.9-0.4-3.4-1.1-4.5-2.1c-1.1-1-1.6-2.3-1.6-4c0-1.4,0.4-2.6,1.1-3.6c0.7-1,1.8-1.8,3.1-2.4s2.8-0.9,4.5-0.9
			c1.7,0,3.2,0.3,4.5,0.9c1.3,0.6,2.3,1.4,2.9,2.5c0.7,1.1,1,2.3,1,3.7H158.1z"/>
		<path class="st10" d="M166.3,227.3v-21.6h15.5v4.7h-9.7v3.7h8.9v4.7h-8.9v3.7h9.6v4.7H166.3z"/>
		<path class="st10" d="M190.3,227.3H184l7.1-21.6h8l7.1,21.6h-6.3l-1.2-4.1h-7.1L190.3,227.3z M192.9,218.8h4.5l-2.1-7.1H195
			L192.9,218.8z"/>
		<path class="st10" d="M208.3,227.3v-21.6h9.3c1.6,0,3,0.3,4.2,0.9c1.2,0.6,2.1,1.4,2.8,2.5s1,2.4,1,3.9c0,1.5-0.3,2.8-1,3.8
			c-0.6,1-1.5,1.8-2.7,2.4l4.4,8H220l-3.8-7.1h-2v7.1H208.3z M214.2,215.6h2.1c1,0,1.8-0.2,2.4-0.6c0.6-0.4,0.9-1.1,0.9-2
			c0-0.9-0.3-1.6-0.9-2c-0.6-0.4-1.4-0.6-2.4-0.6h-2.1V215.6z"/>
		<path class="st10" d="M248.2,213.8h-5.9c-0.1-1-0.4-1.8-1.1-2.4c-0.6-0.6-1.5-0.9-2.6-0.9c-1.5,0-2.6,0.5-3.4,1.6
			s-1.2,2.5-1.2,4.4c0,2,0.4,3.5,1.2,4.5c0.8,1,1.9,1.5,3.3,1.5c1.1,0,1.9-0.3,2.6-0.8c0.6-0.5,1-1.3,1.2-2.2l5.9,0
			c-0.1,0.9-0.3,1.8-0.8,2.8s-1.1,1.8-1.9,2.6s-1.8,1.4-3,1.9c-1.2,0.5-2.6,0.7-4.2,0.7c-2,0-3.8-0.4-5.3-1.3
			c-1.6-0.8-2.8-2.1-3.7-3.7s-1.4-3.7-1.4-6.1c0-2.4,0.5-4.4,1.4-6.1s2.2-2.9,3.7-3.7c1.6-0.8,3.3-1.3,5.3-1.3c1.8,0,3.4,0.3,4.8,1
			c1.4,0.7,2.6,1.6,3.4,2.9S248.1,212,248.2,213.8z"/>
		<path class="st10" d="M250.9,227.3v-21.6h5.9v8.4h7.8v-8.4h5.9v21.6h-5.9v-8.4h-7.8v8.4H250.9z"/>
	</g>
</g>
<g id="customizable">
	<g>
		<path class="st8" d="M378.6,182.2l-1.6-5.8c-0.7-2.6-3.1-4.3-5.8-4l-6.5,0.6c-2.3-3.4-5.2-6.3-8.6-8.6l0.6-6.5
			c0.2-2.7-1.5-5.1-4-5.8l-5.8-1.5c-2.6-0.7-5.3,0.6-6.4,3l-2.7,5.8c-4.1,0.2-8,1.3-11.7,3.1l-5.3-3.7c-2.2-1.5-5.1-1.3-7,0.6
			l-4.3,4.3c-1.9,1.9-2.1,4.8-0.6,7l3.8,5.3c-1.8,3.6-2.9,7.6-3.1,11.7l-5.9,2.8c-2.4,1.1-3.7,3.8-3,6.4l1.5,5.8
			c0.7,2.6,3.1,4.3,5.8,4l6.5-0.6c2.3,3.4,5.2,6.3,8.6,8.6l-0.6,6.5c-0.2,2.6,1.5,5,4.1,5.7l5.8,1.5c2.6,0.7,5.3-0.6,6.4-3l2.7-5.9
			c4.1-0.2,8.1-1.3,11.7-3.1l5.3,3.8c2.2,1.5,5.1,1.3,7-0.6l4.3-4.3c1.9-1.9,2.1-4.8,0.6-7l-3.7-5.3c1.8-3.6,2.9-7.6,3.1-11.7
			l5.9-2.7C378,187.5,379.3,184.8,378.6,182.2z M347.8,197.5C347.8,197.5,347.7,197.5,347.8,197.5c-4.6,4.5-11.8,4.5-16.2,0
			s-4.4-11.7,0.1-16.1c4.4-4.4,11.6-4.4,16,0C352.2,185.8,352.2,193,347.8,197.5z"/>
	</g>
	<g>
		<path class="st8" d="M164.8,219.1c-9.7-7-31-13.1-53.3-14.8c-31.5-2.5-64.8,3.7-69.2,28.3c-2.2,12.2,3.9,24.9,20.3,35.1
			c14.5,9,35.1,15.5,54.3,18.9c0.9,0.2,1.8,0.3,2.6,0.4c20.8,2.4-4.5-19.9,1.9-24.7c4.1-3.1,15,5,19.9,8.6c0.9,0.7,2.2,1.3,3.9,1.8
			c7.4,2.3,21.1,2.4,28.6-4.5C182.9,259.5,188.3,236,164.8,219.1z"/>
		<g>
			<path class="st11" d="M80.4,245.3c0.5-3.3-4.3-6.7-10.7-7.7c-0.8-0.1-1.6-0.2-2.4-0.2c-5.3-0.2-9.6,1.6-10.1,4.4
				c-0.4,2.9,3.2,5.8,8.3,7.2c0.7,0.2,1.5,0.4,2.3,0.5C74.3,250.4,79.9,248.6,80.4,245.3z"/>
			<path class="st12" d="M80.1,231.2c0.7,0.2,1.5,0.4,2.3,0.5c6.4,1,12-0.9,12.5-4.2c0.5-3.3-4.3-6.7-10.7-7.7
				c-0.8-0.1-1.6-0.2-2.4-0.2c-5.3-0.2-9.6,1.6-10.1,4.4C71.3,226.8,74.9,229.8,80.1,231.2z"/>
			<path class="st13" d="M115.9,215.3c-0.8-0.1-1.6-0.2-2.4-0.2c-5.3-0.2-9.6,1.6-10.1,4.4c-0.4,2.9,3.2,5.8,8.3,7.2
				c0.7,0.2,1.5,0.4,2.3,0.5c6.4,1,12-0.9,12.5-4.2C127.1,219.7,122.3,216.3,115.9,215.3z"/>
			<path class="st11" d="M160.4,245.2c-0.8-0.1-1.6-0.2-2.4-0.2c-5.3-0.2-9.6,1.6-10.1,4.4c-0.4,2.9,3.2,5.8,8.3,7.2
				c0.7,0.2,1.5,0.4,2.3,0.5c6.4,1,12-0.9,12.5-4.2C171.5,249.6,166.7,246.2,160.4,245.2z"/>
			<path class="st14" d="M162.3,232.5c0.5-3.3-4.3-6.7-10.7-7.7c-0.8-0.1-1.6-0.2-2.4-0.2c-5.3-0.2-9.6,1.6-10.1,4.4
				c-0.4,2.9,3.2,5.8,8.3,7.2c0.7,0.2,1.5,0.4,2.3,0.5C156.2,237.6,161.8,235.7,162.3,232.5z"/>
			<path class="st14" d="M88.2,257.1c-0.8-0.1-1.6-0.2-2.4-0.2c-5.3-0.2-9.6,1.6-10.1,4.4c-0.4,2.9,3.2,5.8,8.3,7.2
				c0.7,0.2,1.5,0.4,2.3,0.5c6.4,1,12-0.9,12.5-4.2C99.4,261.5,94.6,258,88.2,257.1z"/>
		</g>
		<g>
			<path class="st7" d="M147.3,159.6c-6.6-8.5-11.5-13.9-12.4-13.3c-3.6,2.4,50.7,84.5,50.7,84.5l9.3-6.2
				C194.9,224.6,166.3,183.7,147.3,159.6z"/>
			<polygon class="st8" points="194.9,224.6 190.3,227.7 185.6,230.8 199.9,250 203.5,247.6 207,245.3 			"/>
			<path d="M213.8,267.8c7.5-19.6-6.8-22.5-6.8-22.5l-7.1,4.7c0,0-2.5,8.5,6.9,12.4C211.1,264.2,212.6,266.2,213.8,267.8z"/>
		</g>
	</g>
	<path class="st7" d="M321.1,279.7l5.2-5.2c2.3-2.3,2.6-5.8,0.7-8.5l-5-7.1c1.9-3.4,3.4-7,4.4-10.7l8.6-1.5c3.2-0.5,5.5-3.3,5.5-6.5
		v-7.4c0-3.2-2.3-6-5.5-6.5l-8.6-1.5c-1-3.7-2.5-7.3-4.4-10.7l5-7c1.8-2.6,1.5-6.2-0.7-8.5l-5.2-5.2c-2.3-2.3-5.8-2.6-8.5-0.7
		l-7.1,5c-3.4-1.9-7-3.4-10.7-4.4l-1.5-8.6c-0.5-3.2-3.3-5.5-6.5-5.5h-7.4c-3.2,0-6,2.3-6.5,5.5l-1.5,8.6c-3.7,1-7.3,2.5-10.7,4.4
		l-7-5c-2.6-1.8-6.2-1.5-8.5,0.7l-5.2,5.2c-2.3,2.3-2.5,5.9-0.7,8.5l5,7.1c-1.9,3.4-3.4,7-4.4,10.7l-8.6,1.5
		c-3.2,0.5-5.5,3.3-5.5,6.5v7.4c0,3.2,2.3,6,5.5,6.5l8.6,1.5c1,3.7,2.5,7.3,4.4,10.7l-5,7c-1.8,2.6-1.5,6.2,0.7,8.5l5.2,5.2
		c2.3,2.3,5.8,2.6,8.5,0.7l7.1-5c3.4,1.9,7,3.4,10.7,4.4l1.5,8.6c0.5,3.2,3.3,5.5,6.5,5.5h7.4c3.2,0,6-2.3,6.5-5.5l1.5-8.6
		c3.7-1,7.3-2.5,10.7-4.4l7,5C315.3,282.3,318.9,282,321.1,279.7z M283.2,256.3c-10.9,0-19.7-8.8-19.7-19.7
		c0-10.9,8.8-19.7,19.7-19.7c10.9,0,19.7,8.8,19.7,19.7c0,0,0,0,0,0C302.8,247.5,294,256.3,283.2,256.3z"/>
</g>
<g id="pluggable" class="st1">
	<g class="st6">
		<path class="st7" d="M292.6,183.5l-0.3-0.5l-10.6-11c-0.6-0.9-0.2-2.3,0.9-2.6c1.6-0.5,3.1-1.3,4.4-2.6c4.4-4.2,4.6-11.1,0.4-15.3
			c-4-4.4-10.9-4.5-15.3-0.3c-1.3,1.2-2.2,2.7-2.8,4.3c-0.4,1.1-1.8,1.5-2.7,0.8l-10.5-11l-0.5-0.3c-0.7-0.6-1.7-0.6-2.4,0
			l-12.2,11.7c-0.8,0.1-1.5-0.4-1.7-1.2c-1-3.6-4-6.7-9.1-7.7c-0.5-0.1-1.1-0.1-1.6,0c-10.4,1.8-13,12.6-7.5,18.4
			c1.2,1.2,2.6,2.1,4.1,2.6c0.8,0.3,1.2,1.1,1,1.9l-12.3,11.8c-0.7,0.7-0.7,1.8-0.1,2.5l11.1,11.6l0.2,0.2l0.1,0.1
			c0.9,1,2.6,0.5,2.9-0.9c1-3.9,4.3-7.4,9.7-8.5c1-0.1,2,0,3,0.2c2.3,0.6,4.1,1.7,5.4,3.1c1.3,1.4,2.3,3.3,2.8,5.6
			c0.2,1,0.2,2,0.1,3c-1.3,5.3-4.9,8.4-8.9,9.3c-1.4,0.3-2,1.9-1,2.9l0.1,0.1l0.1,0.2l11.1,11.6c0.7,0.7,1.8,0.7,2.5,0l12.3-11.7
			c0.8-0.1,1.6,0.3,1.9,1.1c0.4,1.5,1.3,3,2.4,4.2c5.6,5.8,16.5,3.6,18.8-6.6c0.1-0.5,0.1-1.1,0.1-1.6c-0.8-5.1-3.7-8.2-7.2-9.4
			c-0.8-0.3-1.2-1-1.1-1.8l12.2-11.7C293.2,185.3,293.2,184.2,292.6,183.5z"/>
		<path class="st15" d="M236.5,291.1L236.5,291.1l0.3,0l16,0.1c1,0,1.7-0.8,1.7-1.8l0.1-17c0.5-0.6,1.3-1,2.1-0.6
			c1.4,0.7,3,1.2,4.7,1.2c8.1,0,14-9.3,8.2-18.1c-0.3-0.4-0.7-0.8-1.1-1.1c-4.2-3-8.5-3-11.8-1.3c-0.7,0.4-1.6,0.1-2-0.4l0.1-16.9
			c0-1-0.7-1.7-1.6-1.8l-0.6-0.1l-15.3,0c-1.1-0.2-1.8-1.4-1.3-2.5c0.8-1.5,1.2-3.2,1.2-5c0-6.1-4.8-11-10.8-10.9
			c-5.9-0.2-10.8,4.8-10.8,10.8c0,1.8,0.4,3.5,1.2,5c0.5,1.1-0.2,2.3-1.3,2.5l-15.3-0.1l-0.6,0.1c-0.7,0-1.2,0.4-1.5,1
			c0.1,0.3,0.2,0.6,0.2,0.8l0,17.5l-1-0.2c-0.4,0.2-0.9,0.2-1.4,0l-0.3-0.1c-0.5,0-1,0-1.6,0.1l-0.1,0l-0.1,0
			c-0.6-0.1-1.1-0.2-1.7-0.2c-4.9,0-8.9,3.8-9.6,8.7c-0.1,0.4-0.1,0.8-0.1,1.3c0,1.8,0.5,3.6,1.5,5.5c0.2,0.4,0.4,0.8,0.7,1.2
			c0.2,0.4,0.5,0.7,0.9,0.9c2.2,1.6,4.5,2.2,6.5,2.2c0.5,0,1.1-0.1,1.6-0.1l0.1,0l0.1,0c0.4,0.1,0.8,0.1,1.1,0.2
			c0.3-0.1,0.5-0.2,0.8-0.4c0.6-0.3,1.2-0.2,1.6,0.1l0.8-0.2l0,17.7c0,0.2,0,0.4-0.1,0.7c0.3,0.6,0.9,1,1.5,1l16,0l0.2,0h0.1
			c1.4,0,2.1-1.5,1.4-2.7c-2.1-3.4-2.4-8.2,0.6-12.8c0.6-0.8,1.4-1.5,2.2-2c2-1.2,4.1-1.8,6-1.8c1.9,0,3.9,0.6,6,1.8
			c0.8,0.6,1.6,1.3,2.2,2c3,4.6,2.6,9.4,0.5,12.8C234.4,289.6,235.2,291.1,236.5,291.1z"/>
		<path class="st8" d="M179.8,231L179.8,231l-0.1,0.1l-0.1,0.4c0,0.4,0.3,0.8,0.7,0.9l15.1,0c0.2,0,0.4,0.1,0.6,0.1v0
			c0.5,0,1,0.2,1.4,0.5l0.1-0.5l0.1-17c0.5-0.6,1.3-1,2.1-0.6c1.4,0.7,3,1.2,4.7,1.2c8.1,0,14-9.3,8.2-18.1
			c-0.3-0.4-0.7-0.8-1.1-1.1c-4.2-3-8.5-3-11.8-1.3c-0.7,0.4-1.6,0.1-2-0.5l0.1-16.9c0-0.9-0.7-1.7-1.6-1.8l-0.6-0.1l-15.3,0
			c-1.1-0.2-1.8-1.4-1.3-2.5c0.8-1.5,1.2-3.2,1.2-5c0-6.1-4.8-11-10.8-10.9c-5.9-0.2-10.8,4.8-10.8,10.8c0,1.8,0.4,3.5,1.2,5
			c0.5,1.1-0.2,2.3-1.3,2.5l-15.3-0.1l-0.6,0.1c-0.9,0-1.7,0.8-1.7,1.8l0,16.9c-0.5,0.6-1.3,0.8-2,0.4c-3.3-1.7-7.6-1.7-11.8,1.2
			c-0.4,0.3-0.8,0.7-1.1,1.1c-5.9,8.7,0.1,18.1,8.1,18.2c1.7,0,3.3-0.4,4.7-1.2c0.8-0.4,1.6-0.1,2.1,0.6l0,17c0,0.2,0,0.4,0.1,0.6
			c0.4-0.3,0.9-0.5,1.4-0.5v0c0.2,0,0.4-0.1,0.6-0.1l15.1,0c0.4-0.1,0.7-0.5,0.7-0.9l-0.1-0.4l0,0l0,0l0-0.1
			c-0.8-1.6-1.2-3.3-1.2-5.2h0v-0.1v0v0c0-1.2,0.2-2.3,0.5-3.3c1.4-4.8,5.7-8.4,10.9-8.4l0.3,0l0.2,0c5.2,0,9.5,3.6,10.9,8.4
			c0.3,1,0.5,2.1,0.5,3.3v0C181,227.6,180.6,229.4,179.8,231z"/>
		<path class="st11" d="M185,253.1c2-1.8,4.6-2.9,7.4-2.9l0,0.9v-0.9c0.7,0,1.3,0.1,1.9,0.2c0.6-0.1,1.2-0.1,1.7-0.1
			c0.3,0,0.6,0,0.9,0l0-15.4c0-0.5-0.3-0.8-0.8-0.9l-0.1,0l-0.1,0l-0.1,0l-0.3-0.1l-15.3,0l-0.1,0c-1.2-0.2-2-1.2-2.1-2.4l0-0.2
			c0-0.4,0.1-0.7,0.3-1.1h0l0-0.1l0,0c0.7-1.4,1.1-2.9,1.1-4.5v0c0-1-0.2-1.9-0.4-2.8c-1.2-4.1-4.9-7.1-9.2-7.1l-0.2,0h0h0l-0.2,0
			c-2.1,0-3.9,0.7-5.5,1.8c-1.8,1.3-3.1,3.1-3.7,5.3c-0.2,0.5-0.3,1.1-0.3,1.6c-0.1,0.4-0.1,0.8-0.1,1.2v0v0c0,1.6,0.4,3.2,1.1,4.5
			l0,0l0,0l0,0.1l0,0c0.2,0.3,0.2,0.7,0.2,1.1l0,0.2c-0.1,1.2-0.9,2.2-2.1,2.4l-0.1,0l-15.3,0l-0.1,0l-0.1,0l-0.1,0l-0.1,0
			c-0.4,0-0.8,0.4-0.8,0.9l0,17.2l-0.2,0.2c-0.5,0.6-1.2,0.9-2,0.9c-0.4,0-0.8-0.1-1.2-0.3c-1.3-0.7-2.8-1.1-4.3-1.1
			c-2.1,0-4.3,0.7-6.6,2.3c-0.3,0.2-0.7,0.6-0.9,0.9c-1.6,2.3-2.2,4.6-2.2,6.8c0,5.5,4.3,10,9.6,10h0c1.6,0,3-0.4,4.3-1.1
			c0.4-0.2,0.7-0.3,1.1-0.3c0.9,0,1.6,0.4,2.1,1.1l0.2,0.2l0,17.3c0,0.5,0.4,0.9,0.8,0.9l16,0l0.3,0h0.1h0.1c0.3,0,0.4-0.1,0.6-0.2
			c0.1-0.2,0.2-0.4,0.2-0.6l-0.2-0.5c-1.1-1.8-1.8-4-1.8-6.3c0-2.4,0.7-5,2.3-7.5l0,0l0,0c0.7-0.8,1.5-1.6,2.4-2.2l0,0l0,0
			c2.1-1.3,4.3-1.9,6.4-1.9h0h0c2.1,0,4.3,0.6,6.4,1.9l0,0l0,0c0.9,0.6,1.7,1.4,2.4,2.2l0,0l0,0c1.6,2.5,2.3,5.1,2.3,7.5
			c0,2.3-0.6,4.4-1.8,6.3l-0.2,0.5c0,0.2,0.1,0.5,0.2,0.6c0.1,0.1,0.3,0.2,0.6,0.2h0.2l0.1,0l0.2,0l16,0c0.4,0,0.8-0.4,0.9-0.9
			l0-15.6c-0.4,0-0.7,0.1-1.1,0.1h0c-0.7,0-1.2-0.1-1.6-0.2c-0.6,0.1-1.1,0.1-1.7,0.1c-2.3,0-4.8-0.7-7.2-2.4l-0.3-0.2
			c-0.5-0.4-1-0.8-1.3-1.4c-0.9-1.4-1.5-2.8-2-4.1c-0.1-0.4-0.2-0.9-0.3-1.3c-0.1-0.8-0.2-1.6-0.2-2.3
			C181.1,258.4,182.6,255.2,185,253.1z"/>
	</g>
</g>
<g id="multi_tenant" class="st1">
	<path class="st16" d="M170.5,278.7H59.8c-6.6,0-11.9-5.3-11.9-11.9v-99.7c0-6.6,5.3-11.9,11.9-11.9h110.6c6.6,0,11.9,5.3,11.9,11.9
		v99.7C182.3,273.3,177,278.7,170.5,278.7z"/>
	<path class="st17" d="M119.9,194.6H64.4c-1.7,0-3.1-1.4-3.1-3.1v-19.4c0-1.7,1.4-3.1,3.1-3.1h55.5c1.7,0,3.1,1.4,3.1,3.1v19.4
		C123,193.2,121.6,194.6,119.9,194.6z"/>
	<path class="st17" d="M119.9,265.6H64.4c-1.7,0-3.1-1.4-3.1-3.1v-19.4c0-1.7,1.4-3.1,3.1-3.1h55.5c1.7,0,3.1,1.4,3.1,3.1v19.4
		C123,264.2,121.6,265.6,119.9,265.6z"/>
	<path class="st17" d="M148.4,230.3H92.8c-1.7,0-3.1-1.4-3.1-3.1v-19.4c0-1.7,1.4-3.1,3.1-3.1h55.5c1.7,0,3.1,1.4,3.1,3.1v19.4
		C151.4,228.9,150,230.3,148.4,230.3z"/>
	<g id="Group_16" transform="translate(94 32)" class="st6">
		<ellipse id="Ellipse_1" class="st15" cx="211.2" cy="138.8" rx="64.7" ry="16.5"/>
		<path id="Subtraction_2" class="st18" d="M211.1,185.4c-8.3,0-16.7-0.4-25-1.3c-3.8-0.4-7.5-0.9-11-1.5c-3.4-0.6-6.7-1.3-9.5-2
			c-2.6-0.7-5.3-1.5-7.9-2.4c-2-0.8-4.1-1.7-6-2.8c-1.4-0.8-2.7-1.9-3.9-3.1c-0.8-0.9-1.4-2.1-1.4-3.3l0,0v-16.5l0,0
			c0.1-1.4,0.8-2.8,2.2-4.1c1.8,1.7,4.7,3.4,8.6,4.9c4.6,1.7,9.3,3,14.1,3.9c6.1,1.2,12.2,2,18.4,2.6c6.9,0.6,14.1,0.9,21.3,0.9
			c7.3,0,14.5-0.3,21.3-0.9c6.1-0.5,12.3-1.4,18.4-2.6c4.8-0.9,9.5-2.2,14.1-3.9c3.9-1.5,6.8-3.2,8.6-4.9c1.4,1.4,2.1,2.7,2.2,4.1
			l0,0v16.5l0,0c-0.1,1.2-0.6,2.4-1.4,3.3c-1.1,1.2-2.4,2.3-3.9,3.1c-1.9,1.1-3.9,2-6,2.8c-2.6,1-5.2,1.7-7.9,2.4
			c-3,0.8-6.1,1.4-9.5,2c-3.5,0.6-7.1,1.1-11,1.5C227.9,185,219.5,185.5,211.1,185.4z"/>
		<path id="Subtraction_3" class="st18" d="M211.1,214.6c-8.3,0-16.7-0.4-25-1.3c-3.8-0.4-7.5-0.9-11-1.5c-3.4-0.6-6.7-1.3-9.5-2
			c-2.6-0.7-5.3-1.5-7.9-2.4c-2-0.8-4.1-1.7-6-2.8c-1.4-0.8-2.7-1.9-3.9-3.1c-0.8-0.9-1.4-2.1-1.4-3.3l0,0v-16.5l0,0
			c0.1-1.4,0.8-2.8,2.2-4.1c1.8,1.7,4.7,3.4,8.6,4.9c4.6,1.7,9.3,3,14.1,3.9c6.1,1.2,12.2,2,18.4,2.6c6.9,0.6,14.1,0.9,21.3,0.9
			c7.3,0,14.5-0.3,21.3-0.9c6.1-0.5,12.3-1.4,18.4-2.6c4.8-0.9,9.5-2.2,14.1-3.9c3.9-1.5,6.8-3.2,8.6-4.9c1.4,1.4,2.1,2.7,2.2,4.1
			l0,0v16.5l0,0c-0.1,1.2-0.6,2.4-1.4,3.3c-1.1,1.2-2.4,2.3-3.9,3.1c-1.9,1.1-3.9,2-6,2.8c-2.6,1-5.2,1.7-7.9,2.4
			c-3,0.8-6.1,1.4-9.5,2c-3.5,0.6-7.1,1.1-11,1.5C227.9,214.1,219.5,214.6,211.1,214.6z"/>
		<path id="Subtraction_4" class="st18" d="M211.1,244.4c-8.3,0-16.7-0.4-25-1.3c-3.8-0.4-7.5-0.9-11-1.5c-3.4-0.6-6.7-1.3-9.5-2
			c-2.6-0.7-5.3-1.5-7.9-2.4c-2-0.8-4.1-1.7-6-2.8c-1.4-0.8-2.7-1.9-3.9-3.1c-0.8-0.9-1.4-2.1-1.4-3.3l0,0v-16.5l0,0
			c0.1-1.4,0.8-2.8,2.2-4.1c1.8,1.7,4.7,3.4,8.6,4.9c4.6,1.7,9.3,3,14.1,3.9c6.1,1.2,12.2,2,18.4,2.6c6.9,0.6,14.1,0.9,21.3,0.9
			c7.3,0,14.5-0.3,21.3-0.9c6.1-0.5,12.3-1.4,18.4-2.6c4.8-0.9,9.5-2.2,14.1-3.9c3.9-1.5,6.8-3.2,8.6-4.9c1.4,1.4,2.1,2.7,2.2,4.1
			l0,0v16.5l0,0c-0.1,1.2-0.6,2.4-1.4,3.3c-1.1,1.2-2.4,2.3-3.9,3.1c-1.9,1.1-3.9,2-6,2.8c-2.6,1-5.2,1.7-7.9,2.4
			c-3,0.8-6.1,1.4-9.5,2c-3.5,0.6-7.1,1.1-11,1.5C227.9,243.9,219.5,244.4,211.1,244.4z"/>
	</g>
	<g class="st6">
		<g>
			<path class="st19" d="M235.4,217.5c0,0-2.3,0.3-6,0.2"/>
			<path class="st20" d="M217.5,216.6c-9.7-1.7-21.7-5.8-32-15.4c-21.2-19.7-46.6-20.2-46.6-20.2s-0.7-0.1-2.1-0.3"/>
			<path class="st19" d="M130.8,180.3c-1.8-0.1-3.8-0.1-6,0"/>
		</g>
	</g>
	<g class="st6">
		<g>
			<line class="st19" x1="154.6" y1="217" x2="160.6" y2="217"/>
			<line class="st21" x1="174.4" y1="217.1" x2="222.6" y2="217.6"/>
			<path class="st19" d="M229.4,217.6l6,0.1c-2.2-0.1-4.2-0.2-6-0.2"/>
			<path class="st22" d="M217.5,217.8c-7.9,1-26.5,4.8-42.7,19.8c-12.5,11.6-27.6,15.2-37.9,16.2"/>
			<path class="st19" d="M130.8,254.2c-3.7,0.1-6-0.2-6-0.2"/>
		</g>
	</g>
	<circle class="st6" cx="229.8" cy="217.1" r="5.7"/>
</g>
<g id="headless" class="st1">
	<g class="st6">
		<path class="st15" d="M159.5,198.4h-26c-1.3,0-2.3-1-2.3-2.3v-46c0-1.3,1-2.3,2.3-2.3h26c1.3,0,2.3,1,2.3,2.3v46
			C161.8,197.4,160.8,198.4,159.5,198.4z"/>
		<rect x="133.7" y="151.4" width="25.6" height="40.2"/>
		<circle cx="146.5" cy="194.9" r="1.9"/>
	</g>
	<g class="st6">
		<path class="st23" d="M275.1,198.8h-5c-6.1,0-11.1-5-11.1-11.1v-37.7h27.2v37.7C286.2,193.8,281.2,198.8,275.1,198.8z"/>
		<ellipse class="st15" cx="272.6" cy="150.1" rx="13.6" ry="4.9"/>
		<g>
			<g id="XMLID_410_">
				<g id="XMLID_414_">
					<path id="XMLID_449_" d="M272.6,152.3c-1.1,0-2.1-0.3-2.9-0.8c-0.7-0.5-1.1-1.1-1.1-1.7c0-0.6,0.4-1.2,1.1-1.7
						c0.8-0.5,1.8-0.8,2.9-0.8c1.1,0,2.1,0.3,2.9,0.8c0.7,0.5,1.1,1.1,1.1,1.7c0,0.6-0.4,1.2-1.1,1.7
						C274.7,152,273.7,152.3,272.6,152.3L272.6,152.3z"/>
					<path id="XMLID_445_" d="M272.6,152.2c-1.1,0-2.1-0.3-2.8-0.8c-0.7-0.5-1.1-1-1.1-1.6c0-0.6,0.4-1.2,1.1-1.6
						c0.7-0.5,1.7-0.8,2.8-0.8c1.1,0,2.1,0.3,2.8,0.8c0.7,0.5,1.1,1,1.1,1.6c0,0.6-0.4,1.2-1.1,1.6
						C274.7,151.9,273.7,152.2,272.6,152.2L272.6,152.2z"/>
				</g>
				<g id="XMLID_411_">
					<path id="XMLID_413_" class="st8" d="M273.4,151.2h-0.7v-0.7c0,0,0,0,0,0c0.3,0,0.9-0.2,0.9-1c0,0,0-0.1-0.1-0.1
						c0,0-0.1,0-0.1,0.1c0,0.7-0.7,0.8-0.9,0.8c-0.2,0-0.8-0.1-0.9-0.8c0,0,0-0.1-0.1-0.1c0,0-0.1,0-0.1,0.1c0,0.8,0.6,0.9,0.9,1
						c0,0,0,0,0,0v0.7h-0.7c0,0,0,0-0.1,0s0,0,0,0.1c0,0,0,0.1,0.1,0.1h0.7h0.2h0.7c0,0,0,0,0.1,0
						C273.5,151.3,273.5,151.3,273.4,151.2C273.5,151.2,273.5,151.2,273.4,151.2z"/>
					<path id="XMLID_412_" class="st8" d="M272.6,150L272.6,150c-0.3,0-0.5-0.2-0.5-0.5v-1.2c0-0.3,0.2-0.5,0.5-0.5l0,0
						c0.3,0,0.5,0.2,0.5,0.5v1.2C273.2,149.8,272.9,150,272.6,150z"/>
				</g>
			</g>
			<path id="XMLID_1_" d="M264.1,151.1c-0.6,0-1.1-0.1-1.5-0.4c-0.4-0.2-0.6-0.5-0.6-0.9c0-0.3,0.2-0.6,0.6-0.9
				c0.4-0.3,0.9-0.4,1.5-0.4c0.6,0,1.1,0.1,1.5,0.4c0.4,0.2,0.6,0.5,0.6,0.9c0,0.3-0.2,0.6-0.6,0.9
				C265.2,150.9,264.7,151.1,264.1,151.1L264.1,151.1z"/>
			<g id="XMLID_406_">
				<path id="XMLID_407_" class="st24" d="M263.3,149.8h1.6H263.3z"/>
			</g>
			<g id="XMLID_401_">
				<path id="XMLID_404_" d="M281.1,151.1c-0.6,0-1.1-0.1-1.5-0.4c-0.4-0.2-0.6-0.5-0.6-0.9c0-0.3,0.2-0.6,0.6-0.9
					c0.4-0.3,0.9-0.4,1.5-0.4c0.6,0,1.1,0.1,1.5,0.4c0.4,0.2,0.6,0.5,0.6,0.9c0,0.3-0.2,0.6-0.6,0.9
					C282.2,150.9,281.7,151.1,281.1,151.1L281.1,151.1z"/>
				<path id="XMLID_403_" class="st24" d="M280.3,149.8h1.6H280.3z"/>
				<path id="XMLID_402_" class="st24" d="M281.1,150.6V149V150.6z"/>
			</g>
		</g>
	</g>
	<g id="Group_16_1_" transform="translate(94 32)" class="st6">
		<ellipse id="Ellipse_1_1_" cx="114.5" cy="230.7" rx="23.8" ry="6.1"/>
		<path id="Subtraction_2_1_" d="M114.5,247.8c-3.1,0-6.2-0.1-9.2-0.5c-1.4-0.1-2.8-0.3-4-0.6c-1.3-0.2-2.5-0.5-3.5-0.8
			c-1-0.3-2-0.6-2.9-0.9c-0.8-0.3-1.5-0.6-2.2-1c-0.5-0.3-1-0.7-1.4-1.1c-0.3-0.3-0.5-0.8-0.5-1.2l0,0v-6.1l0,0c0-0.5,0.3-1,0.8-1.5
			c0.7,0.6,1.7,1.3,3.2,1.8c1.7,0.6,3.4,1.1,5.2,1.4c2.2,0.4,4.5,0.8,6.8,0.9c2.5,0.2,5.2,0.3,7.9,0.3c2.7,0,5.4-0.1,7.9-0.3
			c2.3-0.2,4.5-0.5,6.8-0.9c1.8-0.3,3.5-0.8,5.2-1.4c1.4-0.6,2.5-1.2,3.2-1.8c0.5,0.5,0.8,1,0.8,1.5l0,0v6.1l0,0
			c0,0.4-0.2,0.9-0.5,1.2c-0.4,0.4-0.9,0.8-1.4,1.1c-0.7,0.4-1.4,0.8-2.2,1c-0.9,0.4-1.9,0.6-2.9,0.9c-1.1,0.3-2.3,0.5-3.5,0.8
			c-1.3,0.2-2.6,0.4-4,0.6C120.6,247.7,117.5,247.9,114.5,247.8z"/>
		<path id="Subtraction_3_1_" d="M114.5,258.6c-3.1,0-6.2-0.1-9.2-0.5c-1.4-0.1-2.8-0.3-4-0.6c-1.3-0.2-2.5-0.5-3.5-0.8
			c-1-0.3-2-0.6-2.9-0.9c-0.8-0.3-1.5-0.6-2.2-1c-0.5-0.3-1-0.7-1.4-1.1c-0.3-0.3-0.5-0.8-0.5-1.2l0,0v-6.1l0,0c0-0.5,0.3-1,0.8-1.5
			c0.7,0.6,1.7,1.3,3.2,1.8c1.7,0.6,3.4,1.1,5.2,1.4c2.2,0.4,4.5,0.8,6.8,0.9c2.5,0.2,5.2,0.3,7.9,0.3c2.7,0,5.4-0.1,7.9-0.3
			c2.3-0.2,4.5-0.5,6.8-0.9c1.8-0.3,3.5-0.8,5.2-1.4c1.4-0.6,2.5-1.2,3.2-1.8c0.5,0.5,0.8,1,0.8,1.5l0,0v6.1l0,0
			c0,0.4-0.2,0.9-0.5,1.2c-0.4,0.4-0.9,0.8-1.4,1.1c-0.7,0.4-1.4,0.8-2.2,1c-0.9,0.4-1.9,0.6-2.9,0.9c-1.1,0.3-2.3,0.5-3.5,0.8
			c-1.3,0.2-2.6,0.4-4,0.6C120.6,258.4,117.5,258.6,114.5,258.6z"/>
		<path id="Subtraction_4_1_" d="M114.5,269.6c-3.1,0-6.2-0.1-9.2-0.5c-1.4-0.1-2.8-0.3-4-0.6c-1.3-0.2-2.5-0.5-3.5-0.8
			c-1-0.3-2-0.6-2.9-0.9c-0.8-0.3-1.5-0.6-2.2-1c-0.5-0.3-1-0.7-1.4-1.1c-0.3-0.3-0.5-0.8-0.5-1.2l0,0v-6.1l0,0c0-0.5,0.3-1,0.8-1.5
			c0.7,0.6,1.7,1.3,3.2,1.8c1.7,0.6,3.4,1.1,5.2,1.4c2.2,0.4,4.5,0.8,6.8,0.9c2.5,0.2,5.2,0.3,7.9,0.3c2.7,0,5.4-0.1,7.9-0.3
			c2.3-0.2,4.5-0.5,6.8-0.9c1.8-0.3,3.5-0.8,5.2-1.4c1.4-0.6,2.5-1.2,3.2-1.8c0.5,0.5,0.8,1,0.8,1.5l0,0v6.1l0,0
			c0,0.4-0.2,0.9-0.5,1.2c-0.4,0.4-0.9,0.8-1.4,1.1c-0.7,0.4-1.4,0.8-2.2,1c-0.9,0.4-1.9,0.6-2.9,0.9c-1.1,0.3-2.3,0.5-3.5,0.8
			c-1.3,0.2-2.6,0.4-4,0.6C120.6,269.4,117.5,269.6,114.5,269.6z"/>
	</g>
	<g class="st6">
		<g>
			<path class="st7" d="M210.4,212.3c0.5,0,0.9-0.2,1.2-0.5c0.3-0.3,0.5-0.7,0.5-1.2c0-0.5-0.2-0.9-0.5-1.2
				c-0.3-0.3-0.7-0.5-1.2-0.5c-0.5,0-0.9,0.2-1.2,0.5c-0.3,0.3-0.5,0.7-0.5,1.2s0.2,0.9,0.5,1.2
				C209.5,212.1,209.9,212.3,210.4,212.3z"/>
		</g>
		<g>
			<path class="st7" d="M202.4,225.3c-0.3,0-0.7,0-1-0.1c-4.4-0.6-8.8-2.5-12.2-5.2c-0.8-0.7-1.9-1.6-2.5-3c-0.9-1.8-0.4-3.6,0-5
				l0-0.1c1.9-6.6,7-11.5,12.8-12.4l0,0c1.7-0.3,3.4,0.8,3.9,2.4c1,3.1,1.7,6.2,2.2,8.8l0.2,1c0.7,3,1.4,6.4,0.7,9.7
				c-0.4,1.8-1.5,3.1-3,3.6C203.3,225.3,202.8,225.3,202.4,225.3z M200.2,203c-5.5,0.8-8.8,5.9-10.1,10l0,0.1
				c-0.3,1.2-0.5,1.9-0.2,2.5c0.3,0.6,0.8,1.2,1.6,1.8c2.8,2.3,6.6,3.9,10.4,4.4c0.2,0,0.6,0.1,0.8,0c0.2-0.1,0.5-0.5,0.7-1
				c0.6-2.6-0.1-5.5-0.7-8.3l-0.2-1c-0.5-2.5-1.2-5.5-2.1-8.5C200.3,203,200.3,203,200.2,203L200.2,203z"/>
		</g>
		<g>
			<path class="st7" d="M216.2,253.9c-0.8,0-1.4-0.5-1.6-1.2c-0.4-1.5-0.9-3-1.3-4.5c-0.7-2.4-1.5-4.9-2.1-7.4
				c-0.2-0.8-0.6-1.9-1-3.1c-0.5-1.5-1-3.1-1.2-4.3c-0.1-0.5-0.2-0.9-0.3-1.3c-0.3-1-0.6-2-0.4-3.5c0.1-1.2,0.6-2.2,1.5-3
				c1.7-1.4,4.3-1.3,6.4-1.2c0.5,0,0.9,0,1.3,0.1c1.4,0,2.8-0.1,4-0.9c3.8-2.5,5.7-6,6-10.7c0-0.2,0-0.4-0.2-0.7
				c-0.3-0.3-0.5-0.5-0.7-0.5l-9.3-1.1c-0.9-0.1-2.1-0.2-3.1-1.5c-0.2-0.3-0.4-0.5-0.5-0.8c-0.1-0.1-0.1-0.2-0.2-0.3
				c-0.7-1.1-2-1.6-3.6-2.3c-0.6-0.2-1.2-0.5-1.8-0.7l-0.6-0.2l0,0c-0.7-0.2-3.7-1-5.4-1.3c-0.2,0-0.3-0.1-0.4-0.1
				c-0.5-0.1-0.9-0.2-1.2-0.3c-0.8-0.2-1.3-0.9-1.3-1.7c0-0.1,0-0.3,0-0.4c0.2-0.9,1.2-1.5,2.1-1.3c0.2,0.1,0.6,0.1,1.1,0.3
				c2.7,0.6,5.3,1.2,6.2,1.5l0.6,0.2c0.6,0.2,1.2,0.5,1.9,0.7c1.6,0.7,3.9,1.5,5.3,3.6c0.1,0.1,0.2,0.3,0.3,0.4
				c0.1,0.2,0.2,0.3,0.3,0.5c0.1,0.1,0.2,0.1,0.8,0.2l9.4,1.1c0.1,0,0.1,0,0.2,0c1.1,0.2,2,0.8,2.7,1.7c0.7,0.8,1.1,1.9,1,3
				c-0.3,5.7-2.8,10.2-7.5,13.3c-1.9,1.3-4.1,1.5-5.9,1.5c-0.5,0-1,0-1.5-0.1c-1.2-0.1-3.3-0.2-3.9,0.4c-0.2,0.2-0.3,0.4-0.3,0.7
				c-0.1,0.9,0.1,1.4,0.3,2.2c0.1,0.5,0.3,1,0.4,1.6c0.2,1,0.7,2.5,1.2,3.9c0.4,1.2,0.8,2.4,1,3.4c0.6,2.4,1.3,4.9,2,7.3
				c0.3,1,0.6,2,0.9,3.1c2.7-0.6,5.4-2.1,7.4-3.3c1.1-0.7,2.1-1.4,3.1-2.1c4.3-3.4,7.7-7.7,10-12.4c0.2-0.5,0.4-1,0.6-1.5l0-0.1
				c0.1-0.3,0.2-0.5,0.3-0.8l0.1-0.2c1.2-3.3,1.8-6.8,1.8-10.4c0,0,0,0,0-0.1v-0.1c0-17.8-14.4-32.3-32.2-32.3s-32.2,14.5-32.2,32.3
				c0,7.2,2.4,14.1,6.7,19.7c0.4-0.5,0.8-1,1.2-1.4l0.3-0.3c0.9-1,1.7-1.9,2.3-2.9c1.4-2.4,1.8-5.5,2.2-8.5c0.1-0.7,0.2-1.4,0.3-2.2
				s0.2-2.5,0.2-3.4c0-1,0.8-1.7,1.7-1.7h0c1,0,1.7,0.8,1.7,1.7c0,0.9-0.1,2.9-0.2,3.9c-0.1,0.7-0.2,1.4-0.3,2.1
				c-0.4,3.3-0.9,6.8-2.7,9.8c-0.8,1.3-1.8,2.4-2.7,3.4l-0.3,0.3c-0.5,0.6-1,1.2-1.5,1.8c-0.3,0.4-0.6,0.7-0.9,1.1
				c0,0-0.1,0.1-0.1,0.1c-0.1,0.1-0.3,0.3-0.5,0.3c-0.2,0.1-0.5,0.2-0.7,0.2c-0.2,0-0.5-0.1-0.8-0.2c-0.2-0.1-0.3-0.2-0.5-0.3
				c0,0-0.1-0.1-0.1-0.1c-5.7-6.5-8.9-14.9-8.9-23.5c0-19.6,16-35.6,35.6-35.6s35.6,16,35.6,35.6v0.2c0,0,0,0.1,0,0.1l0,0
				c0,3.9-0.7,7.8-2,11.5l-0.1,0.2c-0.1,0.3-0.2,0.6-0.3,0.9l0,0.1c-0.2,0.6-0.5,1.1-0.7,1.6c-2.4,5.3-6.2,10-10.9,13.7
				c-1.1,0.8-2.2,1.6-3.4,2.4c-2.6,1.5-6.5,3.6-10.2,4C216.3,253.9,216.3,253.9,216.2,253.9z"/>
		</g>
	</g>
	<g class="st6">
		<path class="st8" d="M208.7,154c16.8,0,32.1,6.4,43.6,16.9v-4.9c-11.9-9.8-27.1-15.7-43.6-15.7c-15.8,0-30.4,5.4-42.1,14.4v4.8
			C178,159.8,192.7,154,208.7,154z"/>
		<path class="st8" d="M273.7,219c0,25.3-14.5,47.3-35.7,58v4.2c23.3-11,39.4-34.7,39.4-62.2c0-5.5-0.7-10.8-1.9-16h-3.8
			C273,208.1,273.7,213.4,273.7,219z"/>
		<path class="st8" d="M143.7,219c0-5.5,0.7-10.9,2-16h-3.8c-1.2,5.1-1.9,10.5-1.9,16c0,27.2,15.9,50.8,38.9,61.9v-4.2
			C158,265.8,143.7,244,143.7,219z"/>
	</g>
	<g class="st6">
		<path d="M135.4,231.1v8.1h-2.2v-6.1h0l-1.8,1.1v-1.9l2-1.2H135.4z"/>
		<path d="M140.6,239.4c-0.7,0-1.4-0.2-1.9-0.5c-0.5-0.3-1-0.8-1.2-1.5c-0.3-0.6-0.4-1.4-0.4-2.3c0-0.9,0.1-1.7,0.4-2.3
			c0.3-0.6,0.7-1.1,1.2-1.4c0.5-0.3,1.2-0.5,1.9-0.5c0.7,0,1.4,0.2,1.9,0.5c0.5,0.3,1,0.8,1.2,1.4c0.3,0.6,0.4,1.4,0.4,2.3
			c0,0.9-0.1,1.7-0.4,2.3c-0.3,0.6-0.7,1.1-1.2,1.5C141.9,239.2,141.3,239.4,140.6,239.4z M140.6,237.6c0.4,0,0.7-0.2,0.9-0.6
			c0.2-0.4,0.4-1,0.4-1.9c0-0.8-0.1-1.4-0.4-1.8c-0.2-0.4-0.6-0.6-0.9-0.6c-0.4,0-0.7,0.2-0.9,0.6c-0.2,0.4-0.4,1-0.4,1.8
			c0,0.9,0.1,1.5,0.4,1.9C139.9,237.4,140.2,237.6,140.6,237.6z"/>
		<path d="M149.2,231.1v8.1H147v-6.1h0l-1.8,1.1v-1.9l2-1.2H149.2z"/>
		<path d="M154.4,239.4c-0.7,0-1.4-0.2-1.9-0.5c-0.5-0.3-1-0.8-1.2-1.5c-0.3-0.6-0.4-1.4-0.4-2.3c0-0.9,0.1-1.7,0.4-2.3
			c0.3-0.6,0.7-1.1,1.2-1.4c0.5-0.3,1.2-0.5,1.9-0.5c0.7,0,1.4,0.2,1.9,0.5c0.5,0.3,1,0.8,1.2,1.4c0.3,0.6,0.4,1.4,0.4,2.3
			c0,0.9-0.1,1.7-0.4,2.3c-0.3,0.6-0.7,1.1-1.2,1.5C155.7,239.2,155.1,239.4,154.4,239.4z M154.4,237.6c0.4,0,0.7-0.2,0.9-0.6
			c0.2-0.4,0.4-1,0.4-1.9c0-0.8-0.1-1.4-0.4-1.8c-0.2-0.4-0.6-0.6-0.9-0.6c-0.4,0-0.7,0.2-0.9,0.6c-0.2,0.4-0.4,1-0.4,1.8
			c0,0.9,0.1,1.5,0.4,1.9C153.7,237.4,154,237.6,154.4,237.6z"/>
	</g>
	<g class="st6">
		<path d="M264.4,231.1v8.1h-2.2v-6.1h0l-1.8,1.1v-1.9l2-1.2H264.4z"/>
		<path d="M269.6,239.4c-0.7,0-1.4-0.2-1.9-0.5c-0.5-0.3-1-0.8-1.2-1.5c-0.3-0.6-0.4-1.4-0.4-2.3c0-0.9,0.1-1.7,0.4-2.3
			c0.3-0.6,0.7-1.1,1.2-1.4c0.5-0.3,1.2-0.5,1.9-0.5c0.7,0,1.4,0.2,1.9,0.5c0.5,0.3,1,0.8,1.2,1.4c0.3,0.6,0.4,1.4,0.4,2.3
			c0,0.9-0.1,1.7-0.4,2.3s-0.7,1.1-1.2,1.5C271,239.2,270.3,239.4,269.6,239.4z M269.6,237.6c0.4,0,0.7-0.2,0.9-0.6
			c0.2-0.4,0.4-1,0.4-1.9c0-0.8-0.1-1.4-0.4-1.8c-0.2-0.4-0.6-0.6-0.9-0.6c-0.4,0-0.7,0.2-0.9,0.6c-0.2,0.4-0.4,1-0.4,1.8
			c0,0.9,0.1,1.5,0.4,1.9C268.9,237.4,269.2,237.6,269.6,237.6z"/>
		<path d="M278.2,231.1v8.1H276v-6.1h0l-1.8,1.1v-1.9l2-1.2H278.2z"/>
		<path d="M283.4,239.4c-0.7,0-1.4-0.2-1.9-0.5c-0.5-0.3-1-0.8-1.2-1.5c-0.3-0.6-0.4-1.4-0.4-2.3c0-0.9,0.1-1.7,0.4-2.3
			c0.3-0.6,0.7-1.1,1.2-1.4c0.5-0.3,1.2-0.5,1.9-0.5c0.7,0,1.4,0.2,1.9,0.5c0.5,0.3,1,0.8,1.2,1.4c0.3,0.6,0.4,1.4,0.4,2.3
			c0,0.9-0.1,1.7-0.4,2.3c-0.3,0.6-0.7,1.1-1.2,1.5C284.8,239.2,284.1,239.4,283.4,239.4z M283.4,237.6c0.4,0,0.7-0.2,0.9-0.6
			c0.2-0.4,0.4-1,0.4-1.9c0-0.8-0.1-1.4-0.4-1.8c-0.2-0.4-0.6-0.6-0.9-0.6c-0.4,0-0.7,0.2-0.9,0.6c-0.2,0.4-0.4,1-0.4,1.8
			c0,0.9,0.1,1.5,0.4,1.9C282.7,237.4,283,237.6,283.4,237.6z"/>
	</g>
	<g class="st6">
		<path d="M199.2,148v8.1H197V150h0l-1.8,1.1v-1.9l2-1.2H199.2z"/>
		<path d="M204.4,156.3c-0.7,0-1.4-0.2-1.9-0.5s-1-0.8-1.2-1.5c-0.3-0.6-0.4-1.4-0.4-2.3c0-0.9,0.1-1.7,0.4-2.3
			c0.3-0.6,0.7-1.1,1.2-1.4c0.5-0.3,1.2-0.5,1.9-0.5c0.7,0,1.4,0.2,1.9,0.5c0.5,0.3,1,0.8,1.2,1.4c0.3,0.6,0.4,1.4,0.4,2.3
			c0,0.9-0.1,1.7-0.4,2.3c-0.3,0.6-0.7,1.1-1.2,1.5C205.8,156.2,205.1,156.3,204.4,156.3z M204.4,154.5c0.4,0,0.7-0.2,0.9-0.6
			c0.2-0.4,0.4-1,0.4-1.9c0-0.8-0.1-1.4-0.4-1.8c-0.2-0.4-0.6-0.6-0.9-0.6c-0.4,0-0.7,0.2-0.9,0.6c-0.2,0.4-0.4,1-0.4,1.8
			c0,0.9,0.1,1.5,0.4,1.9C203.7,154.3,204,154.5,204.4,154.5z"/>
		<path d="M213,148v8.1h-2.2V150h0l-1.8,1.1v-1.9l2-1.2H213z"/>
		<path d="M218.2,156.3c-0.7,0-1.4-0.2-1.9-0.5s-1-0.8-1.2-1.5c-0.3-0.6-0.4-1.4-0.4-2.3c0-0.9,0.1-1.7,0.4-2.3
			c0.3-0.6,0.7-1.1,1.2-1.4c0.5-0.3,1.2-0.5,1.9-0.5c0.7,0,1.4,0.2,1.9,0.5c0.5,0.3,1,0.8,1.2,1.4c0.3,0.6,0.4,1.4,0.4,2.3
			c0,0.9-0.1,1.7-0.4,2.3c-0.3,0.6-0.7,1.1-1.2,1.5C219.6,156.2,218.9,156.3,218.2,156.3z M218.2,154.5c0.4,0,0.7-0.2,0.9-0.6
			c0.2-0.4,0.4-1,0.4-1.9c0-0.8-0.1-1.4-0.4-1.8c-0.2-0.4-0.6-0.6-0.9-0.6c-0.4,0-0.7,0.2-0.9,0.6c-0.2,0.4-0.4,1-0.4,1.8
			c0,0.9,0.1,1.5,0.4,1.9C217.5,154.3,217.8,154.5,218.2,154.5z"/>
	</g>
</g>
</svg>
