<svg xmlns="http://www.w3.org/2000/svg" xmlns:xlink="http://www.w3.org/1999/xlink" width="80" height="80" viewBox="0 0 80 80">
  <defs>
    <clipPath id="clip-Artboard_9">
      <rect width="80" height="80"/>
    </clipPath>
  </defs>
  <g id="Artboard_9" data-name="Artboard – 9" clip-path="url(#clip-Artboard_9)">
    <g id="Group_289" data-name="Group 289" transform="translate(-3.031 -0.608)">
      <g id="Livello_2" transform="translate(15.964 20.659)">
        <g id="Group_284" data-name="Group 284" transform="translate(0 0)">
          <g id="Group_280" data-name="Group 280" transform="translate(18.926 33.244)">
            <path id="Path_304" data-name="Path 304" d="M70.784,105.952H54.5V94.4H70.784Zm-12.72-3.564H67.22V97.964H58.064Z" transform="translate(-54.5 -94.4)" fill="#d21317"/>
          </g>
          <g id="Group_281" data-name="Group 281" transform="translate(13.642 41.232)">
            <path id="Path_305" data-name="Path 305" d="M70.971,110.964H47.682a1.782,1.782,0,0,1,0-3.564H70.971a1.782,1.782,0,1,1,0,3.564Z" transform="translate(-45.9 -107.4)" fill="#d21317"/>
          </g>
          <g id="Group_283" data-name="Group 283">
            <g id="Group_282" data-name="Group 282">
              <path id="Path_306" data-name="Path 306" d="M60.139,40.3H27.94a4.248,4.248,0,0,0-4.24,4.24V72.806a4.248,4.248,0,0,0,4.24,4.24H73.6a4.248,4.248,0,0,0,4.24-4.24V62.36H74.272V72.806a.682.682,0,0,1-.676.676H27.94a.682.682,0,0,1-.676-.676V44.478a.682.682,0,0,1,.676-.676h32.2Z" transform="translate(-23.7 -40.3)" fill="#d21317"/>
            </g>
          </g>
        </g>
      </g>
      <g id="Group_287" data-name="Group 287" transform="translate(43.031 29.53) rotate(90)">
        <g id="Group_285" data-name="Group 285" transform="translate(0 6.095)">
          <path id="Path_300" data-name="Path 300" d="M1.782,11.614A1.783,1.783,0,0,1,0,9.832V1.782a1.782,1.782,0,0,1,3.564,0v8.05A1.783,1.783,0,0,1,1.782,11.614Z" fill="#d21317"/>
        </g>
        <g id="Group_286" data-name="Group 286" transform="translate(7.435 0.196)">
          <path id="Path_301" data-name="Path 301" d="M1.782,17.513A1.783,1.783,0,0,1,0,15.731V1.782a1.782,1.782,0,1,1,3.564,0V15.731A1.783,1.783,0,0,1,1.782,17.513Z" fill="#d21317"/>
        </g>
        <g id="Group_288" data-name="Group 288" transform="translate(14.87)">
          <path id="Path_301-2" data-name="Path 301" d="M1.782,17.513A1.783,1.783,0,0,1,0,15.731V1.782a1.782,1.782,0,1,1,3.564,0V15.731A1.783,1.783,0,0,1,1.782,17.513Z" fill="#d21317"/>
        </g>
      </g>
      <path id="Path_297" data-name="Path 297" d="M5502.924,3824l-14.642,17.546h8.1l-8.1,14.658,17.854-18.377h-7.38Z" transform="translate(-5438.33 -3808.239)" fill="#d21317" stroke="#d21317" stroke-linejoin="round" stroke-width="2"/>
    </g>
  </g>
</svg>
