<svg xmlns="http://www.w3.org/2000/svg" xmlns:xlink="http://www.w3.org/1999/xlink" width="432" height="432" viewBox="0 0 432 432">
  <defs>
    <clipPath id="clip-path">
      <rect id="Rectangle_35" data-name="Rectangle 35" width="432" height="432" transform="translate(193.001)" fill="#dadada"/>
    </clipPath>
    <clipPath id="clip-Artboard_3">
      <rect width="432" height="432"/>
    </clipPath>
  </defs>
  <g id="Artboard_3" data-name="Artboard – 3" clip-path="url(#clip-Artboard_3)">
    <rect width="432" height="432" fill="#fff"/>
    <g id="Group_247" data-name="Group 247">
      <g id="Livello_9" transform="translate(0.001)">
        <rect id="Rectangle_32" data-name="Rectangle 32" width="432" height="432" fill="#dadada"/>
      </g>
      <g id="Mask_Group_2" data-name="Mask Group 2" transform="translate(-193)" clip-path="url(#clip-path)">
        <g id="Livello_10" transform="translate(197.001 22)">
          <path id="Path_229" data-name="Path 229" d="M-177,184.6c-.2.2,37.6,14.3,40.2,14.9,39.7,8.4,81.3,3.6,120-7.4C20.7,181.5,56,164.8,89.4,144.8c20.3-12.1,40.4-24.9,62.3-33.9,20.4-8.4,42.8-13.6,64.3-18.7,50-11.8,102.2-17.9,153.4-11.9C487.3,94.2,15.6,6.1,15.6,6.1S-176.8,184.4-177,184.6Z" fill="none" stroke="#fff" stroke-miterlimit="10" stroke-width="1"/>
          <path id="Path_230" data-name="Path 230" d="M-111.6,225.9c-.2.2,37.6,14.3,40.2,14.9,39.7,8.4,81.3,3.6,120-7.4,49.7-14.1,92.7-40.3,137.3-65.5,30.1-17,61.9-26.5,95.4-34.4,50-11.8,102.2-17.9,153.4-11.9C552.8,135.5,81,47.4,81,47.4S-111.4,225.7-111.6,225.9Z" fill="none" stroke="#fff" stroke-miterlimit="10" stroke-width="1" opacity="0.2"/>
          <path id="Path_231" data-name="Path 231" d="M634,237.9c.2-.2-37.6-14.3-40.2-14.9-39.7-8.4-81.3-3.6-120,7.4C436.3,241,401,257.7,367.6,277.7c-20.3,12.1-40.4,24.9-62.3,33.9-20.4,8.4-42.8,13.6-64.3,18.7-50,11.8-102.2,17.9-153.4,11.9-117.9-13.8,353.8,74.3,353.8,74.3S633.8,238.1,634,237.9Z" fill="none" stroke="#fff" stroke-miterlimit="10" stroke-width="1"/>
          <path id="Path_232" data-name="Path 232" d="M530.9,198.5c.2-.2-37.6-14.3-40.2-14.9-76.9-16.3-157.6,14.4-222.8,53.5-11.1,6.7-22.6,12.8-33.9,19.2a314.241,314.241,0,0,1-30.7,15.4A260.891,260.891,0,0,1,171,282.6C110.6,299.3,47.2,310-15.5,302.7-133.4,288.9,338.3,377,338.3,377S530.7,198.7,530.9,198.5Z" fill="none" stroke="#fff" stroke-miterlimit="10" stroke-width="1" opacity="0.2"/>
        </g>
      </g>
      <g id="headless" transform="translate(-87.999 1.65)">
        <g id="Group_230" data-name="Group 230" transform="translate(-11.551 -31.683)">
          <path id="Path_233" data-name="Path 233" d="M159.5,198.4h-26a2.263,2.263,0,0,1-2.3-2.3v-46a2.263,2.263,0,0,1,2.3-2.3h26a2.263,2.263,0,0,1,2.3,2.3v46A2.263,2.263,0,0,1,159.5,198.4Z" fill="#b2b2b2"/>
          <rect id="Rectangle_33" data-name="Rectangle 33" width="25.6" height="40.2" transform="translate(133.7 151.4)"/>
          <circle id="Ellipse_7" data-name="Ellipse 7" cx="1.9" cy="1.9" r="1.9" transform="translate(144.6 193)"/>
        </g>
        <g id="Group_232" data-name="Group 232" transform="translate(-137.651 113.783)">
          <path id="Path_234" data-name="Path 234" d="M275.1,198.8h-5A11.139,11.139,0,0,1,259,187.7V150h27.2v37.7A11.139,11.139,0,0,1,275.1,198.8Z" fill="#878787"/>
          <ellipse id="Ellipse_8" data-name="Ellipse 8" cx="13.6" cy="4.9" rx="13.6" ry="4.9" transform="translate(259 145.2)" fill="#b2b2b2"/>
          <g id="Group_231" data-name="Group 231">
            <g id="XMLID_410_">
              <g id="XMLID_414_">
                <path id="XMLID_449_" d="M272.6,152.3a5.467,5.467,0,0,1-2.9-.8,1.864,1.864,0,0,1,0-3.4,5.656,5.656,0,0,1,5.8,0,1.864,1.864,0,0,1,0,3.4,5.467,5.467,0,0,1-2.9.8Z"/>
                <path id="XMLID_445_" d="M272.6,152.2a4.878,4.878,0,0,1-2.8-.8,2.077,2.077,0,0,1-1.1-1.6,1.938,1.938,0,0,1,1.1-1.6,5.3,5.3,0,0,1,5.6,0,2.077,2.077,0,0,1,1.1,1.6,1.938,1.938,0,0,1-1.1,1.6,4.878,4.878,0,0,1-2.8.8Z"/>
              </g>
              <g id="XMLID_411_">
                <path id="XMLID_413_" d="M273.4,151.2h-.7v-.7h0a.912.912,0,0,0,.9-1,.1.1,0,0,0-.2,0c0,.7-.7.8-.9.8a.894.894,0,0,1-.9-.8.1.1,0,0,0-.2,0c0,.8.6.9.9,1h0v.7h-.8c-.1,0,0,0,0,.1a.1.1,0,0,0,.1.1h1.7c.2-.1.2-.1.1-.2Z" fill="#fff"/>
                <path id="XMLID_412_" d="M272.6,150h0a.472.472,0,0,1-.5-.5v-1.2a.472.472,0,0,1,.5-.5h0a.472.472,0,0,1,.5.5v1.2C273.2,149.8,272.9,150,272.6,150Z" fill="#fff"/>
              </g>
            </g>
            <path id="XMLID_1_" d="M264.1,151.1a2.41,2.41,0,0,1-1.5-.4.961.961,0,0,1-.6-.9,1.209,1.209,0,0,1,.6-.9,3.013,3.013,0,0,1,3,0,.961.961,0,0,1,.6.9,1.209,1.209,0,0,1-.6.9,3.313,3.313,0,0,1-1.5.4Z"/>
            <g id="XMLID_406_">
              <path id="XMLID_407_" d="M263.3,149.8h0Z" fill="none" stroke="#fff" stroke-linecap="round" stroke-miterlimit="10" stroke-width="0.605"/>
            </g>
            <g id="XMLID_401_">
              <path id="XMLID_404_" d="M281.1,151.1a2.41,2.41,0,0,1-1.5-.4.961.961,0,0,1-.6-.9,1.209,1.209,0,0,1,.6-.9,3.013,3.013,0,0,1,3,0,.961.961,0,0,1,.6.9,1.209,1.209,0,0,1-.6.9,3.313,3.313,0,0,1-1.5.4Z"/>
              <path id="XMLID_403_" d="M280.3,149.8h0Z" fill="none" stroke="#fff" stroke-linecap="round" stroke-miterlimit="10" stroke-width="0.605"/>
              <path id="XMLID_402_" d="M281.1,150.6v0Z" fill="none" stroke="#fff" stroke-linecap="round" stroke-miterlimit="10" stroke-width="0.605"/>
            </g>
          </g>
        </g>
        <g id="Group_16_1_" transform="translate(349.749 -34.6)">
          <ellipse id="Ellipse_1_1_" cx="23.8" cy="6.1" rx="23.8" ry="6.1" transform="translate(90.7 224.6)"/>
          <path id="Subtraction_2_1_" d="M114.5,247.8a69.97,69.97,0,0,1-9.2-.5,24,24,0,0,1-4-.6,26.093,26.093,0,0,1-3.5-.8c-1-.3-2-.6-2.9-.9a14.723,14.723,0,0,1-2.2-1,7.551,7.551,0,0,1-1.4-1.1,1.845,1.845,0,0,1-.5-1.2h0v-6.1h0a2.244,2.244,0,0,1,.8-1.5,9.3,9.3,0,0,0,3.2,1.8,30.679,30.679,0,0,0,5.2,1.4,50.561,50.561,0,0,0,6.8.9c2.5.2,5.2.3,7.9.3s5.4-.1,7.9-.3c2.3-.2,4.5-.5,6.8-.9a30.681,30.681,0,0,0,5.2-1.4,12.956,12.956,0,0,0,3.2-1.8,2.244,2.244,0,0,1,.8,1.5h0v6.1h0a1.845,1.845,0,0,1-.5,1.2,7.551,7.551,0,0,1-1.4,1.1,8.754,8.754,0,0,1-2.2,1,24.573,24.573,0,0,1-2.9.9c-1.1.3-2.3.5-3.5.8-1.3.2-2.6.4-4,.6A65.062,65.062,0,0,1,114.5,247.8Z"/>
          <path id="Subtraction_3_1_" d="M114.5,258.6a69.97,69.97,0,0,1-9.2-.5,23.993,23.993,0,0,1-4-.6,26.1,26.1,0,0,1-3.5-.8c-1-.3-2-.6-2.9-.9a14.723,14.723,0,0,1-2.2-1,7.551,7.551,0,0,1-1.4-1.1,1.845,1.845,0,0,1-.5-1.2h0v-6.1h0a2.244,2.244,0,0,1,.8-1.5,9.3,9.3,0,0,0,3.2,1.8,30.679,30.679,0,0,0,5.2,1.4,50.561,50.561,0,0,0,6.8.9c2.5.2,5.2.3,7.9.3s5.4-.1,7.9-.3c2.3-.2,4.5-.5,6.8-.9a30.681,30.681,0,0,0,5.2-1.4,12.956,12.956,0,0,0,3.2-1.8,2.244,2.244,0,0,1,.8,1.5h0v6.1h0a1.845,1.845,0,0,1-.5,1.2,7.551,7.551,0,0,1-1.4,1.1,8.754,8.754,0,0,1-2.2,1,24.573,24.573,0,0,1-2.9.9c-1.1.3-2.3.5-3.5.8-1.3.2-2.6.4-4,.6C120.6,258.4,117.5,258.6,114.5,258.6Z"/>
          <path id="Subtraction_4_1_" d="M114.5,269.6a69.97,69.97,0,0,1-9.2-.5,23.993,23.993,0,0,1-4-.6,26.1,26.1,0,0,1-3.5-.8c-1-.3-2-.6-2.9-.9a14.721,14.721,0,0,1-2.2-1,7.551,7.551,0,0,1-1.4-1.1,1.845,1.845,0,0,1-.5-1.2h0v-6.1h0a2.244,2.244,0,0,1,.8-1.5,9.3,9.3,0,0,0,3.2,1.8,30.679,30.679,0,0,0,5.2,1.4,50.563,50.563,0,0,0,6.8.9c2.5.2,5.2.3,7.9.3s5.4-.1,7.9-.3c2.3-.2,4.5-.5,6.8-.9a30.679,30.679,0,0,0,5.2-1.4,12.957,12.957,0,0,0,3.2-1.8,2.244,2.244,0,0,1,.8,1.5h0v6.1h0a1.845,1.845,0,0,1-.5,1.2,7.552,7.552,0,0,1-1.4,1.1,8.754,8.754,0,0,1-2.2,1,24.573,24.573,0,0,1-2.9.9c-1.1.3-2.3.5-3.5.8-1.3.2-2.6.4-4,.6C120.6,269.4,117.5,269.6,114.5,269.6Z"/>
        </g>
        <g id="Group_241" data-name="Group 241" transform="translate(1)">
          <rect id="Rectangle_34" data-name="Rectangle 34" width="85" height="85" rx="16" transform="translate(250.999 170)" fill="#fff"/>
          <g id="Group_236" data-name="Group 236" transform="translate(84.899 -6.5)">
            <g id="Group_233" data-name="Group 233">
              <path id="Path_235" data-name="Path 235" d="M210.4,212.3a1.707,1.707,0,1,0-1.2-.5A1.656,1.656,0,0,0,210.4,212.3Z" fill="#d20a11"/>
            </g>
            <g id="Group_234" data-name="Group 234">
              <path id="Path_236" data-name="Path 236" d="M202.4,225.3a3.4,3.4,0,0,1-1-.1,25.662,25.662,0,0,1-12.2-5.2,8.509,8.509,0,0,1-2.5-3,6.633,6.633,0,0,1,0-5v-.1c1.9-6.6,7-11.5,12.8-12.4h0a3.532,3.532,0,0,1,3.9,2.4,75.268,75.268,0,0,1,2.2,8.8l.2,1c.7,3,1.4,6.4.7,9.7a4.67,4.67,0,0,1-3,3.6C203.3,225.3,202.8,225.3,202.4,225.3ZM200.2,203c-5.5.8-8.8,5.9-10.1,10v.1c-.3,1.2-.5,1.9-.2,2.5a5.19,5.19,0,0,0,1.6,1.8,21.141,21.141,0,0,0,10.4,4.4c.2,0,.6.1.8,0a2.124,2.124,0,0,0,.7-1c.6-2.6-.1-5.5-.7-8.3l-.2-1c-.5-2.5-1.2-5.5-2.1-8.5Z" fill="#d20a11"/>
            </g>
            <g id="Group_235" data-name="Group 235">
              <path id="Path_237" data-name="Path 237" d="M216.2,253.9a1.621,1.621,0,0,1-1.6-1.2c-.4-1.5-.9-3-1.3-4.5-.7-2.4-1.5-4.9-2.1-7.4-.2-.8-.6-1.9-1-3.1a31.806,31.806,0,0,1-1.2-4.3c-.1-.5-.2-.9-.3-1.3a7.513,7.513,0,0,1-.4-3.5,4.36,4.36,0,0,1,1.5-3c1.7-1.4,4.3-1.3,6.4-1.2a5.283,5.283,0,0,1,1.3.1,6.952,6.952,0,0,0,4-.9,12.922,12.922,0,0,0,6-10.7,1.078,1.078,0,0,0-.2-.7c-.3-.3-.5-.5-.7-.5l-9.3-1.1a3.947,3.947,0,0,1-3.1-1.5,3.509,3.509,0,0,1-.5-.8c-.1-.1-.1-.2-.2-.3-.7-1.1-2-1.6-3.6-2.3-.6-.2-1.2-.5-1.8-.7l-.6-.2h0c-.7-.2-3.7-1-5.4-1.3-.2,0-.3-.1-.4-.1a10.378,10.378,0,0,1-1.2-.3,1.714,1.714,0,0,1-1.3-1.7V201a1.8,1.8,0,0,1,2.1-1.3c.2.1.6.1,1.1.3,2.7.6,5.3,1.2,6.2,1.5l.6.2c.6.2,1.2.5,1.9.7,1.6.7,3.9,1.5,5.3,3.6.1.1.2.3.3.4.1.2.2.3.3.5.1.1.2.1.8.2l9.4,1.1h.2a4.364,4.364,0,0,1,2.7,1.7,4.064,4.064,0,0,1,1,3,16.167,16.167,0,0,1-7.5,13.3,10.207,10.207,0,0,1-5.9,1.5,7.568,7.568,0,0,1-1.5-.1c-1.2-.1-3.3-.2-3.9.4a.908.908,0,0,0-.3.7,5.344,5.344,0,0,0,.3,2.2c.1.5.3,1,.4,1.6a32.607,32.607,0,0,0,1.2,3.9,30.852,30.852,0,0,1,1,3.4c.6,2.4,1.3,4.9,2,7.3.3,1,.6,2,.9,3.1a26.39,26.39,0,0,0,7.4-3.3c1.1-.7,2.1-1.4,3.1-2.1a36.087,36.087,0,0,0,10-12.4l.6-1.5v-.1c.1-.3.2-.5.3-.8l.1-.2a30.332,30.332,0,0,0,1.8-10.4v-.2a32.2,32.2,0,1,0-57.7,19.7,17.409,17.409,0,0,1,1.2-1.4l.3-.3a19.446,19.446,0,0,0,2.3-2.9c1.4-2.4,1.8-5.5,2.2-8.5.1-.7.2-1.4.3-2.2s.2-2.5.2-3.4a1.685,1.685,0,0,1,1.7-1.7h0a1.685,1.685,0,0,1,1.7,1.7c0,.9-.1,2.9-.2,3.9l-.3,2.1c-.4,3.3-.9,6.8-2.7,9.8a23.751,23.751,0,0,1-2.7,3.4l-.3.3-1.5,1.8c-.3.4-.6.7-.9,1.1l-.1.1a.85.85,0,0,1-.5.3,1.854,1.854,0,0,1-.7.2,3.092,3.092,0,0,1-.8-.2c-.2-.1-.3-.2-.5-.3l-.1-.1a35.587,35.587,0,1,1,62.3-23.5v.3h0a34.783,34.783,0,0,1-2,11.5l-.1.2-.3.9v.1c-.2.6-.5,1.1-.7,1.6a37.062,37.062,0,0,1-10.9,13.7c-1.1.8-2.2,1.6-3.4,2.4-2.6,1.5-6.5,3.6-10.2,4A1.751,1.751,0,0,1,216.2,253.9Z" fill="#d20a11"/>
            </g>
          </g>
        </g>
        <g id="Group_243" data-name="Group 243" transform="translate(6.799 23.167)">
          <g id="Group_240" data-name="Group 240" transform="translate(189.2 121.95)">
            <path id="Path_249" data-name="Path 249" d="M199.2,148v8.1H197V150h0l-1.8,1.1v-1.9l2-1.2h2Z" transform="translate(-195.2 -147.8)"/>
            <path id="Path_250" data-name="Path 250" d="M204.4,156.3a3.83,3.83,0,0,1-1.9-.5,2.626,2.626,0,0,1-1.2-1.5,6.813,6.813,0,0,1,0-4.6,3.325,3.325,0,0,1,1.2-1.4,3.86,3.86,0,0,1,3.8,0,2.758,2.758,0,0,1,1.2,1.4,6.813,6.813,0,0,1,0,4.6,4.427,4.427,0,0,1-1.2,1.5A3.018,3.018,0,0,1,204.4,156.3Zm0-1.8a.961.961,0,0,0,.9-.6,4.14,4.14,0,0,0,.4-1.9,3.007,3.007,0,0,0-.4-1.8,1.069,1.069,0,0,0-.9-.6.961.961,0,0,0-.9.6,3.994,3.994,0,0,0-.4,1.8,3.161,3.161,0,0,0,.4,1.9A.961.961,0,0,0,204.4,154.5Z" transform="translate(-195.2 -147.8)"/>
            <path id="Path_251" data-name="Path 251" d="M213,148v8.1h-2.2V150h0l-1.8,1.1v-1.9l2-1.2h2Z" transform="translate(-195.2 -147.8)"/>
            <path id="Path_252" data-name="Path 252" d="M218.2,156.3a3.83,3.83,0,0,1-1.9-.5,2.626,2.626,0,0,1-1.2-1.5,6.813,6.813,0,0,1,0-4.6,3.325,3.325,0,0,1,1.2-1.4,3.86,3.86,0,0,1,3.8,0,2.758,2.758,0,0,1,1.2,1.4,6.813,6.813,0,0,1,0,4.6,4.427,4.427,0,0,1-1.2,1.5A3.018,3.018,0,0,1,218.2,156.3Zm0-1.8a.961.961,0,0,0,.9-.6,4.14,4.14,0,0,0,.4-1.9,3.007,3.007,0,0,0-.4-1.8,1.069,1.069,0,0,0-.9-.6.961.961,0,0,0-.9.6,3.994,3.994,0,0,0-.4,1.8,3.161,3.161,0,0,0,.4,1.9A.961.961,0,0,0,218.2,154.5Z" transform="translate(-195.2 -147.8)"/>
          </g>
          <line id="Line_1" data-name="Line 1" x2="76" y2="53.6" transform="translate(157.2 116.75)" fill="none" stroke="#d20a11" stroke-width="3" stroke-dasharray="5"/>
        </g>
        <g id="Group_242" data-name="Group 242" transform="translate(191.799 0.1)">
          <g id="Group_239" data-name="Group 239" transform="translate(-91.2 -36)">
            <path id="Path_245" data-name="Path 245" d="M264.4,231.1v8.1h-2.2v-6.1h0l-1.8,1.1v-1.9l2-1.2h2Z"/>
            <path id="Path_246" data-name="Path 246" d="M269.6,239.4a3.83,3.83,0,0,1-1.9-.5,2.626,2.626,0,0,1-1.2-1.5,6.813,6.813,0,0,1,0-4.6,3.325,3.325,0,0,1,1.2-1.4,3.86,3.86,0,0,1,3.8,0,2.758,2.758,0,0,1,1.2,1.4,6.813,6.813,0,0,1,0,4.6,4.427,4.427,0,0,1-1.2,1.5A3.83,3.83,0,0,1,269.6,239.4Zm0-1.8a.961.961,0,0,0,.9-.6,4.14,4.14,0,0,0,.4-1.9,3.007,3.007,0,0,0-.4-1.8,1.069,1.069,0,0,0-.9-.6.961.961,0,0,0-.9.6,3.994,3.994,0,0,0-.4,1.8,3.161,3.161,0,0,0,.4,1.9A.961.961,0,0,0,269.6,237.6Z"/>
            <path id="Path_247" data-name="Path 247" d="M278.2,231.1v8.1H276v-6.1h0l-1.8,1.1v-1.9l2-1.2h2Z"/>
            <path id="Path_248" data-name="Path 248" d="M283.4,239.4a3.83,3.83,0,0,1-1.9-.5,2.626,2.626,0,0,1-1.2-1.5,6.813,6.813,0,0,1,0-4.6,3.325,3.325,0,0,1,1.2-1.4,3.86,3.86,0,0,1,3.8,0,2.758,2.758,0,0,1,1.2,1.4,6.813,6.813,0,0,1,0,4.6,4.427,4.427,0,0,1-1.2,1.5A3.83,3.83,0,0,1,283.4,239.4Zm0-1.8a.961.961,0,0,0,.9-.6,4.14,4.14,0,0,0,.4-1.9,3.007,3.007,0,0,0-.4-1.8,1.069,1.069,0,0,0-.9-.6.961.961,0,0,0-.9.6,3.994,3.994,0,0,0-.4,1.8,3.161,3.161,0,0,0,.4,1.9A.961.961,0,0,0,283.4,237.6Z"/>
          </g>
          <line id="Line_2" data-name="Line 2" x2="76" transform="translate(157.2 212.75)" fill="none" stroke="#d20a11" stroke-width="3" stroke-dasharray="5"/>
        </g>
        <g id="Group_244" data-name="Group 244" transform="translate(6.799 -0.567)">
          <g id="Group_238" data-name="Group 238" transform="translate(189.2 272.65)">
            <path id="Path_241" data-name="Path 241" d="M135.4,231.1v8.1h-2.2v-6.1h0l-1.8,1.1v-1.9l2-1.2h2Z" transform="translate(-131.4 -230.9)"/>
            <path id="Path_242" data-name="Path 242" d="M140.6,239.4a3.83,3.83,0,0,1-1.9-.5,2.626,2.626,0,0,1-1.2-1.5,6.813,6.813,0,0,1,0-4.6,3.325,3.325,0,0,1,1.2-1.4,3.86,3.86,0,0,1,3.8,0,2.758,2.758,0,0,1,1.2,1.4,6.813,6.813,0,0,1,0,4.6,4.427,4.427,0,0,1-1.2,1.5A4.136,4.136,0,0,1,140.6,239.4Zm0-1.8a.961.961,0,0,0,.9-.6,4.14,4.14,0,0,0,.4-1.9,3.007,3.007,0,0,0-.4-1.8,1.069,1.069,0,0,0-.9-.6.961.961,0,0,0-.9.6,3.994,3.994,0,0,0-.4,1.8,3.161,3.161,0,0,0,.4,1.9A.961.961,0,0,0,140.6,237.6Z" transform="translate(-131.4 -230.9)"/>
            <path id="Path_243" data-name="Path 243" d="M149.2,231.1v8.1H147v-6.1h0l-1.8,1.1v-1.9l2-1.2h2Z" transform="translate(-131.4 -230.9)"/>
            <path id="Path_244" data-name="Path 244" d="M154.4,239.4a3.83,3.83,0,0,1-1.9-.5,2.626,2.626,0,0,1-1.2-1.5,6.813,6.813,0,0,1,0-4.6,3.325,3.325,0,0,1,1.2-1.4,3.86,3.86,0,0,1,3.8,0,2.758,2.758,0,0,1,1.2,1.4,6.813,6.813,0,0,1,0,4.6,4.427,4.427,0,0,1-1.2,1.5A4.136,4.136,0,0,1,154.4,239.4Zm0-1.8a.961.961,0,0,0,.9-.6,4.14,4.14,0,0,0,.4-1.9,3.007,3.007,0,0,0-.4-1.8,1.069,1.069,0,0,0-.9-.6.961.961,0,0,0-.9.6,3.994,3.994,0,0,0-.4,1.8,3.161,3.161,0,0,0,.4,1.9A.961.961,0,0,0,154.4,237.6Z" transform="translate(-131.4 -230.9)"/>
          </g>
          <line id="Line_3" data-name="Line 3" y1="53.6" x2="76" transform="translate(157.2 232.75)" fill="none" stroke="#d20a11" stroke-width="3" stroke-dasharray="5"/>
        </g>
      </g>
    </g>
  </g>
</svg>
