<svg xmlns="http://www.w3.org/2000/svg" xmlns:xlink="http://www.w3.org/1999/xlink" width="80" height="80" viewBox="0 0 80 80">
  <defs>
    <clipPath id="clip-Artboard_6">
      <rect width="80" height="80"/>
    </clipPath>
  </defs>
  <g id="Artboard_6" data-name="Artboard – 6" clip-path="url(#clip-Artboard_6)">
    <g id="Group_260" data-name="Group 260" transform="translate(-3 -0.496)">
      <path id="Path_263" data-name="Path 263" d="M5384.324,3876s.349-9.33-2.486-13.671-6.564-12.814-3.482-21.1,10.431-12.6,20.021-12.6,18.567,5.618,19.729,17.732c1.029,2.945,5.164,7.292,5,9.514.051,1.047-1.22,1.378-4.473,3.552-2.044,2.138,4.938,12.51-11.687,12.717h0V3876" transform="translate(-5360.204 -3812.131)" fill="none" stroke="#d21317" stroke-width="3"/>
      <path id="Path_264" data-name="Path 264" d="M27,8v2.1a4.935,4.935,0,0,0-1.75.734L23.758,9.344l-1.414,1.414,1.492,1.492A4.935,4.935,0,0,0,23.1,14H21v2h2.1a4.935,4.935,0,0,0,.734,1.75l-1.492,1.492,1.414,1.414,1.492-1.492A4.935,4.935,0,0,0,27,19.9V22h2V19.9a4.935,4.935,0,0,0,1.75-.734l1.492,1.492,1.414-1.414L32.164,17.75A4.935,4.935,0,0,0,32.9,16H35V14H32.9a4.935,4.935,0,0,0-.734-1.75l1.492-1.492L32.242,9.344,30.75,10.836A4.935,4.935,0,0,0,29,10.1V8Zm1,4a3,3,0,1,1-3,3A2.986,2.986,0,0,1,28,12ZM15,16v2.1a4.89,4.89,0,0,0-1.746.742l-1.5-1.5-1.414,1.414,1.5,1.5A4.928,4.928,0,0,0,11.109,22H9v2h2.1a4.935,4.935,0,0,0,.734,1.75l-1.492,1.492,1.414,1.414,1.492-1.492A4.935,4.935,0,0,0,15,27.9V30h2V27.9a4.935,4.935,0,0,0,1.75-.734l1.492,1.492,1.414-1.414L20.164,25.75A4.935,4.935,0,0,0,20.9,24H23V22H20.891a4.928,4.928,0,0,0-.734-1.742l1.5-1.5-1.414-1.414-1.5,1.5A4.89,4.89,0,0,0,17,18.1V16Zm1,4a3,3,0,1,1-3,3A2.986,2.986,0,0,1,16,20Z" transform="translate(14.536 15)" fill="#d21317"/>
    </g>
  </g>
</svg>
