<?xml version="1.0" encoding="utf-8"?>
<!-- Generator: Adobe Illustrator 25.2.0, SVG Export Plug-In . SVG Version: 6.00 Build 0)  -->
<svg version="1.1" xmlns="http://www.w3.org/2000/svg" xmlns:xlink="http://www.w3.org/1999/xlink" x="0px" y="0px"
	 viewBox="0 0 432 432" style="enable-background:new 0 0 432 432;" xml:space="preserve">
<style type="text/css">
	.st0{fill:none;}
	.st1{display:none;}
	.st2{display:inline;fill:url(#placeholder-10_1_);}
	.st3{fill:#DADADA;}
	.st4{fill:none;stroke:#FFFFFF;stroke-miterlimit:10;}
	.st5{opacity:0.2;fill:none;stroke:#FFFFFF;stroke-miterlimit:10;}
	.st6{display:inline;}
	.st7{fill:#D20A11;}
	.st8{fill:#FFFFFF;}
	.st9{fill:#090E1C;}
	.st10{fill:#EDEDED;}
	.st11{fill:#EF3F54;}
	.st12{fill:#B70B20;}
	.st13{fill:#E21A2D;}
	.st14{fill:#D3727A;}
	.st15{display:inline;fill:#D20A11;}
	.st16{fill:#FFFFFF;}
	.st17{fill:#706F6F;}
	.st18{fill:none;stroke:#FFFFFF;stroke-width:3;stroke-miterlimit:10;}
	.st19{fill:none;stroke:#FFFFFF;stroke-width:3;stroke-miterlimit:10;stroke-dasharray:11.9851,11.9851;}
	.st20{fill:none;stroke:#FFFFFF;stroke-width:3;stroke-miterlimit:10;stroke-dasharray:13.7687,13.7687;}
	.st21{fill:none;stroke:#FFFFFF;stroke-width:3;stroke-miterlimit:10;stroke-dasharray:11.9814,11.9814;}
	.st22{fill:#878787;}
	.st23{fill:none;stroke:#FFFFFF;stroke-width:0.6052;stroke-linecap:round;stroke-miterlimit:10;}
</style>
<pattern  x="-551.8" y="75.7" width="1200" height="800" patternUnits="userSpaceOnUse" id="pattern" viewBox="0 -800 1200 800" style="overflow:visible;">
	<g>
		<rect y="-800" class="st0" width="1200" height="800"/>
		
			<image style="overflow:visible;enable-background:new    ;" width="1200" height="800" xlink:href="5C70DCB6.jpg"  transform="matrix(1 0 0 -1 0 0)">
		</image>
	</g>
</pattern>
<g id="Livello_1">
</g>
<g id="Livello_2" class="st1">
	<pattern  id="placeholder-10_1_" xlink:href="#pattern" patternTransform="matrix(0.3358 0 0 -0.23 -3683.7556 -13928.5225)">
	</pattern>
	<path id="placeholder-10" class="st2" d="M21,126.8h387c4.4,0,8,3.6,8,8v168c0,4.4-3.6,8-8,8H21c-4.4,0-8-3.6-8-8v-168
		C13,130.4,16.6,126.8,21,126.8z"/>
</g>
<g id="Livello_9">
	<rect class="st3" width="432" height="432"/>
	<g>
	</g>
</g>
<g id="Livello_10">
	<path class="st4" d="M-177,184.6c-0.2,0.2,37.6,14.3,40.2,14.9c39.7,8.4,81.3,3.6,120-7.4c37.5-10.6,72.8-27.3,106.2-47.3
		c20.3-12.1,40.4-24.9,62.3-33.9c20.4-8.4,42.8-13.6,64.3-18.7c50-11.8,102.2-17.9,153.4-11.9C487.3,94.2,15.6,6.1,15.6,6.1
		S-176.8,184.4-177,184.6z"/>
	<path class="st5" d="M-111.6,225.9c-0.2,0.2,37.6,14.3,40.2,14.9c39.7,8.4,81.3,3.6,120-7.4c49.7-14.1,92.7-40.3,137.3-65.5
		c30.1-17,61.9-26.5,95.4-34.4c50-11.8,102.2-17.9,153.4-11.9C552.8,135.5,81,47.4,81,47.4S-111.4,225.7-111.6,225.9z"/>
	<path class="st4" d="M634,237.9c0.2-0.2-37.6-14.3-40.2-14.9c-39.7-8.4-81.3-3.6-120,7.4c-37.5,10.6-72.8,27.3-106.2,47.3
		c-20.3,12.1-40.4,24.9-62.3,33.9c-20.4,8.4-42.8,13.6-64.3,18.7c-50,11.8-102.2,17.9-153.4,11.9c-117.9-13.8,353.8,74.3,353.8,74.3
		S633.8,238.1,634,237.9z"/>
	<path class="st5" d="M530.9,198.5c0.2-0.2-37.6-14.3-40.2-14.9c-76.9-16.3-157.6,14.4-222.8,53.5c-11.1,6.7-22.6,12.8-33.9,19.2
		c-10,5.6-20.1,10.9-30.7,15.4c-10.5,4.4-21.3,7.9-32.3,10.9C110.6,299.3,47.2,310-15.5,302.7C-133.4,288.9,338.3,377,338.3,377
		S530.7,198.7,530.9,198.5z"/>
</g>
<g id="multi_tenant">
	<path class="st7" d="M170.5,278.7H59.8c-6.6,0-11.9-5.3-11.9-11.9v-99.7c0-6.6,5.3-11.9,11.9-11.9h110.6c6.6,0,11.9,5.3,11.9,11.9
		v99.7C182.3,273.3,177,278.7,170.5,278.7z"/>
	<path class="st16" d="M119.9,194.6H64.4c-1.7,0-3.1-1.4-3.1-3.1v-19.4c0-1.7,1.4-3.1,3.1-3.1h55.5c1.7,0,3.1,1.4,3.1,3.1v19.4
		C123,193.2,121.6,194.6,119.9,194.6z"/>
	<path class="st16" d="M119.9,265.6H64.4c-1.7,0-3.1-1.4-3.1-3.1v-19.4c0-1.7,1.4-3.1,3.1-3.1h55.5c1.7,0,3.1,1.4,3.1,3.1v19.4
		C123,264.2,121.6,265.6,119.9,265.6z"/>
	<path class="st16" d="M148.4,230.3H92.8c-1.7,0-3.1-1.4-3.1-3.1v-19.4c0-1.7,1.4-3.1,3.1-3.1h55.5c1.7,0,3.1,1.4,3.1,3.1v19.4
		C151.4,228.9,150,230.3,148.4,230.3z"/>
	<g id="Group_16" transform="translate(94 32)">
		<ellipse id="Ellipse_1" class="st17" cx="211.2" cy="138.8" rx="64.7" ry="16.5"/>
		<path id="Subtraction_2" class="st17" d="M211.1,185.4c-8.3,0-16.7-0.4-25-1.3c-3.8-0.4-7.5-0.9-11-1.5c-3.4-0.6-6.7-1.3-9.5-2
			c-2.6-0.7-5.3-1.5-7.9-2.4c-2-0.8-4.1-1.7-6-2.8c-1.4-0.8-2.7-1.9-3.9-3.1c-0.8-0.9-1.4-2.1-1.4-3.3l0,0v-16.5l0,0
			c0.1-1.4,0.8-2.8,2.2-4.1c1.8,1.7,4.7,3.4,8.6,4.9c4.6,1.7,9.3,3,14.1,3.9c6.1,1.2,12.2,2,18.4,2.6c6.9,0.6,14.1,0.9,21.3,0.9
			c7.3,0,14.5-0.3,21.3-0.9c6.1-0.5,12.3-1.4,18.4-2.6c4.8-0.9,9.5-2.2,14.1-3.9c3.9-1.5,6.8-3.2,8.6-4.9c1.4,1.4,2.1,2.7,2.2,4.1
			l0,0v16.5l0,0c-0.1,1.2-0.6,2.4-1.4,3.3c-1.1,1.2-2.4,2.3-3.9,3.1c-1.9,1.1-3.9,2-6,2.8c-2.6,1-5.2,1.7-7.9,2.4
			c-3,0.8-6.1,1.4-9.5,2c-3.5,0.6-7.1,1.1-11,1.5C227.9,185,219.5,185.5,211.1,185.4z"/>
		<path id="Subtraction_3" class="st17" d="M211.1,214.6c-8.3,0-16.7-0.4-25-1.3c-3.8-0.4-7.5-0.9-11-1.5c-3.4-0.6-6.7-1.3-9.5-2
			c-2.6-0.7-5.3-1.5-7.9-2.4c-2-0.8-4.1-1.7-6-2.8c-1.4-0.8-2.7-1.9-3.9-3.1c-0.8-0.9-1.4-2.1-1.4-3.3l0,0v-16.5l0,0
			c0.1-1.4,0.8-2.8,2.2-4.1c1.8,1.7,4.7,3.4,8.6,4.9c4.6,1.7,9.3,3,14.1,3.9c6.1,1.2,12.2,2,18.4,2.6c6.9,0.6,14.1,0.9,21.3,0.9
			c7.3,0,14.5-0.3,21.3-0.9c6.1-0.5,12.3-1.4,18.4-2.6c4.8-0.9,9.5-2.2,14.1-3.9c3.9-1.5,6.8-3.2,8.6-4.9c1.4,1.4,2.1,2.7,2.2,4.1
			l0,0v16.5l0,0c-0.1,1.2-0.6,2.4-1.4,3.3c-1.1,1.2-2.4,2.3-3.9,3.1c-1.9,1.1-3.9,2-6,2.8c-2.6,1-5.2,1.7-7.9,2.4
			c-3,0.8-6.1,1.4-9.5,2c-3.5,0.6-7.1,1.1-11,1.5C227.9,214.1,219.5,214.6,211.1,214.6z"/>
		<path id="Subtraction_4" class="st17" d="M211.1,244.4c-8.3,0-16.7-0.4-25-1.3c-3.8-0.4-7.5-0.9-11-1.5c-3.4-0.6-6.7-1.3-9.5-2
			c-2.6-0.7-5.3-1.5-7.9-2.4c-2-0.8-4.1-1.7-6-2.8c-1.4-0.8-2.7-1.9-3.9-3.1c-0.8-0.9-1.4-2.1-1.4-3.3l0,0v-16.5l0,0
			c0.1-1.4,0.8-2.8,2.2-4.1c1.8,1.7,4.7,3.4,8.6,4.9c4.6,1.7,9.3,3,14.1,3.9c6.1,1.2,12.2,2,18.4,2.6c6.9,0.6,14.1,0.9,21.3,0.9
			c7.3,0,14.5-0.3,21.3-0.9c6.1-0.5,12.3-1.4,18.4-2.6c4.8-0.9,9.5-2.2,14.1-3.9c3.9-1.5,6.8-3.2,8.6-4.9c1.4,1.4,2.1,2.7,2.2,4.1
			l0,0v16.5l0,0c-0.1,1.2-0.6,2.4-1.4,3.3c-1.1,1.2-2.4,2.3-3.9,3.1c-1.9,1.1-3.9,2-6,2.8c-2.6,1-5.2,1.7-7.9,2.4
			c-3,0.8-6.1,1.4-9.5,2c-3.5,0.6-7.1,1.1-11,1.5C227.9,243.9,219.5,244.4,211.1,244.4z"/>
	</g>
	<g>
		<g>
			<path class="st18" d="M235.4,217.5c0,0-2.3,0.3-6,0.2"/>
			<path class="st19" d="M217.5,216.6c-9.7-1.7-21.7-5.8-32-15.4c-21.2-19.7-46.6-20.2-46.6-20.2s-0.7-0.1-2.1-0.3"/>
			<path class="st18" d="M130.8,180.3c-1.8-0.1-3.8-0.1-6,0"/>
		</g>
	</g>
	<g>
		<g>
			<line class="st18" x1="154.6" y1="217" x2="160.6" y2="217"/>
			<line class="st20" x1="174.4" y1="217.1" x2="222.6" y2="217.6"/>
			<path class="st18" d="M229.4,217.6l6,0.1c-2.2-0.1-4.2-0.2-6-0.2"/>
			<path class="st21" d="M217.5,217.8c-7.9,1-26.5,4.8-42.7,19.8c-12.5,11.6-27.6,15.2-37.9,16.2"/>
			<path class="st18" d="M130.8,254.2c-3.7,0.1-6-0.2-6-0.2"/>
		</g>
	</g>
	<circle cx="229.8" cy="217.1" r="5.7"/>
</g>
</svg>
