<svg xmlns="http://www.w3.org/2000/svg" xmlns:xlink="http://www.w3.org/1999/xlink" width="432" height="432" viewBox="0 0 432 432">
  <defs>
    <clipPath id="clip-path">
      <rect id="Rectangle_35" data-name="Rectangle 35" width="432" height="432" transform="translate(193.001)" fill="#dadada"/>
    </clipPath>
    <clipPath id="clip-Artboard_7">
      <rect width="432" height="432"/>
    </clipPath>
  </defs>
  <g id="Artboard_7" data-name="Artboard – 7" clip-path="url(#clip-Artboard_7)">
    <rect width="432" height="432" fill="#fff"/>
    <g id="Group_247" data-name="Group 247">
      <g id="Livello_9" transform="translate(0.001)">
        <rect id="Rectangle_32" data-name="Rectangle 32" width="432" height="432" fill="#dadada"/>
      </g>
      <g id="Mask_Group_2" data-name="Mask Group 2" transform="translate(-193)" clip-path="url(#clip-path)">
        <g id="Livello_10" transform="translate(197.001 22)">
          <path id="Path_229" data-name="Path 229" d="M-177,184.6c-.2.2,37.6,14.3,40.2,14.9,39.7,8.4,81.3,3.6,120-7.4C20.7,181.5,56,164.8,89.4,144.8c20.3-12.1,40.4-24.9,62.3-33.9,20.4-8.4,42.8-13.6,64.3-18.7,50-11.8,102.2-17.9,153.4-11.9C487.3,94.2,15.6,6.1,15.6,6.1S-176.8,184.4-177,184.6Z" fill="none" stroke="#fff" stroke-miterlimit="10" stroke-width="1"/>
          <path id="Path_230" data-name="Path 230" d="M-111.6,225.9c-.2.2,37.6,14.3,40.2,14.9,39.7,8.4,81.3,3.6,120-7.4,49.7-14.1,92.7-40.3,137.3-65.5,30.1-17,61.9-26.5,95.4-34.4,50-11.8,102.2-17.9,153.4-11.9C552.8,135.5,81,47.4,81,47.4S-111.4,225.7-111.6,225.9Z" fill="none" stroke="#fff" stroke-miterlimit="10" stroke-width="1" opacity="0.2"/>
          <path id="Path_231" data-name="Path 231" d="M634,237.9c.2-.2-37.6-14.3-40.2-14.9-39.7-8.4-81.3-3.6-120,7.4C436.3,241,401,257.7,367.6,277.7c-20.3,12.1-40.4,24.9-62.3,33.9-20.4,8.4-42.8,13.6-64.3,18.7-50,11.8-102.2,17.9-153.4,11.9-117.9-13.8,353.8,74.3,353.8,74.3S633.8,238.1,634,237.9Z" fill="none" stroke="#fff" stroke-miterlimit="10" stroke-width="1"/>
          <path id="Path_232" data-name="Path 232" d="M530.9,198.5c.2-.2-37.6-14.3-40.2-14.9-76.9-16.3-157.6,14.4-222.8,53.5-11.1,6.7-22.6,12.8-33.9,19.2a314.241,314.241,0,0,1-30.7,15.4A260.891,260.891,0,0,1,171,282.6C110.6,299.3,47.2,310-15.5,302.7-133.4,288.9,338.3,377,338.3,377S530.7,198.7,530.9,198.5Z" fill="none" stroke="#fff" stroke-miterlimit="10" stroke-width="1" opacity="0.2"/>
        </g>
      </g>
      <g id="Livello_1" transform="translate(96.102 114.593)">
        <g id="Group_268" data-name="Group 268" transform="translate(5.8 34.3)">
          <g id="Group_264" data-name="Group 264">
            <path id="Path_276" data-name="Path 276" d="M25.256,164.391a7.086,7.086,0,0,1-4.617-1.814,6.959,6.959,0,0,1-1.979-7.42l7.749-22.424c.165-.165,0-.495-.165-.66C13.055,121.357,5.8,107.177,5.8,92.5c0-32.152,34.46-58.2,77-58.2s77,26.051,77,58.2-34.625,58.368-77.164,58.368A100.12,100.12,0,0,1,60.376,148.4L28.224,163.732A6.467,6.467,0,0,1,25.256,164.391ZM82.635,43.863c-37.1,0-67.436,21.929-67.436,48.64,0,11.871,5.936,23.248,16.983,32.152a10.383,10.383,0,0,1,3.3,11.212l-5.606,16.488L57.9,139a4.186,4.186,0,0,1,3.133-.33,94.449,94.449,0,0,0,21.6,2.638c37.1,0,67.436-21.929,67.436-48.64S119.9,43.863,82.635,43.863Z" transform="translate(-5.8 -34.3)" fill="#d20a11"/>
          </g>
          <g id="Group_266" data-name="Group 266" transform="translate(135.598 16.653)">
            <g id="Group_265" data-name="Group 265">
              <path id="Path_277" data-name="Path 277" d="M162.665,161.96a5.419,5.419,0,0,1-2.8-.66l-28.689-13.685c-10.717,2.473-25.886,4.782-40.066-.66a4.747,4.747,0,1,1,3.3-8.9c12.531,4.782,26.546,2.143,36.109-.165a4.107,4.107,0,0,1,3.133.33l24.073,11.542-4.617-13.52a9.773,9.773,0,0,1,2.968-10.552c9.728-7.914,15-17.972,15-28.524,0-23.743-26.876-43.2-59.852-43.2a4.782,4.782,0,0,1,0-9.563c38.252,0,69.415,23.578,69.415,52.6,0,13.355-6.6,26.051-18.467,35.779l6.76,20.115a6.74,6.74,0,0,1-1.814,7.09A5.888,5.888,0,0,1,162.665,161.96Z" transform="translate(-88.04 -44.4)" fill="#b70b20"/>
            </g>
          </g>
          <g id="layer1" transform="translate(156.575 47.702)">
            <g id="g1894" transform="translate(0 0)">
              <g id="path8615" transform="translate(0 0)">
                <path id="Path_278" data-name="Path 278" d="M169.443,130.7c-12.036,0-11.377,5.276-11.377,5.276v5.441h11.542v1.649H153.449s-7.749-.824-7.749,11.377,6.76,11.707,6.76,11.707h3.957v-5.606s-.165-6.76,6.6-6.76h11.377s6.43.165,6.43-6.265V137.13S181.974,130.7,169.443,130.7Zm-6.43,3.627a2.143,2.143,0,1,1-2.143,2.143A2.3,2.3,0,0,1,163.012,134.327Z" transform="translate(-145.7 -130.7)" fill="#b70b20"/>
              </g>
              <g id="path8620" transform="translate(12.657 11.869)">
                <path id="Path_279" data-name="Path 279" d="M164.792,173.35c12.036,0,11.377-5.276,11.377-5.276v-5.441H164.627v-1.649h16.158s7.749.824,7.749-11.377-6.76-11.707-6.76-11.707h-3.957v5.606s.165,6.76-6.6,6.76H159.846s-6.43-.165-6.43,6.265V166.92S152.1,173.35,164.792,173.35Zm6.265-3.627a2.143,2.143,0,1,1,2.143-2.143A2.078,2.078,0,0,1,171.058,169.723Z" transform="translate(-153.376 -137.898)" fill="#b70b20"/>
              </g>
            </g>
          </g>
          <g id="Group_267" data-name="Group 267" transform="translate(44.683 26.216)">
            <path id="Path_280" data-name="Path 280" d="M32.9,50.2v64.3H97.2V50.2Zm35.12,50.124c0,6.265-3.627,9.068-9.068,9.068a9.522,9.522,0,0,1-9.068-5.441l4.946-2.968c.989,1.649,1.814,3.133,3.957,3.133,1.979,0,3.3-.824,3.3-3.792V79.714h6.1v20.61Zm14.18,9.068c-5.606,0-9.233-2.638-11.047-6.1l4.946-2.8c1.319,2.143,2.968,3.627,5.936,3.627,2.473,0,4.122-1.319,4.122-2.968,0-2.143-1.649-2.8-4.452-3.957l-1.484-.66c-4.287-1.814-7.255-4.122-7.255-9.068,0-4.452,3.463-7.914,8.9-7.914,3.792,0,6.6,1.319,8.574,4.782l-4.617,2.8C84.838,85.32,83.683,84.5,81.87,84.5A2.7,2.7,0,0,0,78.9,87.133c0,1.814,1.154,2.473,3.792,3.627l1.484.66c5.111,2.143,8.079,4.452,8.079,9.563C92.257,106.424,87.97,109.392,82.2,109.392Z" transform="translate(-32.9 -50.2)" fill="#d21317"/>
          </g>
        </g>
      </g>
    </g>
  </g>
</svg>
