<?xml version="1.0" encoding="utf-8"?>
<!-- Generator: Adobe Illustrator 25.2.0, SVG Export Plug-In . SVG Version: 6.00 Build 0)  -->
<svg version="1.1" xmlns="http://www.w3.org/2000/svg" xmlns:xlink="http://www.w3.org/1999/xlink" x="0px" y="0px"
	 viewBox="0 0 150 150" style="enable-background:new 0 0 150 150;" xml:space="preserve">
<style type="text/css">
	.st0{fill:#D21317;}
	.st1{display:none;}
	.st2{display:inline;}
	.st3{fill:none;stroke:#D21317;stroke-width:4;stroke-miterlimit:10;}
	.st4{display:inline;enable-background:new    ;}
</style>
<g id="Livello_1">
	<g>
		<g>
			<path class="st0" d="M17.6,113.2c-1,0-2-0.4-2.8-1.1c-1.3-1.1-1.7-2.9-1.2-4.5l4.7-13.6c0.1-0.1,0-0.3-0.1-0.4
				c-8-6.5-12.4-15.1-12.4-24c0-19.5,20.9-35.3,46.7-35.3s46.7,15.8,46.7,35.3S78.2,105,52.4,105c-4.6,0-9.1-0.5-13.5-1.5l-19.5,9.3
				C18.8,113.1,18.2,113.2,17.6,113.2z M52.4,40.1c-22.5,0-40.9,13.3-40.9,29.5c0,7.2,3.6,14.1,10.3,19.5c2,1.6,2.8,4.4,2,6.8
				l-3.4,10l17-8.1c0.6-0.3,1.3-0.4,1.9-0.2c4.2,1,8.7,1.6,13.1,1.6c22.5,0,40.9-13.3,40.9-29.5S75,40.1,52.4,40.1z"/>
		</g>
		<g>
			<g>
				<path class="st0" d="M133.3,115.7c-0.6,0-1.2-0.1-1.7-0.4l-17.4-8.3c-6.5,1.5-15.7,2.9-24.3-0.4c-1.5-0.6-2.2-2.2-1.7-3.7
					c0.6-1.5,2.2-2.2,3.7-1.7c7.6,2.9,16.1,1.3,21.9-0.1c0.7-0.2,1.3-0.1,1.9,0.2l14.6,7l-2.8-8.2c-0.8-2.3,0-4.9,1.8-6.4
					c5.9-4.8,9.1-10.9,9.1-17.3c0-14.4-16.3-26.2-36.3-26.2c-1.6,0-2.9-1.3-2.9-2.9s1.3-2.9,2.9-2.9c23.2,0,42.1,14.3,42.1,31.9
					c0,8.1-4,15.8-11.2,21.7l4.1,12.2c0.5,1.5,0.1,3.2-1.1,4.3C135.3,115.3,134.3,115.7,133.3,115.7z"/>
			</g>
		</g>
		<g id="layer1" transform="translate(-473.36088,-251.72485)">
			<g id="g1894" transform="translate(428.42338,184.2561)">
				<g id="path8615">
					<path class="st0" d="M160.1,130.7c-7.3,0-6.9,3.2-6.9,3.2l0,3.3h7v1h-9.8c0,0-4.7-0.5-4.7,6.9s4.1,7.1,4.1,7.1h2.4v-3.4
						c0,0-0.1-4.1,4-4.1c4.2,0,6.9,0,6.9,0s3.9,0.1,3.9-3.8s0-6.3,0-6.3S167.7,130.7,160.1,130.7z M156.2,132.9
						c0.7,0,1.3,0.6,1.3,1.3c0,0.7-0.6,1.3-1.3,1.3c-0.7,0-1.3-0.6-1.3-1.3C155,133.5,155.5,132.9,156.2,132.9z"/>
				</g>
				<g id="path8620">
					<path class="st0" d="M160.3,159.4c7.3,0,6.9-3.2,6.9-3.2l0-3.3h-7v-1h9.8c0,0,4.7,0.5,4.7-6.9c0-7.4-4.1-7.1-4.1-7.1h-2.4v3.4
						c0,0,0.1,4.1-4,4.1s-6.9,0-6.9,0s-3.9-0.1-3.9,3.8c0,3.8,0,6.3,0,6.3S152.6,159.4,160.3,159.4z M164.1,157.2
						c-0.7,0-1.3-0.6-1.3-1.3c0-0.7,0.6-1.3,1.3-1.3c0.7,0,1.3,0.6,1.3,1.3C165.4,156.7,164.8,157.2,164.1,157.2z"/>
				</g>
			</g>
		</g>
		<g>
			<path class="st0" d="M32.9,50.2v39h39v-39H32.9z M54.2,80.6c0,3.8-2.2,5.5-5.5,5.5c-2.9,0-4.6-1.5-5.5-3.3l3-1.8
				c0.6,1,1.1,1.9,2.4,1.9c1.2,0,2-0.5,2-2.3V68.1h3.7V80.6z M62.8,86.1c-3.4,0-5.6-1.6-6.7-3.7l3-1.7c0.8,1.3,1.8,2.2,3.6,2.2
				c1.5,0,2.5-0.8,2.5-1.8c0-1.3-1-1.7-2.7-2.4l-0.9-0.4c-2.6-1.1-4.4-2.5-4.4-5.5c0-2.7,2.1-4.8,5.4-4.8c2.3,0,4,0.8,5.2,2.9
				L65,72.6c-0.6-1.1-1.3-1.6-2.4-1.6c-1.1,0-1.8,0.7-1.8,1.6c0,1.1,0.7,1.5,2.3,2.2l0.9,0.4c3.1,1.3,4.9,2.7,4.9,5.8
				C68.9,84.3,66.3,86.1,62.8,86.1z"/>
		</g>
	</g>
</g>
<g id="Livello_2" class="st1">
	<g class="st2">
		<g>
			<g>
				<path class="st0" d="M103.3,104.2c-10.3,0-18.6-8.4-18.6-18.6S93,67,103.3,67c10.3,0,18.6,8.4,18.6,18.6
					S113.5,104.2,103.3,104.2z M103.3,72.8c-7.1,0-12.8,5.8-12.8,12.8c0,7.1,5.8,12.8,12.8,12.8c7.1,0,12.8-5.8,12.8-12.8
					C116.1,78.5,110.4,72.8,103.3,72.8z"/>
			</g>
			<g>
				<path class="st0" d="M123.4,109.6c-0.7,0-1.5-0.3-2-0.8l-9.5-9.5c-1.1-1.1-1.1-3,0-4.1s3-1.1,4.1,0l9.5,9.5c1.1,1.1,1.1,3,0,4.1
					C124.8,109.4,124.1,109.6,123.4,109.6z"/>
			</g>
		</g>
		<g>
			<path class="st0" d="M39.6,87.1c-1.6,0-2.9-1.3-2.9-2.9V71.1c0-1.6,1.3-2.9,2.9-2.9s2.9,1.3,2.9,2.9v13.1
				C42.5,85.8,41.2,87.1,39.6,87.1z"/>
		</g>
		<g>
			<path class="st0" d="M51.7,87.1c-1.6,0-2.9-1.3-2.9-2.9V61.5c0-1.6,1.3-2.9,2.9-2.9s2.9,1.3,2.9,2.9v22.7
				C54.6,85.8,53.3,87.1,51.7,87.1z"/>
		</g>
		<g>
			<path class="st0" d="M63.1,87.1c-1.6,0-2.9-1.3-2.9-2.9V64.6c0-1.6,1.3-2.9,2.9-2.9S66,63,66,64.6v19.5
				C66,85.8,64.7,87.1,63.1,87.1z"/>
		</g>
		<g>
			<path class="st0" d="M74,87.1c-1.6,0-2.9-1.3-2.9-2.9V58c0-1.6,1.3-2.9,2.9-2.9s2.9,1.3,2.9,2.9v26.2
				C76.9,85.8,75.6,87.1,74,87.1z"/>
		</g>
		<g>
			<path class="st0" d="M81,113.2H54.5V94.4H81V113.2z M60.3,107.4h14.9v-7.2H60.3V107.4z"/>
		</g>
		<g>
			<path class="st0" d="M86.7,113.2H48.8c-1.6,0-2.9-1.3-2.9-2.9c0-1.6,1.3-2.9,2.9-2.9h37.9c1.6,0,2.9,1.3,2.9,2.9
				C89.6,111.9,88.3,113.2,86.7,113.2z"/>
		</g>
		<g>
			<g>
				<path class="st0" d="M83,100.1H30.6c-3.8,0-6.9-3.1-6.9-6.9V47.2c0-3.8,3.1-6.9,6.9-6.9h74.3c3.8,0,6.9,3.1,6.9,6.9v17H106v-17
					c0-0.6-0.5-1.1-1.1-1.1H30.6c-0.6,0-1.1,0.5-1.1,1.1v46.1c0,0.6,0.5,1.1,1.1,1.1H83V100.1z"/>
			</g>
		</g>
	</g>
</g>
<g id="Livello_3" class="st1">
	<g class="st2">
		<g>
			<path class="st0" d="M67.3,115.4H41.8c-3,0-5.5-2.5-5.5-5.5V84.5c0-3,2.5-5.5,5.5-5.5h25.5c3,0,5.5,2.5,5.5,5.5v25.5
				C72.7,113,70.3,115.4,67.3,115.4z M42.1,109.7H67V84.8H42.1V109.7z"/>
		</g>
		<g>
			<polygon class="st0" points="96.7,69.9 90.9,69.9 90.9,60.8 81.8,60.8 81.8,55 96.7,55 			"/>
		</g>
		<g>
			<path class="st3" d="M69.8,81.9"/>
		</g>
		<g>
			
				<rect x="63.9" y="67.4" transform="matrix(0.7071 -0.7071 0.7071 0.7071 -25.8605 78.1625)" class="st0" width="35" height="5.8"/>
		</g>
		<g>
			<g>
				<path class="st0" d="M104.4,115.4h-4.8v-5.8h4.8c2,0,3.5-1.6,3.5-3.5v-1h5.8v1C113.7,111.3,109.5,115.4,104.4,115.4z
					 M93.8,115.4H77.9v-5.8h15.9V115.4z M113.7,99.4h-5.8V83.5h5.8V99.4z M113.7,77.7h-5.8V61.8h5.8V77.7z M42.1,75.5h-5.8v-7.5h5.8
					V75.5z M42.1,62.2h-5.8V47.3c0-0.5,0-1,0.1-1.5l5.7,0.9c0,0.2,0,0.4,0,0.6V62.2z M113.7,56h-5.8v-8.7c0-1.4-0.8-2.6-2-3.2
					l2.5-5.2c3.2,1.6,5.2,4.8,5.2,8.4V56z M43.9,44.2l-2.8-5c1.4-0.8,3-1.2,4.6-1.2h12.6v5.8H45.6C45,43.8,44.4,43.9,43.9,44.2z
					 M101.5,43.8H85.7V38h15.9V43.8z M79.9,43.8H64V38h15.9V43.8z"/>
			</g>
		</g>
	</g>
</g>
<g id="Livello_4" class="st1">
	<g id="Tracciato_1-5_1_" class="st4">
		<path class="st0" d="M41.5,109.8c-10.2,0-19.1-7.6-20.7-17.7C20,86.5,21.3,81,24.6,76.5c2.8-3.9,6.8-6.6,11.4-7.9
			C36.6,59.9,41.5,52,49,47.5c6.2-3.7,13.5-4.8,20.5-3c6.1,1.5,11.4,5.1,15.1,10.1c1.7-0.8,3.5-1.3,5.3-1.6
			c5.5-0.9,11.1,0.5,15.6,3.8c4,2.9,6.7,7,8,11.7c9.3,2.3,16.1,10.8,16,20.6c-0.1,11.5-9.5,20.7-21,20.7c-0.1,0-0.2,0-0.2,0H41.8
			C41.7,109.8,41.6,109.8,41.5,109.8z M62.9,49.4c-3.8,0-7.5,1-10.9,3c-6.4,3.8-10.4,10.8-10.3,18.3v2.7l-2.4,0.4
			c-4,0.6-7.5,2.8-9.9,6.1c-2.4,3.3-3.4,7.3-2.7,11.3c1.2,7.4,7.7,13,15.2,12.9h66.5c8.4,0.1,15.3-6.6,15.4-15
			c0.1-7.6-5.5-14.1-13-15.2l-2.1-0.3l-0.3-2.1c-0.6-4-2.8-7.6-6.1-9.9c-3.3-2.4-7.3-3.4-11.3-2.7c-2,0.3-3.9,1-5.6,2.1l-2.5,1.5
			l-1.5-2.5c-2.9-4.9-7.5-8.3-13-9.7C66.4,49.6,64.6,49.4,62.9,49.4z"/>
	</g>
</g>
</svg>
