<svg width="187" height="50" viewBox="0 0 187 50" fill="none" xmlns="http://www.w3.org/2000/svg">
    <g>
        <path d="M24.8538 21.4809C26.095 22.7041 26.5894 24.3857 26.3033 26.0377C26.1223 27.081 26.4127 28.1402 26.7892 29.1243C27.8769 31.9678 30.4918 33.6455 33.618 34.2877C39.965 35.5899 46.0827 30.717 45.7419 24.6209C45.5757 21.637 43.8359 18.6948 41.0358 17.2049C39.9818 16.6437 38.7175 16.2129 37.491 16.2149C36.8409 16.2149 36.2203 16.3532 35.5619 16.2919C34.6972 16.2129 33.8536 15.9402 33.1194 15.5015C30.3803 13.8634 29.7134 10.2512 31.7204 7.85226C33.6895 5.49682 37.4889 5.1846 39.8535 7.20017C41.1789 8.33046 41.7868 9.99429 41.6375 11.6561C41.5028 13.1658 41.5533 14.4779 42.2875 15.8612C43.1438 17.4736 44.5385 18.7442 46.2447 19.5583C46.9053 19.8744 47.6121 20.1135 48.3463 20.2261C49.2383 20.3645 50.103 20.1846 50.9949 20.236C52.6821 20.3309 54.26 21.1252 55.2424 22.4235C57.1358 24.9272 56.2585 28.484 53.4437 30.0135C52.6821 30.4265 51.8175 30.6735 50.9381 30.7051C50.0819 30.7347 49.2678 30.4581 48.4115 30.5035C46.9621 30.5786 45.5778 31.211 44.3997 31.9757C42.7798 33.0309 41.5533 34.6137 41.0947 36.4277C40.6908 38.0263 41.1641 39.6467 40.4888 41.2117C39.8556 42.676 38.4924 43.7806 36.8725 44.1955C33.6264 45.0255 30.3172 42.919 29.9091 39.7909C29.8081 39.0262 29.9596 38.2951 29.9806 37.5343C30.0038 36.7636 29.8586 35.993 29.5914 35.2658C29.2212 34.258 28.6216 33.6237 27.8706 32.8234C26.4884 31.3513 24.3552 30.221 22.2367 30.2368C21.4331 30.2427 20.6757 30.3711 19.87 30.2407C19.0012 30.1004 18.1723 29.7724 17.4654 29.2764C16.1674 28.3635 15.3512 26.9309 15.2523 25.4133C15.0587 22.4294 17.6716 19.8349 20.8546 19.8566C22.3566 19.8665 23.8145 20.4573 24.8517 21.4809" fill="#ffffff"></path>
        <path d="M13.0845 17.5258C14.2332 16.4903 15.1336 15.1466 15.4723 13.6764C15.7353 12.5343 15.4345 11.402 15.6154 10.2579C15.8005 9.0861 16.3853 7.99532 17.3131 7.18712C20.94 4.02545 27.0114 6.76227 26.6621 11.3981C26.4938 13.6231 24.7772 15.5576 22.4694 16.105C21.4301 16.352 20.5171 16.1445 19.4842 16.101C18.6153 16.0635 17.7149 16.2611 16.9029 16.5358C12.4534 18.0395 10.0404 22.774 10.9829 27.0225C11.7907 30.6624 15.4113 34.4149 19.6777 33.9407C22.137 33.666 24.5563 34.9109 25.5409 37.0668C26.4349 39.023 25.9469 41.3568 24.3354 42.8526C22.7197 44.3524 20.2268 44.7812 18.1504 43.9157C15.8342 42.9494 14.6413 40.6711 14.9085 38.3512C15.2851 35.1144 13.4506 32.2432 10.438 30.7296C9.42824 30.2218 8.29853 29.8918 7.14357 29.9115C5.8666 29.9333 4.73899 30.0261 3.52933 29.5203C1.35196 28.6073 0.0329081 26.408 0.289565 24.1869C0.548326 21.956 2.38069 20.059 4.72637 19.6026C5.95916 19.3635 7.09729 19.8001 8.31956 19.6915C9.42613 19.5927 10.4864 19.1758 11.4373 18.6482C12.0158 18.328 12.5965 17.9625 13.0845 17.5258Z" fill="#00000"></path>
        <path d="M60.4753 26.4309C60.5843 29.1189 61.9948 31.1287 64.7068 32.46C67.4324 33.791 71.1118 34.4568 75.7453 34.4568C80.3652 34.4568 83.956 33.644 86.518 32.0183C89.0801 30.3926 90.3611 28.0566 90.3611 25.0099C90.3611 22.2322 89.373 20.2097 87.3969 18.9425C85.4345 17.6753 82.4365 16.728 78.4028 16.1008C74.6686 15.5632 72.3997 15.1472 71.5957 14.8527C70.8051 14.5455 70.41 14.1359 70.41 13.6239C70.41 13.0991 70.7371 12.6766 71.3912 12.3566C72.0589 12.0238 73.2513 11.8574 74.9684 11.8574C76.9855 11.8574 78.3481 12.075 79.0568 12.5102C79.779 12.9455 80.188 13.5087 80.2833 14.1999L80.3445 14.7759H89.2777L89.2369 13.5279C89.0869 10.8782 87.7718 8.88128 85.2915 7.53724C82.8112 6.19317 79.3089 5.52114 74.7845 5.52114C70.3555 5.52114 66.9212 6.30197 64.4819 7.86364C62.0426 9.42531 60.8228 11.6142 60.8228 14.4303C60.8228 16.9136 61.804 18.8721 63.7664 20.3057C65.7424 21.7394 68.836 22.8147 73.0469 23.5314C76.522 24.0563 78.6819 24.4787 79.527 24.7987C80.3856 25.1188 80.8147 25.5859 80.8147 26.2005C80.8147 26.8788 80.4196 27.4037 79.6293 27.775C78.8387 28.1461 77.4828 28.3316 75.5612 28.3316C73.5036 28.3316 72.0316 28.1206 71.1459 27.6981C70.26 27.2756 69.749 26.5652 69.6127 25.5668L69.5311 24.722H60.4141L60.4753 26.4309ZM91.5686 33.9576H100.972L100.952 20.1905C100.952 19.8706 100.945 19.5697 100.931 19.2881C100.917 18.9937 100.911 18.6801 100.911 18.3473H101.013C101.122 18.6673 101.21 18.9681 101.278 19.2497C101.36 19.5185 101.476 19.8194 101.626 20.1522L108.944 33.9576H116.058L123.069 20.3249C123.206 20.005 123.315 19.7106 123.396 19.4417C123.478 19.1601 123.574 18.8529 123.683 18.5201H123.805C123.792 18.8401 123.778 19.1473 123.764 19.4417C123.751 19.7234 123.744 20.0242 123.744 20.3443V33.9576H133.535V6.00116H120.78L113.155 20.1139C113.005 20.4338 112.889 20.709 112.808 20.9395C112.739 21.157 112.671 21.3937 112.603 21.6498H112.542C112.487 21.3937 112.426 21.157 112.358 20.9395C112.29 20.709 112.181 20.4338 112.031 20.1139L104.263 6.00116H91.5686V33.9576ZM134.988 20.3826C134.988 25.0931 136.556 28.6134 139.69 30.943C142.838 33.2727 147.104 34.4376 152.487 34.4376C157.706 34.4376 161.658 33.5927 164.343 31.9031C167.041 30.2134 168.492 27.5958 168.697 24.0499L168.758 22.2642H159.048L158.967 23.8387C158.83 25.2852 158.258 26.3669 157.249 27.0836C156.241 27.8005 154.721 28.1589 152.691 28.1589C150.497 28.1589 148.78 27.6404 147.54 26.6036C146.313 25.5539 145.7 23.877 145.7 21.573V18.3089C145.7 16.1712 146.306 14.5775 147.519 13.5279C148.732 12.4782 150.456 11.9534 152.691 11.9534C154.653 11.9534 156.125 12.2926 157.106 12.9711C158.101 13.6495 158.715 14.6543 158.946 15.9856L159.028 17.8289H168.758L168.676 16.2736C168.322 12.459 166.816 9.71334 164.159 8.03647C161.515 6.34679 157.611 5.50195 152.446 5.50195C147.281 5.50195 143.077 6.6412 139.833 8.9197C136.603 11.1982 134.988 14.7375 134.988 19.5377V20.3826Z" fill="#ffffff"></path>
        <path d="M172.891 33.9887C172.891 30.1092 172.891 26.2096 172.891 22.3301C177.312 22.3301 181.723 22.3301 186.144 22.3301C186.144 26.2096 186.144 30.1092 186.144 33.9887C181.734 33.9887 177.312 33.9887 172.891 33.9887Z" fill="#D20A11"></path>
        <path d="M35.9418 20.3457C38.927 20.3457 41.3484 22.6201 41.3484 25.4241C41.3484 28.2281 38.927 30.5026 35.9418 30.5026C32.9566 30.5026 30.5352 28.2281 30.5352 25.4241C30.5352 22.6201 32.9566 20.3457 35.9418 20.3457Z" fill="#D20A11"></path>
        <path d="M63.3009 39.4601L61.454 44.2358H60.6992L62.8257 38.9958H63.3123L63.3009 39.4601ZM64.8489 44.2358L62.9982 39.4601L62.9866 38.9958H63.4732L65.6075 44.2358H64.8489ZM64.7529 42.2959V42.8647H61.6188V42.2959H64.7529ZM71.0661 44.2358H69.9014L69.909 43.6709H71.0661C71.4647 43.6709 71.7967 43.5928 72.0624 43.4369C72.3281 43.2784 72.5273 43.0577 72.6601 42.7747C72.7955 42.4892 72.8631 42.1557 72.8631 41.7741V41.4538C72.8631 41.154 72.8248 40.8876 72.7482 40.6548C72.6716 40.4197 72.5591 40.2219 72.411 40.061C72.2629 39.8978 72.0815 39.7743 71.867 39.6903C71.6549 39.6064 71.4111 39.5645 71.1351 39.5645H69.8783V38.9958H71.1351C71.5005 38.9958 71.8337 39.0533 72.1352 39.1685C72.4366 39.2813 72.6958 39.4457 72.9129 39.6615C73.1326 39.8751 73.3013 40.1342 73.4187 40.4389C73.5363 40.7412 73.595 41.0819 73.595 41.4611V41.7741C73.595 42.1533 73.5363 42.4951 73.4187 42.7998C73.3013 43.1022 73.1313 43.36 72.9092 43.5737C72.6895 43.7871 72.4238 43.9515 72.1122 44.0667C71.803 44.1795 71.4544 44.2358 71.0661 44.2358ZM70.2961 38.9958V44.2358H69.5566V38.9958H70.2961ZM79.4566 41.6267V43.5448C79.3876 43.6408 79.2778 43.7487 79.127 43.8687C78.9764 43.9863 78.7681 44.0894 78.5026 44.1783C78.2394 44.2647 77.8997 44.3078 77.4833 44.3078C77.1436 44.3078 76.8307 44.2526 76.5446 44.1422C76.261 44.0295 76.0145 43.8663 75.8052 43.6529C75.5982 43.4369 75.4372 43.1753 75.3224 42.8682C75.21 42.5588 75.1538 42.2084 75.1538 41.8174V41.4107C75.1538 41.0196 75.2022 40.6705 75.2994 40.3634C75.3989 40.0563 75.5445 39.7959 75.7362 39.5824C75.9278 39.3665 76.1628 39.2032 76.4411 39.093C76.7197 38.9801 77.0388 38.9238 77.399 38.9238C77.8256 38.9238 78.182 38.9934 78.4681 39.1325C78.7567 39.2692 78.9814 39.4587 79.1423 39.7012C79.3058 39.9435 79.4106 40.2193 79.4566 40.529H78.7172C78.6839 40.3395 78.6175 40.1666 78.5179 40.0107C78.4207 39.8547 78.2815 39.7299 78.1001 39.6364C77.9188 39.5404 77.6851 39.4923 77.399 39.4923C77.141 39.4923 76.9176 39.5368 76.7285 39.6255C76.5396 39.7144 76.3837 39.8415 76.261 40.0071C76.1384 40.1727 76.0465 40.3731 75.9852 40.608C75.9265 40.8432 75.8971 41.1083 75.8971 41.4034V41.8174C75.8971 42.1197 75.9341 42.3896 76.0082 42.6271C76.0848 42.8647 76.1933 43.0674 76.3338 43.2354C76.4744 43.401 76.6416 43.5268 76.8358 43.6132C77.0325 43.6995 77.2496 43.7428 77.4871 43.7428C77.7503 43.7428 77.9636 43.7225 78.1271 43.6816C78.2905 43.6385 78.4182 43.5881 78.5102 43.5304C78.6021 43.4705 78.6724 43.414 78.721 43.3612V42.1881H77.4297V41.6267H79.4566ZM84.2837 42.9115C84.2837 42.789 84.2633 42.6811 84.2225 42.5876C84.1842 42.4916 84.1152 42.4052 84.0155 42.3284C83.9185 42.2517 83.783 42.1784 83.6094 42.1088C83.4382 42.0393 83.2211 41.9685 82.9579 41.8966C82.6821 41.8197 82.433 41.7346 82.2109 41.6411C81.9887 41.5451 81.7983 41.4358 81.6399 41.3135C81.4815 41.1911 81.3603 41.0508 81.276 40.8924C81.1916 40.7341 81.1495 40.5529 81.1495 40.349C81.1495 40.145 81.1941 39.9567 81.2835 39.784C81.3729 39.6111 81.5006 39.4613 81.6668 39.3341C81.8353 39.2044 82.0358 39.1036 82.2683 39.0317C82.5008 38.9598 82.7599 38.9238 83.046 38.9238C83.4651 38.9238 83.82 38.9993 84.1112 39.1505C84.4051 39.2993 84.6285 39.4949 84.7818 39.7372C84.935 39.9771 85.0118 40.2337 85.0118 40.5072H84.2761C84.2761 40.3106 84.2313 40.1367 84.1419 39.9856C84.0525 39.832 83.9172 39.7119 83.7359 39.6255C83.5545 39.5368 83.3246 39.4923 83.046 39.4923C82.7831 39.4923 82.566 39.5297 82.3947 39.604C82.2237 39.6783 82.096 39.7791 82.0116 39.9063C81.9298 40.0334 81.889 40.1786 81.889 40.3418C81.889 40.4521 81.9132 40.5529 81.9618 40.6442C82.0129 40.7329 82.0907 40.8157 82.1955 40.8924C82.3028 40.9692 82.4383 41.04 82.6017 41.1048C82.7677 41.1696 82.9657 41.2318 83.1956 41.2919C83.5122 41.3759 83.7855 41.4694 84.0155 41.5725C84.2454 41.6759 84.4343 41.7921 84.5826 41.9217C84.7332 42.0489 84.8443 42.194 84.9159 42.3572C84.9899 42.5179 85.0269 42.7002 85.0269 42.9042C85.0269 43.1178 84.9811 43.3108 84.8891 43.4837C84.7972 43.6565 84.6655 43.8039 84.4945 43.9264C84.3232 44.0487 84.1177 44.1435 83.8774 44.2107C83.6399 44.2754 83.3744 44.3078 83.0806 44.3078C82.8226 44.3078 82.5685 44.2742 82.3181 44.207C82.0703 44.1398 81.8444 44.039 81.6399 43.9046C81.4382 43.7703 81.276 43.6049 81.1533 43.4081C81.0332 43.2089 80.9732 42.9787 80.9732 42.717H81.7089C81.7089 42.8971 81.7459 43.0518 81.82 43.1814C81.894 43.3085 81.995 43.414 82.1227 43.498C82.2529 43.582 82.3998 43.6444 82.5632 43.6851C82.7294 43.7236 82.9017 43.7428 83.0806 43.7428C83.3387 43.7428 83.557 43.7092 83.7359 43.642C83.9147 43.5748 84.05 43.4788 84.1419 43.3541C84.2363 43.2292 84.2837 43.0818 84.2837 42.9115ZM92.5394 42.5694H93.2751C93.2368 42.9006 93.1358 43.197 92.9724 43.4585C92.8089 43.7199 92.5777 43.9276 92.279 44.0811C91.98 44.2323 91.607 44.3078 91.16 44.3078C90.8331 44.3078 90.5356 44.2503 90.2674 44.1351C90.0017 44.0199 89.773 43.8568 89.5815 43.6456C89.3899 43.432 89.2418 43.1765 89.137 42.8791C89.0348 42.5791 88.9837 42.2456 88.9837 41.8786V41.3567C88.9837 40.9896 89.0348 40.6572 89.137 40.3598C89.2418 40.0599 89.3912 39.8032 89.5853 39.5896C89.782 39.3761 90.0183 39.2117 90.2941 39.0965C90.5701 38.9813 90.8804 38.9238 91.2252 38.9238C91.6466 38.9238 92.003 38.9981 92.2941 39.1469C92.5855 39.2957 92.8114 39.502 92.9724 39.766C93.1358 40.0275 93.2368 40.331 93.2751 40.6764H92.5394C92.5036 40.4317 92.4372 40.2219 92.3402 40.0466C92.2432 39.8692 92.1052 39.7324 91.9264 39.6364C91.7476 39.5404 91.5138 39.4923 91.2252 39.4923C90.9774 39.4923 90.759 39.5368 90.5701 39.6255C90.3835 39.7144 90.2263 39.8403 90.0986 40.0035C89.9735 40.1666 89.879 40.3622 89.8153 40.59C89.7513 40.8181 89.7193 41.0712 89.7193 41.3494V41.8786C89.7193 42.1353 89.7475 42.3764 89.8037 42.6018C89.8624 42.8275 89.9505 43.0253 90.0681 43.1956C90.1855 43.3662 90.3351 43.5005 90.5164 43.5988C90.6978 43.6948 90.9124 43.7428 91.16 43.7428C91.4743 43.7428 91.7246 43.696 91.911 43.6025C92.0974 43.5088 92.2379 43.3745 92.3326 43.1994C92.4296 43.0241 92.4986 42.8143 92.5394 42.5694ZM99.2058 41.4502V41.7814C99.2058 42.1748 99.1534 42.5275 99.0486 42.8394C98.9438 43.1514 98.7932 43.4166 98.5965 43.6347C98.3998 43.8531 98.1636 44.0199 97.8876 44.1351C97.6143 44.2503 97.3078 44.3078 96.968 44.3078C96.6386 44.3078 96.3358 44.2503 96.06 44.1351C95.7868 44.0199 95.549 43.8531 95.3473 43.6347C95.1481 43.4166 94.9934 43.1514 94.8836 42.8394C94.7738 42.5275 94.7189 42.1748 94.7189 41.7814V41.4502C94.7189 41.0568 94.7725 40.7052 94.8798 40.3958C94.9896 40.0838 95.1443 39.8188 95.3435 39.6004C95.5427 39.3797 95.779 39.2117 96.0522 39.0965C96.3283 38.9813 96.6308 38.9238 96.9604 38.9238C97.3002 38.9238 97.6067 38.9813 97.88 39.0965C98.1558 39.2117 98.392 39.3797 98.5887 39.6004C98.788 39.8188 98.9401 40.0838 99.0448 40.3958C99.1521 40.7052 99.2058 41.0568 99.2058 41.4502ZM98.4739 41.7814V41.4431C98.4739 41.1311 98.4394 40.8552 98.3704 40.6153C98.3039 40.3754 98.2056 40.1739 98.0754 40.0107C97.945 39.8474 97.7855 39.7239 97.5964 39.6399C97.41 39.556 97.1979 39.5141 96.9604 39.5141C96.7305 39.5141 96.5222 39.556 96.3358 39.6399C96.152 39.7239 95.9936 39.8474 95.8608 40.0107C95.7304 40.1739 95.6296 40.3754 95.5581 40.6153C95.4866 40.8552 95.4508 41.1311 95.4508 41.4431V41.7814C95.4508 42.0956 95.4866 42.374 95.5581 42.6163C95.6296 42.8562 95.7318 43.0589 95.8646 43.2245C95.9999 43.3877 96.1595 43.5112 96.3436 43.5952C96.53 43.6792 96.7381 43.7213 96.968 43.7213C97.2083 43.7213 97.4214 43.6792 97.608 43.5952C97.7944 43.5112 97.9515 43.3877 98.0792 43.2245C98.2094 43.0589 98.3079 42.8562 98.3741 42.6163C98.4406 42.374 98.4739 42.0956 98.4739 41.7814ZM101.174 38.9958H101.891L103.719 43.2678L105.542 38.9958H106.263L103.995 44.2358H103.435L101.174 38.9958ZM100.941 38.9958H101.573L101.676 42.1916V44.2358H100.941V38.9958ZM105.86 38.9958H106.493V44.2358H105.757V42.1916L105.86 38.9958ZM110.477 42.1807H108.986V41.6158H110.477C110.765 41.6158 110.999 41.5725 111.178 41.4862C111.357 41.3998 111.487 41.2799 111.569 41.1263C111.653 40.9728 111.695 40.7977 111.695 40.6009C111.695 40.4209 111.653 40.2517 111.569 40.0934C111.487 39.9352 111.357 39.8079 111.178 39.7119C110.999 39.6137 110.765 39.5645 110.477 39.5645H109.159V44.2358H108.419V38.9958H110.477C110.898 38.9958 111.255 39.0641 111.546 39.2009C111.837 39.3376 112.058 39.5271 112.209 39.7696C112.359 40.0095 112.435 40.2841 112.435 40.5938C112.435 40.9295 112.359 41.2162 112.209 41.4538C112.058 41.6915 111.837 41.8725 111.546 41.9974C111.255 42.1197 110.898 42.1807 110.477 42.1807ZM115.534 39.4601L113.687 44.2358H112.932L115.059 38.9958H115.545L115.534 39.4601ZM117.082 44.2358L115.231 39.4601L115.22 38.9958H115.706L117.84 44.2358H117.082ZM116.986 42.2959V42.8647H113.852V42.2959H116.986ZM123.507 38.9958V44.2358H122.763L119.955 40.1942V44.2358H119.215V38.9958H119.955L122.775 43.0482V38.9958H123.507ZM125.594 38.9958L127.043 41.6267L128.495 38.9958H129.334L127.41 42.278V44.2358H126.671V42.278L124.747 38.9958H125.594Z" fill="#ffffff"></path>
    </g>
</svg>