<?xml version="1.0" encoding="utf-8"?>
<!-- Generator: Adobe Illustrator 26.5.0, SVG Export Plug-In . SVG Version: 6.00 Build 0)  -->
<svg version="1.1" id="Livello_1" xmlns="http://www.w3.org/2000/svg" xmlns:xlink="http://www.w3.org/1999/xlink" x="0px" y="0px"
     viewBox="0 0 551.9 176.4" style="enable-background:new 0 0 551.9 176.4;" xml:space="preserve">
<style type="text/css">
	.st0{fill:#FFFFFF;}
	.st1{fill:#D20A11;}
</style>
  <path class="st0" d="M87,78.5c3.4,3.6,4.8,8.5,4,13.3c-0.5,3,0.3,6.1,1.3,9c3,8.3,10.1,13.2,18.7,15.1c17.4,3.8,34.2-10.4,33.2-28.2
	C143.8,79,139,70.4,131.4,66c-2.9-1.6-6.4-2.9-9.7-2.9c-1.8,0-3.5,0.4-5.3,0.2c-2.4-0.2-4.7-1-6.7-2.3c-7.5-4.8-9.3-15.3-3.8-22.3
	c5.4-6.9,15.8-7.8,22.3-1.9c3.6,3.3,5.3,8.2,4.9,13c-0.4,4.4-0.2,8.2,1.8,12.3c2.3,4.7,6.2,8.4,10.8,10.8c1.8,0.9,3.7,1.6,5.8,1.9
	c2.4,0.4,4.8-0.1,7.3,0c4.6,0.3,8.9,2.6,11.6,6.4c5.2,7.3,2.8,17.7-4.9,22.1c-2.1,1.2-4.5,1.9-6.9,2c-2.3,0.1-4.6-0.7-6.9-0.6
	c-4,0.2-7.8,2.1-11,4.3c-4.4,3.1-7.8,7.7-9.1,13c-1.1,4.7,0.2,9.4-1.7,14c-1.7,4.3-5.5,7.5-9.9,8.7c-8.9,2.4-18-3.7-19.1-12.9
	c-0.3-2.2,0.1-4.4,0.2-6.6c0.1-2.2-0.3-4.5-1.1-6.6c-1-2.9-2.7-4.8-4.7-7.1c-3.8-4.3-9.6-7.6-15.4-7.5c-2.2,0-4.3,0.4-6.5,0
	c-2.4-0.4-4.7-1.4-6.6-2.8c-3.6-2.7-5.8-6.8-6.1-11.3c-0.5-8.7,6.6-16.3,15.4-16.2C80.2,73.8,84.2,75.5,87,78.5"/>
  <path class="st0" d="M54.7,67c3.1-3,5.6-6.9,6.5-11.2c0.7-3.3-0.1-6.6,0.4-10c0.5-3.4,2.1-6.6,4.7-9c9.9-9.2,26.6-1.2,25.6,12.3
	c-0.5,6.5-5.2,12.1-11.5,13.7c-2.8,0.7-5.4,0.1-8.2,0c-2.4-0.1-4.8,0.5-7.1,1.3C53,68.5,46.4,82.3,49,94.7
	c2.2,10.6,12.1,21.6,23.8,20.2c6.7-0.8,13.4,2.8,16.1,9.1c2.5,5.7,1.1,12.5-3.3,16.9c-4.4,4.4-11.3,5.6-17,3.1
	c-6.3-2.8-9.6-9.5-8.9-16.2c1-9.4-4-17.8-12.3-22.2c-2.8-1.5-5.9-2.4-9-2.4c-3.5,0.1-6.6,0.3-9.9-1.1c-6-2.7-9.6-9.1-8.9-15.6
	c0.7-6.5,5.7-12,12.2-13.4c3.4-0.7,6.5,0.6,9.8,0.3c3-0.3,5.9-1.5,8.5-3C51.8,69.3,53.4,68.2,54.7,67z"/>
  <path class="st0" d="M184.6,93c0.3,7.8,4.2,13.7,11.6,17.6c7.5,3.9,17.6,5.8,30.3,5.8c12.7,0,22.5-2.4,29.5-7.1
	c7-4.7,10.5-11.6,10.5-20.5c0-8.1-2.7-14-8.1-17.7c-5.4-3.7-13.6-6.5-24.7-8.3c-10.2-1.6-16.5-2.8-18.7-3.6
	c-2.2-0.9-3.3-2.1-3.3-3.6c0-1.5,0.9-2.8,2.7-3.7c1.8-1,5.1-1.5,9.8-1.5c5.5,0,9.3,0.6,11.2,1.9c2,1.3,3.1,2.9,3.4,4.9l0.2,1.7h24.5
	l-0.1-3.6c-0.4-7.7-4-13.6-10.8-17.5c-6.8-3.9-16.4-5.9-28.8-5.9c-12.1,0-21.6,2.3-28.2,6.8s-10,10.9-10,19.2c0,7.2,2.7,13,8.1,17.1
	c5.4,4.2,13.9,7.3,25.4,9.4c9.5,1.5,15.4,2.8,17.8,3.7c2.4,0.9,3.5,2.3,3.5,4.1c0,2-1.1,3.5-3.2,4.6c-2.2,1.1-5.9,1.6-11.2,1.6
	c-5.6,0-9.7-0.6-12.1-1.8c-2.4-1.2-3.8-3.3-4.2-6.2l-0.2-2.5h-25L184.6,93z M269.9,114.9h25.8l-0.1-40.2c0-0.9,0-1.8-0.1-2.6
	c0-0.9-0.1-1.8-0.1-2.7h0.3c0.3,0.9,0.5,1.8,0.7,2.6c0.2,0.8,0.5,1.7,1,2.6l20.1,40.3H337l19.2-39.8c0.4-0.9,0.7-1.8,0.9-2.6
	c0.2-0.8,0.5-1.7,0.8-2.7h0.3c0,0.9-0.1,1.8-0.1,2.7c0,0.8-0.1,1.7-0.1,2.6v39.7h26.8V33.3h-35L329,74.5c-0.4,0.9-0.7,1.7-1,2.4
	c-0.2,0.6-0.4,1.3-0.6,2.1h-0.2c-0.1-0.7-0.3-1.4-0.5-2.1c-0.2-0.7-0.5-1.5-0.9-2.4l-21.3-41.2h-34.8V114.9z M388.9,75.3
	c0,13.7,4.3,24,12.9,30.8c8.6,6.8,20.3,10.2,35.1,10.2c14.3,0,25.1-2.5,32.5-7.4c7.4-4.9,11.4-12.6,11.9-22.9l0.2-5.2h-26.6
	l-0.2,4.6c-0.4,4.2-1.9,7.4-4.7,9.5C447.1,97,443,98,437.4,98c-6,0-10.7-1.5-14.1-4.5c-3.4-3.1-5-8-5-14.7v-9.5c0-6.2,1.7-10.9,5-14
	c3.3-3.1,8.1-4.6,14.2-4.6c5.4,0,9.4,1,12.1,3c2.7,2,4.4,4.9,5,8.8l0.2,5.4h26.7l-0.2-4.5c-1-11.1-5.1-19.1-12.4-24
	c-7.2-4.9-17.9-7.4-32.1-7.4c-14.2,0-25.7,3.3-34.6,10c-8.9,6.6-13.3,17-13.3,31V75.3z"/>
  <path class="st1" d="M492.8,115c0-11.3,0-22.7,0-34c12.1,0,24.2,0,36.3,0c0,11.3,0,22.7,0,34C517,115,504.9,115,492.8,115z"/>
  <path class="st1" d="M117.4,75.2c8.2,0,14.8,6.6,14.8,14.8s-6.6,14.8-14.8,14.8c-8.2,0-14.8-6.6-14.8-14.8S109.2,75.2,117.4,75.2z"
  />
  <path class="st0" d="M192.4,131l-5.1,13.9h-2.1l5.8-15.3h1.3L192.4,131z M196.6,144.9l-5.1-13.9l0-1.4h1.3l5.9,15.3H196.6z
	 M196.4,139.3v1.7h-8.6v-1.7H196.4z M213.7,144.9h-3.2l0-1.6h3.2c1.1,0,2-0.2,2.7-0.7c0.7-0.5,1.3-1.1,1.6-1.9
	c0.4-0.8,0.6-1.8,0.6-2.9v-0.9c0-0.9-0.1-1.7-0.3-2.3c-0.2-0.7-0.5-1.3-0.9-1.7c-0.4-0.5-0.9-0.8-1.5-1.1c-0.6-0.2-1.2-0.4-2-0.4
	h-3.4v-1.7h3.4c1,0,1.9,0.2,2.7,0.5c0.8,0.3,1.5,0.8,2.1,1.4c0.6,0.6,1.1,1.4,1.4,2.3c0.3,0.9,0.5,1.9,0.5,3v0.9
	c0,1.1-0.2,2.1-0.5,3c-0.3,0.9-0.8,1.6-1.4,2.3c-0.6,0.6-1.3,1.1-2.2,1.4C215.7,144.7,214.7,144.9,213.7,144.9z M211.6,129.6v15.3
	h-2v-15.3H211.6z M236.7,137.3v5.6c-0.2,0.3-0.5,0.6-0.9,0.9c-0.4,0.3-1,0.6-1.7,0.9c-0.7,0.3-1.7,0.4-2.8,0.4
	c-0.9,0-1.8-0.2-2.6-0.5c-0.8-0.3-1.5-0.8-2-1.4c-0.6-0.6-1-1.4-1.3-2.3c-0.3-0.9-0.5-1.9-0.5-3.1v-1.2c0-1.1,0.1-2.2,0.4-3.1
	c0.3-0.9,0.7-1.7,1.2-2.3c0.5-0.6,1.2-1.1,1.9-1.4c0.8-0.3,1.6-0.5,2.6-0.5c1.2,0,2.1,0.2,2.9,0.6c0.8,0.4,1.4,1,1.8,1.7
	c0.4,0.7,0.7,1.5,0.9,2.4h-2c-0.1-0.6-0.3-1.1-0.5-1.5c-0.3-0.5-0.6-0.8-1.1-1.1c-0.5-0.3-1.1-0.4-1.9-0.4c-0.7,0-1.3,0.1-1.8,0.4
	c-0.5,0.3-0.9,0.6-1.3,1.1c-0.3,0.5-0.6,1.1-0.8,1.8c-0.2,0.7-0.2,1.5-0.2,2.3v1.2c0,0.9,0.1,1.7,0.3,2.4c0.2,0.7,0.5,1.3,0.9,1.8
	c0.4,0.5,0.8,0.9,1.4,1.1c0.5,0.3,1.1,0.4,1.8,0.4c0.7,0,1.3-0.1,1.8-0.2c0.4-0.1,0.8-0.3,1.1-0.4c0.3-0.2,0.4-0.3,0.6-0.5v-3.4
	h-3.5v-1.6H236.7z M249.9,141c0-0.4-0.1-0.7-0.2-0.9c-0.1-0.3-0.3-0.5-0.6-0.8c-0.3-0.2-0.6-0.4-1.1-0.6c-0.5-0.2-1.1-0.4-1.8-0.6
	c-0.8-0.2-1.4-0.5-2-0.7c-0.6-0.3-1.1-0.6-1.6-1c-0.4-0.4-0.8-0.8-1-1.2c-0.2-0.5-0.3-1-0.3-1.6c0-0.6,0.1-1.1,0.4-1.6
	c0.2-0.5,0.6-0.9,1.1-1.3c0.5-0.4,1-0.7,1.6-0.9c0.6-0.2,1.3-0.3,2.1-0.3c1.1,0,2.1,0.2,2.9,0.7c0.8,0.4,1.4,1,1.8,1.7
	c0.4,0.7,0.6,1.4,0.6,2.2h-2c0-0.6-0.1-1.1-0.4-1.5c-0.2-0.4-0.6-0.8-1.1-1.1c-0.5-0.3-1.1-0.4-1.9-0.4c-0.7,0-1.3,0.1-1.8,0.3
	c-0.5,0.2-0.8,0.5-1.1,0.9c-0.2,0.4-0.3,0.8-0.3,1.3c0,0.3,0.1,0.6,0.2,0.9c0.1,0.3,0.4,0.5,0.6,0.7c0.3,0.2,0.7,0.4,1.1,0.6
	c0.5,0.2,1,0.4,1.6,0.5c0.9,0.2,1.6,0.5,2.2,0.8c0.6,0.3,1.1,0.6,1.6,1c0.4,0.4,0.7,0.8,0.9,1.3c0.2,0.5,0.3,1,0.3,1.6
	c0,0.6-0.1,1.2-0.4,1.7c-0.3,0.5-0.6,0.9-1.1,1.3c-0.5,0.4-1,0.6-1.7,0.8c-0.7,0.2-1.4,0.3-2.2,0.3c-0.7,0-1.4-0.1-2.1-0.3
	c-0.7-0.2-1.3-0.5-1.9-0.9c-0.6-0.4-1-0.9-1.3-1.4c-0.3-0.6-0.5-1.3-0.5-2h2c0,0.5,0.1,1,0.3,1.4c0.2,0.4,0.5,0.7,0.8,0.9
	c0.4,0.2,0.8,0.4,1.2,0.5c0.5,0.1,0.9,0.2,1.4,0.2c0.7,0,1.3-0.1,1.8-0.3c0.5-0.2,0.9-0.5,1.1-0.8C249.8,142,249.9,141.5,249.9,141z
	 M272.5,140.1h2c-0.1,1-0.4,1.8-0.8,2.6c-0.4,0.8-1.1,1.4-1.9,1.8c-0.8,0.4-1.8,0.7-3.1,0.7c-0.9,0-1.7-0.2-2.4-0.5
	c-0.7-0.3-1.4-0.8-1.9-1.4c-0.5-0.6-0.9-1.4-1.2-2.2c-0.3-0.9-0.4-1.8-0.4-2.9v-1.5c0-1.1,0.1-2,0.4-2.9c0.3-0.9,0.7-1.6,1.2-2.2
	c0.5-0.6,1.2-1.1,1.9-1.4c0.8-0.3,1.6-0.5,2.6-0.5c1.2,0,2.1,0.2,2.9,0.7c0.8,0.4,1.4,1,1.9,1.8c0.4,0.8,0.7,1.6,0.8,2.7h-2
	c-0.1-0.7-0.3-1.3-0.5-1.8c-0.3-0.5-0.6-0.9-1.1-1.2c-0.5-0.3-1.1-0.4-1.9-0.4c-0.7,0-1.3,0.1-1.8,0.4c-0.5,0.3-0.9,0.6-1.3,1.1
	c-0.3,0.5-0.6,1-0.8,1.7c-0.2,0.7-0.3,1.4-0.3,2.2v1.5c0,0.7,0.1,1.5,0.2,2.1c0.2,0.7,0.4,1.2,0.7,1.7c0.3,0.5,0.7,0.9,1.2,1.2
	c0.5,0.3,1.1,0.4,1.8,0.4c0.9,0,1.5-0.1,2.1-0.4c0.5-0.3,0.9-0.7,1.2-1.2C272.2,141.4,272.4,140.8,272.5,140.1z M290.8,136.8v1
	c0,1.1-0.1,2.2-0.4,3.1c-0.3,0.9-0.7,1.7-1.2,2.3c-0.5,0.6-1.2,1.1-1.9,1.5c-0.7,0.3-1.6,0.5-2.5,0.5c-0.9,0-1.7-0.2-2.5-0.5
	c-0.7-0.3-1.4-0.8-2-1.5c-0.5-0.6-1-1.4-1.3-2.3c-0.3-0.9-0.5-1.9-0.5-3.1v-1c0-1.1,0.1-2.2,0.4-3.1c0.3-0.9,0.7-1.7,1.3-2.3
	c0.5-0.6,1.2-1.1,1.9-1.5c0.8-0.3,1.6-0.5,2.5-0.5c0.9,0,1.8,0.2,2.5,0.5c0.8,0.3,1.4,0.8,1.9,1.5c0.5,0.6,1,1.4,1.3,2.3
	C290.7,134.6,290.8,135.6,290.8,136.8z M288.8,137.8v-1c0-0.9-0.1-1.7-0.3-2.4c-0.2-0.7-0.5-1.3-0.8-1.8c-0.4-0.5-0.8-0.8-1.3-1.1
	c-0.5-0.2-1.1-0.4-1.7-0.4c-0.6,0-1.2,0.1-1.7,0.4c-0.5,0.2-0.9,0.6-1.3,1.1c-0.4,0.5-0.6,1.1-0.8,1.8s-0.3,1.5-0.3,2.4v1
	c0,0.9,0.1,1.7,0.3,2.4c0.2,0.7,0.5,1.3,0.8,1.8c0.4,0.5,0.8,0.8,1.3,1.1c0.5,0.2,1.1,0.4,1.7,0.4c0.7,0,1.2-0.1,1.8-0.4
	c0.5-0.2,0.9-0.6,1.3-1.1c0.4-0.5,0.6-1.1,0.8-1.8C288.7,139.5,288.8,138.7,288.8,137.8z M296.2,129.6h2l5,12.5l5-12.5h2l-6.2,15.3
	h-1.5L296.2,129.6z M295.6,129.6h1.7l0.3,9.3v6h-2V129.6z M309.1,129.6h1.7v15.3h-2v-6L309.1,129.6z M321.7,138.9h-4.1v-1.6h4.1
	c0.8,0,1.4-0.1,1.9-0.4c0.5-0.3,0.8-0.6,1.1-1.1c0.2-0.4,0.3-1,0.3-1.5c0-0.5-0.1-1-0.3-1.5c-0.2-0.5-0.6-0.8-1.1-1.1
	c-0.5-0.3-1.1-0.4-1.9-0.4h-3.6v13.6h-2v-15.3h5.6c1.2,0,2.1,0.2,2.9,0.6c0.8,0.4,1.4,1,1.8,1.7c0.4,0.7,0.6,1.5,0.6,2.4
	c0,1-0.2,1.8-0.6,2.5c-0.4,0.7-1,1.2-1.8,1.6C323.8,138.7,322.9,138.9,321.7,138.9z M335.6,131l-5.1,13.9h-2.1l5.8-15.3h1.3
	L335.6,131z M339.8,144.9l-5.1-13.9l0-1.4h1.3l5.8,15.3H339.8z M339.5,139.3v1.7H331v-1.7H339.5z M357.4,129.6v15.3h-2l-7.7-11.8
	v11.8h-2v-15.3h2l7.7,11.8v-11.8H357.4z M363.1,129.6l4,7.7l4-7.7h2.3l-5.3,9.6v5.7h-2v-5.7l-5.3-9.6H363.1z"/>
</svg>
